<svg width="15" height="125" viewBox="0 0 15 125" fill="none" xmlns="http://www.w3.org/2000/svg">
<g clip-path="url(#clip0_1202_349)">
<path d="M7.43982 124.586C6.98364 123.883 6.50672 123.191 6.08372 122.468C5.8266 122.026 5.6151 121.553 5.45337 121.072C5.14648 120.178 5.27504 119.287 5.63998 118.429C5.8971 117.832 6.19984 117.26 6.46111 116.668C6.79287 115.912 6.93802 115.113 7.02511 114.302C7.05829 114 7.08317 113.698 7.10391 113.396C7.1122 113.273 7.16196 113.229 7.29052 113.225C7.86697 113.197 7.86697 113.193 7.91673 113.75C8.01212 114.811 8.15312 115.865 8.61344 116.85C8.84568 117.343 9.0945 117.828 9.31845 118.325C9.91563 119.641 9.81195 120.933 9.08206 122.165C8.61759 122.953 8.09506 123.712 7.59741 124.483C7.57252 124.519 7.55179 124.559 7.52691 124.598C7.49788 124.594 7.46885 124.586 7.43982 124.582L7.43982 124.586Z" fill="#B59443"/>
<path d="M3.48353 114.314C3.40474 114.314 3.37571 114.314 3.34253 114.314C3.07712 114.29 2.84073 114.338 2.69144 114.569C2.5297 114.819 2.55873 115.078 2.70388 115.32C2.91538 115.674 3.35083 115.837 3.81945 115.769C4.74425 115.634 5.39119 115.129 5.83493 114.378C6.02155 114.06 6.15011 113.71 6.2994 113.376C6.35331 113.253 6.63532 113.169 6.73485 113.261C6.75973 113.285 6.76802 113.344 6.76387 113.384C6.58555 114.505 6.40723 115.626 5.92202 116.676C5.67319 117.216 5.34972 117.709 4.84792 118.079C4.23001 118.532 3.51671 118.619 2.77853 118.536C1.73761 118.421 0.875016 117.983 0.327601 117.097C-0.460345 115.817 0.219777 114.04 1.66711 113.563C2.35138 113.336 3.02735 113.563 3.40059 114.151C3.42547 114.191 3.44206 114.239 3.48353 114.318L3.48353 114.314Z" fill="#B59443"/>
<path d="M11.4957 114.318C11.7155 113.909 12.0058 113.631 12.4412 113.527C13.0425 113.38 13.5568 113.583 14.0171 113.933C15.1534 114.799 15.5764 116.827 13.7932 117.983C12.8518 118.592 11.8108 118.735 10.7326 118.385C10.0318 118.158 9.59216 117.634 9.2521 117.029C8.83324 116.286 8.61345 115.475 8.45171 114.648C8.37292 114.263 8.31071 113.873 8.25265 113.487C8.24021 113.408 8.26095 113.273 8.31071 113.249C8.48489 113.169 8.65077 113.245 8.70054 113.388C8.8913 113.953 9.15257 114.477 9.56313 114.922C10.0069 115.403 10.5584 115.702 11.2261 115.781C11.7403 115.841 12.1799 115.618 12.3458 115.209C12.5615 114.688 12.2214 114.263 11.645 114.318C11.6118 114.318 11.5786 114.318 11.4957 114.318Z" fill="#B59443"/>
<path d="M7.50216 112.931C7.01695 112.931 6.53589 112.939 6.05068 112.927C5.85991 112.923 5.66085 112.891 5.47838 112.84C5.2337 112.768 5.05953 112.557 5.06367 112.366C5.07197 112.112 5.242 111.965 5.46179 111.881C5.62353 111.822 5.80185 111.786 5.97189 111.782C6.99207 111.774 8.0164 111.766 9.03658 111.782C9.25637 111.782 9.48861 111.858 9.68352 111.961C10.0194 112.14 10.0277 112.545 9.69597 112.732C9.49691 112.843 9.24393 112.907 9.0117 112.919C8.5099 112.947 8.00396 112.927 7.50216 112.927L7.50216 112.931Z" fill="#B59443"/>
<path d="M7.49801 111.476C7.13722 111.476 7.14966 111.476 7.05428 111.15C6.93816 110.76 6.82204 110.371 6.6686 109.993C6.49027 109.552 6.50271 109.127 6.7308 108.725C6.92572 108.387 7.17039 108.081 7.40263 107.767C7.42751 107.735 7.55193 107.719 7.56851 107.739C7.90028 108.141 8.24449 108.538 8.39378 109.051C8.48502 109.361 8.4477 109.659 8.33987 109.961C8.18228 110.411 8.04128 110.868 7.90443 111.325C7.87125 111.428 7.83393 111.484 7.71781 111.48C7.64316 111.48 7.56851 111.48 7.49801 111.48L7.49801 111.476Z" fill="#B59443"/>
<path d="M10.741 112.199C10.77 112.108 10.8115 112.021 10.8322 111.929C10.9898 111.21 10.3139 110.593 9.53006 110.744C9.14438 110.816 8.82091 110.975 8.67576 111.365C8.60941 111.547 8.43523 111.468 8.31082 111.46C8.27764 111.46 8.21958 111.329 8.23202 111.265C8.31911 110.653 8.53476 110.1 9.11121 109.751C9.98209 109.226 11.2635 109.775 11.475 110.752C11.5912 111.293 11.4875 111.762 11.0106 112.116C10.9401 112.168 10.8571 112.199 10.7783 112.243C10.7659 112.231 10.7576 112.215 10.7452 112.203L10.741 112.199Z" fill="#B59443"/>
<path d="M4.21342 112.235C3.87751 112.104 3.64942 111.87 3.54159 111.532C3.30106 110.76 3.73651 109.93 4.51201 109.663C5.37046 109.365 6.19158 109.691 6.53993 110.494C6.64361 110.737 6.69752 110.999 6.75973 111.253C6.78046 111.333 6.82194 111.456 6.67679 111.464C6.55238 111.468 6.39064 111.548 6.31184 111.361C6.11693 110.892 5.71466 110.737 5.2336 110.729C4.76913 110.725 4.42077 110.923 4.21342 111.329C4.09315 111.567 4.10145 111.814 4.19683 112.06C4.21342 112.108 4.23416 112.152 4.25489 112.199C4.24245 112.211 4.22586 112.223 4.21342 112.235Z" fill="#B59443"/>
</g>
<path d="M7.5 108.921L7.50001 15.9205" stroke="#B59443" stroke-width="1.35" stroke-linecap="round"/>
<path d="M3 103.295L3 20.2954" stroke="#B59443" stroke-width="1.35" stroke-linecap="round"/>
<g clip-path="url(#clip1_1202_349)">
<path d="M7.56018 0.0159545C8.01636 0.719576 8.49328 1.41127 8.91628 2.13477C9.1734 2.57602 9.3849 3.04908 9.54663 3.53009C9.85352 4.42452 9.72496 5.31498 9.36001 6.17364C9.1029 6.76993 8.80016 7.34237 8.53889 7.93468C8.20713 8.68998 8.06198 9.48901 7.97489 10.3C7.94171 10.6021 7.91683 10.9042 7.89609 11.2063C7.8878 11.3296 7.83803 11.3733 7.70947 11.3773C7.13303 11.4051 7.13303 11.4091 7.08327 10.8525C6.98788 9.79113 6.84688 8.73768 6.38656 7.75182C6.15432 7.25888 5.90549 6.7739 5.68155 6.27699C5.08437 4.96118 5.18805 3.66922 5.91794 2.43689C6.38241 1.64979 6.90494 0.890512 7.40259 0.119311C7.42748 0.083534 7.44821 0.0437813 7.47309 0.0040287C7.50212 0.00800397 7.53115 0.0159545 7.56018 0.0199298L7.56018 0.0159545Z" fill="#B59443"/>
<path d="M11.5165 10.288C11.5953 10.288 11.6243 10.288 11.6575 10.288C11.9229 10.3119 12.1593 10.2642 12.3086 10.0336C12.4703 9.78317 12.4413 9.52477 12.2961 9.28228C12.0846 8.92848 11.6492 8.7655 11.1806 8.83308C10.2558 8.96824 9.60881 9.47309 9.16507 10.2244C8.97845 10.5424 8.84989 10.8923 8.7006 11.2262C8.64669 11.3494 8.36468 11.4329 8.26515 11.3415C8.24027 11.3176 8.23198 11.258 8.23612 11.2182C8.41445 10.0972 8.59277 8.97619 9.07798 7.92672C9.32681 7.38608 9.65028 6.89315 10.1521 6.52345C10.77 6.07027 11.4833 5.98281 12.2215 6.06629C13.2624 6.18158 14.125 6.61886 14.6724 7.50534C15.4603 8.78538 14.7802 10.5623 13.3329 11.0393C12.6486 11.2659 11.9726 11.0393 11.5994 10.451C11.5745 10.4113 11.5579 10.3636 11.5165 10.284L11.5165 10.288Z" fill="#B59443"/>
<path d="M3.50433 10.2841C3.28453 10.6935 2.99424 10.9718 2.55879 11.0751C1.95747 11.2222 1.44323 11.0195 0.982902 10.6697C-0.153398 9.80305 -0.5764 7.77567 1.20685 6.61887C2.14823 6.01065 3.18915 5.86754 4.26739 6.21737C4.96825 6.44396 5.40784 6.96869 5.7479 7.57293C6.16676 8.31631 6.38655 9.12726 6.54829 9.95412C6.62708 10.3397 6.68929 10.7293 6.74735 11.1149C6.75979 11.1944 6.73905 11.3296 6.68929 11.3534C6.51511 11.4329 6.34923 11.3574 6.29946 11.2143C6.1087 10.6498 5.84743 10.1251 5.43687 9.67982C4.99313 9.19881 4.44157 8.90067 3.77389 8.82116C3.25965 8.76154 2.82006 8.98415 2.65418 9.3936C2.43853 9.91436 2.77859 10.3397 3.35503 10.2841C3.38821 10.2841 3.42139 10.2841 3.50433 10.2841Z" fill="#B59443"/>
<path d="M7.49784 11.6714C7.98305 11.6714 8.46411 11.6634 8.94932 11.6753C9.14009 11.6793 9.33915 11.7111 9.52162 11.7628C9.7663 11.8343 9.94047 12.045 9.93633 12.2358C9.92803 12.4903 9.758 12.6373 9.53821 12.7208C9.37647 12.7805 9.19815 12.8162 9.02811 12.8202C8.00793 12.8282 6.9836 12.8361 5.96342 12.8202C5.74363 12.8202 5.51139 12.7447 5.31648 12.6413C4.98056 12.4624 4.97227 12.057 5.30403 11.8701C5.50309 11.7588 5.75607 11.6952 5.9883 11.6833C6.4901 11.6555 6.99604 11.6753 7.49784 11.6753L7.49784 11.6714Z" fill="#B59443"/>
<path d="M7.50199 13.1264C7.86278 13.1264 7.85034 13.1264 7.94572 13.4523C8.06184 13.8419 8.17796 14.2315 8.3314 14.6091C8.50973 15.0504 8.49729 15.4757 8.2692 15.8773C8.07428 16.2151 7.8296 16.5212 7.59737 16.8353C7.57249 16.8671 7.44807 16.883 7.43149 16.8631C7.09972 16.4616 6.75551 16.0641 6.60622 15.5513C6.51498 15.2412 6.5523 14.9431 6.66013 14.6409C6.81772 14.1917 6.95872 13.7346 7.09557 13.2774C7.12875 13.1741 7.16607 13.1184 7.28219 13.1224C7.35684 13.1224 7.43149 13.1224 7.50199 13.1224L7.50199 13.1264Z" fill="#B59443"/>
<path d="M4.25899 12.4029C4.22996 12.4943 4.18849 12.5817 4.16776 12.6732C4.01017 13.3927 4.68614 14.0089 5.46994 13.8578C5.85562 13.7863 6.17909 13.6272 6.32424 13.2377C6.39059 13.0548 6.56477 13.1343 6.68918 13.1423C6.72236 13.1423 6.78042 13.2734 6.76798 13.337C6.68089 13.9492 6.46524 14.5018 5.88879 14.8516C5.01791 15.3764 3.73646 14.8278 3.52496 13.8499C3.40884 13.3092 3.51252 12.8401 3.98943 12.4863C4.05993 12.4347 4.14287 12.4029 4.22167 12.3591C4.23411 12.3711 4.2424 12.387 4.25484 12.3989L4.25899 12.4029Z" fill="#B59443"/>
<path d="M10.7866 12.3671C11.1225 12.4982 11.3506 12.7328 11.4584 13.0707C11.6989 13.8419 11.2635 14.6727 10.488 14.9391C9.62954 15.2372 8.80842 14.9112 8.46007 14.1082C8.35639 13.8657 8.30248 13.6034 8.24027 13.349C8.21954 13.2695 8.17806 13.1462 8.32321 13.1383C8.44762 13.1343 8.60936 13.0548 8.68816 13.2416C8.88307 13.7107 9.28534 13.8657 9.7664 13.8737C10.2309 13.8777 10.5792 13.6789 10.7866 13.2734C10.9068 13.0349 10.8986 12.7884 10.8032 12.542C10.7866 12.4943 10.7658 12.4505 10.7451 12.4028C10.7576 12.3909 10.7741 12.379 10.7866 12.3671Z" fill="#B59443"/>
</g>
<defs>
<clipPath id="clip0_1202_349">
<rect width="15" height="16.875" fill="white" transform="translate(15 124.602) rotate(-180)"/>
</clipPath>
<clipPath id="clip1_1202_349">
<rect width="15" height="16.875" fill="white"/>
</clipPath>
</defs>
</svg>
