<svg width="48" height="48" viewBox="0 0 48 48" fill="none" xmlns="http://www.w3.org/2000/svg">
<path d="M37.7639 16H6.2361C5.00114 16 4 17.0011 4 18.2361V33.7639C4 34.9989 5.00114 36 6.2361 36H37.7639C38.9989 36 40 34.9989 40 33.7639V18.2361C40 17.0011 38.9989 16 37.7639 16Z" stroke="#F2F7F9" stroke-width="2" stroke-linecap="round" stroke-linejoin="round"/>
<path d="M24.8293 21C24.6222 21.5849 24.239 22.0913 23.7323 22.4494C23.2256 22.8076 22.6204 22.9999 22 22.9999C21.3795 22.9999 20.7743 22.8076 20.2676 22.4494C19.7609 22.0913 19.3777 21.5849 19.1707 21" stroke="#DCBD6F" stroke-width="2" stroke-linecap="round" stroke-linejoin="round"/>
<path d="M19 25H25" stroke="#DCBD6F" stroke-width="2" stroke-linecap="round" stroke-linejoin="round"/>
<path d="M19 28H25" stroke="#DCBD6F" stroke-width="2" stroke-linecap="round" stroke-linejoin="round"/>
<path d="M22 31V25" stroke="#DCBD6F" stroke-width="2" stroke-linecap="round" stroke-linejoin="round"/>
<path d="M9 26H13" stroke="#DCBD6F" stroke-width="2" stroke-linecap="round" stroke-linejoin="round"/>
<path d="M31 26H35" stroke="#DCBD6F" stroke-width="2" stroke-linecap="round" stroke-linejoin="round"/>
</svg>
