<svg width="45" height="61" viewBox="0 0 45 61" fill="none" xmlns="http://www.w3.org/2000/svg">
<g clip-path="url(#clip0_644_977)">
<path d="M23.0001 1.1103e-07C22.6297 -0.000126373 22.2676 0.107817 21.9595 0.310176C21.6515 0.512534 21.4114 0.800221 21.2695 1.13685C21.1277 1.47347 21.0905 1.84392 21.1627 2.20133C21.2349 2.55875 21.4132 2.88707 21.675 3.14479C21.9369 3.40251 22.2706 3.57803 22.6339 3.64917C22.9971 3.72031 23.3737 3.68386 23.7159 3.54444C24.0581 3.40502 24.3506 3.16889 24.5564 2.86591C24.7622 2.56293 24.8721 2.20671 24.8721 1.84231C24.8699 1.35448 24.6719 0.887249 24.3214 0.54224C23.9708 0.197232 23.4959 0.00235514 23.0001 1.1103e-07ZM23.0001 1.05282C23.1588 1.05282 23.314 1.09912 23.4459 1.18587C23.5779 1.27262 23.6807 1.39593 23.7415 1.54019C23.8022 1.68445 23.8181 1.84319 23.7872 1.99633C23.7562 2.14948 23.6798 2.29015 23.5675 2.40056C23.4553 2.51097 23.3123 2.58617 23.1566 2.61663C23.001 2.64709 22.8396 2.63145 22.693 2.5717C22.5463 2.51195 22.421 2.41076 22.3328 2.28093C22.2447 2.1511 22.1976 1.99846 22.1976 1.84231C22.1965 1.7383 22.2164 1.63511 22.2564 1.5388C22.2963 1.44248 22.3554 1.35497 22.4301 1.2814C22.5048 1.20782 22.5937 1.14967 22.6916 1.11033C22.7895 1.07099 22.8944 1.05127 23.0001 1.05231V1.05282ZM11.8721 2.31628C11.5019 2.31641 11.14 2.42453 10.8322 2.62697C10.5245 2.82941 10.2846 3.11709 10.143 3.45362C10.0015 3.79015 9.96448 4.16043 10.0368 4.51763C10.1091 4.87484 10.2874 5.20294 10.5493 5.46043C10.8111 5.71793 11.1446 5.89327 11.5078 5.96428C11.8709 6.03529 12.2472 5.99878 12.5893 5.85937C12.9313 5.71996 13.2236 5.48391 13.4293 5.18106C13.635 4.87821 13.7447 4.52217 13.7447 4.15795C13.7427 3.67001 13.5447 3.20265 13.1939 2.8577C12.8431 2.51276 12.3679 2.3182 11.872 2.31641L11.8721 2.31628ZM34.1281 2.31628C33.7579 2.31641 33.396 2.42453 33.0882 2.62697C32.7805 2.82941 32.5406 3.11709 32.399 3.45362C32.2575 3.79015 32.2205 4.16043 32.2928 4.51763C32.3651 4.87484 32.5434 5.20294 32.8053 5.46043C33.0671 5.71793 33.4006 5.89327 33.7638 5.96428C34.1269 6.03529 34.5032 5.99878 34.8453 5.85937C35.1873 5.71996 35.4796 5.48391 35.6853 5.18106C35.891 4.87821 36.0007 4.52217 36.0007 4.15795C35.9987 3.6699 35.8006 3.20244 35.4497 2.85748C35.0987 2.51252 34.6234 2.31803 34.1273 2.31641L34.1281 2.31628ZM11.8721 3.36833C12.0308 3.36833 12.186 3.41464 12.3179 3.50139C12.4499 3.58814 12.5527 3.71144 12.6135 3.8557C12.6742 3.99996 12.6901 4.1587 12.6592 4.31184C12.6282 4.46499 12.5518 4.60566 12.4395 4.71608C12.3273 4.82649 12.1843 4.90168 12.0286 4.93214C11.873 4.9626 11.7116 4.94697 11.565 4.88722C11.4183 4.82746 11.293 4.72627 11.2048 4.59644C11.1167 4.46661 11.0696 4.31397 11.0696 4.15782C11.0685 4.05387 11.0886 3.95076 11.1285 3.85452C11.1685 3.75828 11.2275 3.67084 11.3022 3.59734C11.377 3.52383 11.4658 3.46573 11.5637 3.42643C11.6615 3.38713 11.7663 3.36742 11.872 3.36846L11.8721 3.36833ZM34.1281 3.36833C34.2868 3.36833 34.442 3.41464 34.5739 3.50139C34.7059 3.58814 34.8087 3.71144 34.8695 3.8557C34.9302 3.99996 34.9461 4.1587 34.9152 4.31184C34.8842 4.46499 34.8078 4.60566 34.6955 4.71608C34.5833 4.82649 34.4403 4.90168 34.2846 4.93214C34.129 4.9626 33.9676 4.94697 33.821 4.88722C33.6743 4.82746 33.549 4.72627 33.4608 4.59644C33.3727 4.46661 33.3256 4.31397 33.3256 4.15782C33.3246 4.05393 33.3446 3.95088 33.3845 3.85469C33.4244 3.7585 33.4834 3.6711 33.558 3.5976C33.6327 3.52411 33.7215 3.46599 33.8192 3.42665C33.917 3.38731 34.0217 3.36752 34.1273 3.36846L34.1281 3.36833ZM22.9871 4.42128L22.9741 4.42205C22.9604 4.42273 22.9467 4.42397 22.933 4.42576C22.9152 4.42798 22.8976 4.43109 22.8801 4.4351C22.8626 4.4391 22.8455 4.44401 22.8287 4.44981C22.7229 4.48494 22.6309 4.55178 22.5656 4.64095C22.5003 4.73013 22.4651 4.83716 22.4647 4.94706V4.75675L16.8357 11.2241L12.3609 6.78719C12.2862 6.71296 12.1908 6.66225 12.0868 6.64151C11.9828 6.62076 11.8749 6.63091 11.7767 6.67067C11.6786 6.71042 11.5947 6.77799 11.5357 6.86478C11.4767 6.95158 11.4453 7.05367 11.4454 7.15808V19.4742C11.4455 19.5434 11.4594 19.6118 11.4863 19.6756C11.5132 19.7395 11.5527 19.7975 11.6024 19.8463C11.6521 19.8952 11.7112 19.9339 11.7761 19.9603C11.841 19.9867 11.9106 20.0003 11.9809 20.0003H34.0191C34.1609 20.0002 34.2969 19.9447 34.3971 19.8461C34.4974 19.7474 34.5537 19.6137 34.5538 19.4742V7.15808C34.5538 7.05383 34.5223 6.95193 34.4634 6.8653C34.4044 6.77868 34.3206 6.71123 34.2227 6.6715C34.1247 6.63177 34.0169 6.62156 33.913 6.64215C33.8092 6.66275 33.7138 6.71323 33.6392 6.78719L29.1647 11.2241L23.5357 4.75675V4.94718C23.5353 4.87247 23.5188 4.79868 23.4872 4.73074C23.4556 4.6628 23.4096 4.60226 23.3524 4.55314C23.339 4.54158 23.325 4.5307 23.3105 4.52053C23.296 4.51024 23.281 4.50068 23.2655 4.49188C23.2208 4.4662 23.1723 4.44736 23.1218 4.43599L23.117 4.4342L23.1098 4.43228C23.0988 4.43006 23.0877 4.42823 23.0767 4.42678C23.0669 4.42533 23.0572 4.4241 23.0474 4.42307L23.0379 4.42231H23.0284C23.0182 4.42137 23.0079 4.42073 22.9976 4.42039H22.9846L22.9871 4.42128ZM23.0001 5.75854L28.7296 12.3424C28.7776 12.3977 28.8368 12.4426 28.9034 12.4743C28.97 12.5059 29.0426 12.5237 29.1165 12.5264C29.1904 12.5291 29.2641 12.5166 29.3329 12.4899C29.4017 12.4632 29.4641 12.4227 29.5162 12.371L33.4843 8.43612V18.948H12.5157V8.4351L16.4846 12.3709C16.5367 12.4224 16.5991 12.4628 16.6678 12.4895C16.7365 12.5161 16.8101 12.5285 16.8839 12.5258C16.9577 12.5231 17.0302 12.5054 17.0967 12.4738C17.1632 12.4422 17.2224 12.3974 17.2705 12.3422L23.0001 5.75854Z" fill="#E0EDF2"/>
<path d="M12.1667 19.1667V7.91667L16.9334 11.6667L23.0001 5L29.0667 11.6667L33.8334 7.91667V19.1667H12.1667Z" fill="#E0EDF2"/>
</g>
<circle cx="22.5" cy="38.5" r="21.5" fill="white" stroke="#E0EDF2" stroke-width="2"/>
<path d="M21.9739 47.336C19.1659 47.336 17.2699 46.304 16.0219 44.864L17.7019 42.632C18.7579 43.664 20.0299 44.48 21.6379 44.48C23.4619 44.48 24.6859 43.568 24.6859 41.984C24.6859 40.232 23.6539 39.152 19.7899 39.152V36.608C23.0539 36.608 24.1099 35.504 24.1099 33.92C24.1099 32.528 23.2459 31.688 21.7339 31.688C20.4619 31.688 19.4299 32.288 18.3739 33.272L16.5739 31.088C18.1099 29.768 19.8139 28.928 21.8779 28.928C25.3099 28.928 27.6379 30.608 27.6379 33.656C27.6379 35.552 26.5819 36.968 24.6859 37.688V37.808C26.7019 38.384 28.2379 39.848 28.2379 42.2C28.2379 45.464 25.3819 47.336 21.9739 47.336Z" fill="#168AB1"/>
<defs>
<clipPath id="clip0_644_977">
<rect width="26" height="20" fill="white" transform="translate(10)"/>
</clipPath>
</defs>
</svg>
