<svg width="36" height="36" viewBox="0 0 36 36" fill="none" xmlns="http://www.w3.org/2000/svg">
<path d="M23.25 32.25V4.5C23.25 3.90326 23.0129 3.33097 22.591 2.90901C22.169 2.48705 21.5967 2.25 21 2.25H15C14.4033 2.25 13.831 2.48705 13.409 2.90901C12.9871 3.33097 12.75 3.90326 12.75 4.5V32.25" stroke="white" stroke-width="2" stroke-linecap="round" stroke-linejoin="round"/>
<path d="M30.75 9.75H5.25C4.00736 9.75 3 10.7574 3 12V30C3 31.2426 4.00736 32.25 5.25 32.25H30.75C31.9926 32.25 33 31.2426 33 30V12C33 10.7574 31.9926 9.75 30.75 9.75Z" stroke="white" stroke-width="2" stroke-linecap="round" stroke-linejoin="round"/>
</svg>
