<svg width="24" height="24" viewBox="0 0 24 24" fill="none" xmlns="http://www.w3.org/2000/svg">
<path d="M8.5 16.5H4V21" stroke="#081059" stroke-width="2" stroke-linecap="round" stroke-linejoin="round"/>
<path d="M15.5 7.5H20V3" stroke="#081059" stroke-width="2" stroke-linecap="round" stroke-linejoin="round"/>
<path d="M21 12C21.0003 13.9815 20.3466 15.9076 19.1405 17.4797C17.9344 19.0518 16.2432 20.1819 14.3292 20.6947C12.4153 21.2075 10.3856 21.0744 8.55505 20.3159C6.72449 19.5575 5.19539 18.2162 4.20496 16.5" stroke="#081059" stroke-width="2" stroke-linecap="round" stroke-linejoin="round"/>
<path d="M3 12C2.99971 10.0185 3.65332 8.09237 4.85944 6.5203C6.06557 4.94822 7.75678 3.81812 9.67073 3.3053C11.5847 2.79249 13.6144 2.92562 15.4449 3.68406C17.2755 4.4425 18.8046 5.78384 19.795 7.5" stroke="#081059" stroke-width="2" stroke-linecap="round" stroke-linejoin="round"/>
</svg>
