<svg width="40" height="44" viewBox="0 0 40 44" fill="none" xmlns="http://www.w3.org/2000/svg">
<g clip-path="url(#clip0_950_1647)">
<path d="M40.7327 0H23.3036V3.56H24.6309V36.3509C24.6309 38.3101 25.4092 40.1891 26.7946 41.5745C28.18 42.9599 30.059 43.7382 32.0182 43.7382C33.9774 43.7382 35.8564 42.9599 37.2418 41.5745C38.6272 40.1891 39.4055 38.3101 39.4055 36.3509V36.2418V36.2473V3.56H40.7327V0ZM37.2236 8.80727H26.7964V3.54909H37.2273L37.2236 8.80727ZM17.4291 0H0V3.56H1.32727V36.3509C1.32727 38.3101 2.10557 40.1891 3.49095 41.5745C4.87634 42.9599 6.75532 43.7382 8.71455 43.7382C10.6738 43.7382 12.5528 42.9599 13.9381 41.5745C15.3235 40.1891 16.1018 38.3101 16.1018 36.3509V36.2418V36.2473V3.56H17.4291V0ZM13.9382 36.2509C13.889 37.6002 13.3186 38.878 12.3471 39.8156C11.3755 40.7532 10.0782 41.2777 8.72802 41.2789C7.37778 41.2801 6.07966 40.7578 5.10643 39.8219C4.1332 38.886 3.56065 37.6093 3.50909 36.26V3.56545H13.94L13.9382 36.2509Z" fill="#081059"/>
</g>
<defs>
<clipPath id="clip0_950_1647">
<rect width="40" height="43.6364" fill="white"/>
</clipPath>
</defs>
</svg>
