<svg width="48" height="48" viewBox="0 0 48 48" fill="none" xmlns="http://www.w3.org/2000/svg">
<path d="M24 22V45" stroke="#B59443" stroke-width="2" stroke-miterlimit="10" stroke-linecap="round"/>
<path d="M24 16C27.3137 16 30 13.3137 30 10C30 6.68629 27.3137 4 24 4C20.6863 4 18 6.68629 18 10C18 13.3137 20.6863 16 24 16Z" stroke="#081059" stroke-width="2" stroke-miterlimit="10" stroke-linecap="round"/>
<path d="M9 28C12.3137 28 15 25.3137 15 22C15 18.6863 12.3137 16 9 16C5.68629 16 3 18.6863 3 22C3 25.3137 5.68629 28 9 28Z" stroke="#081059" stroke-width="2" stroke-miterlimit="10" stroke-linecap="round"/>
<path d="M39 28C42.3137 28 45 25.3137 45 22C45 18.6863 42.3137 16 39 16C35.6863 16 33 18.6863 33 22C33 25.3137 35.6863 28 39 28Z" stroke="#081059" stroke-width="2" stroke-miterlimit="10" stroke-linecap="round"/>
<path d="M18 30L24 36L30 30" stroke="#B59443" stroke-width="2" stroke-miterlimit="10" stroke-linecap="round"/>
</svg>
