<svg width="314" height="149" viewBox="0 0 314 149" fill="none" xmlns="http://www.w3.org/2000/svg">
<rect width="92" height="33" rx="4" fill="#081059"/>
<path d="M13.132 18.806H25.12V24.656H22.942V20.156H15.22V24.674H13.132V18.806ZM14.23 20.822H23.716V22.082H14.23V20.822ZM14.23 22.784H23.716V24.152H14.23V22.784ZM17.83 7.664H20.008V17.708H17.83V7.664ZM12.718 8.798H25.03V14.144H12.52V12.884H22.888V10.058H12.718V8.798ZM10.882 10.706H27.118V12.2H10.882V10.706ZM12.124 14.774H25.786V16.088H12.124V14.774ZM10.846 16.736H27.1V18.23H10.846V16.736ZM28.81 17.6H36.604V19.454H28.81V17.6ZM28.81 10.796H36.46V12.47H28.81V10.796ZM34.768 8.024L36.55 8.492C36.1 9.32 35.668 10.13 35.326 10.688L33.94 10.238C34.246 9.608 34.588 8.672 34.768 8.024ZM31.69 7.934H33.562V15.98H31.69V7.934ZM28.954 8.636L30.394 8.096C30.808 8.744 31.204 9.59 31.33 10.166L29.8 10.76C29.71 10.184 29.35 9.302 28.954 8.636ZM31.888 20.894L33.148 19.598C34.246 20.282 35.776 21.344 36.532 22.028L35.2 23.486C34.498 22.784 32.986 21.65 31.888 20.894ZM33.472 12.416C34.12 12.722 36.208 13.964 36.694 14.306L35.578 15.818C34.876 15.152 33.22 13.874 32.41 13.334L33.472 12.416ZM31.564 11.75L32.95 12.254C32.23 13.784 30.934 15.404 29.656 16.268C29.386 15.854 28.81 15.206 28.414 14.882C29.62 14.216 30.898 12.938 31.564 11.75ZM36.676 8.42H45.262V10.274H36.676V8.42ZM39.124 15.62V16.718H42.742V15.62H39.124ZM39.124 18.212V19.346H42.742V18.212H39.124ZM39.124 13.028V14.126H42.742V13.028H39.124ZM37.18 11.408H44.776V20.948H37.18V11.408ZM39.844 9.41L42.22 9.68C41.806 10.796 41.338 11.912 40.978 12.668L39.178 12.308C39.448 11.48 39.718 10.274 39.844 9.41ZM38.728 20.966L40.492 22.1C39.574 23.036 38.062 24.062 36.766 24.638C36.424 24.224 35.83 23.612 35.362 23.252C36.604 22.73 38.026 21.74 38.728 20.966ZM41.158 22.154L42.688 21.092C43.678 21.758 45.028 22.766 45.712 23.45L44.056 24.602C43.462 23.936 42.148 22.874 41.158 22.154ZM31.636 16.358H33.58V18.32C33.58 20.372 33.058 22.856 29.494 24.386C29.278 23.918 28.72 23.144 28.342 22.784C31.276 21.578 31.636 19.742 31.636 18.266V16.358ZM54.856 10.652H63.496V12.704H53.848L54.856 10.652ZM57.232 14.612H63.028V16.574H57.232V14.612ZM57.214 18.59H63.262V20.606H57.214V18.59ZM56.134 11.336H58.348V24.62H56.134V11.336ZM55.27 7.88L57.358 8.438C56.35 11.354 54.73 14.342 53.074 16.214C52.732 15.818 51.904 15.044 51.436 14.702C53.02 13.082 54.442 10.49 55.27 7.88ZM50.518 7.79L52.606 8.456C51.436 11.516 49.546 14.81 47.566 16.862C47.368 16.322 46.756 15.098 46.378 14.558C48.034 12.92 49.6 10.364 50.518 7.79ZM48.7 12.758L50.86 10.58L50.878 10.598V24.602H48.7V12.758ZM67.258 14.486H71.416V16.466H67.258V14.486ZM70.588 14.486H72.694C72.694 14.486 72.676 15.026 72.676 15.278C72.604 19.094 72.514 20.696 72.1 21.254C71.74 21.704 71.38 21.866 70.858 21.956C70.372 22.028 69.598 22.028 68.752 22.01C68.716 21.38 68.482 20.534 68.158 19.994C68.806 20.066 69.418 20.066 69.706 20.066C69.958 20.066 70.12 20.03 70.264 19.85C70.48 19.562 70.552 18.302 70.588 14.81V14.486ZM76.006 8.852L77.302 7.538C78.292 8.06 79.624 8.888 80.272 9.482L78.886 10.94C78.292 10.31 77.014 9.428 76.006 8.852ZM78.13 13.478L80.308 14C78.796 18.698 76.15 22.352 72.586 24.548C72.262 24.098 71.47 23.198 71.02 22.766C74.476 20.912 76.888 17.654 78.13 13.478ZM67.384 10.418H81.262V12.542H67.384V10.418ZM65.944 10.418H68.212V15.71C68.212 18.41 67.906 22.406 66.268 24.836C65.908 24.404 64.936 23.612 64.432 23.36C65.818 21.2 65.944 18.05 65.944 15.692V10.418ZM73.252 7.736H75.52C75.394 15.08 77.05 22.298 78.868 22.298C79.282 22.298 79.498 21.38 79.606 19.112C80.092 19.616 80.866 20.12 81.442 20.336C81.1 23.684 80.38 24.494 78.688 24.494C74.764 24.494 73.306 15.944 73.252 7.736Z" fill="white"/>
<rect y="57" width="92" height="33" rx="4" fill="#081059"/>
<path d="M18.91 66.77C17.434 68.966 14.662 71.486 11.674 73.178C11.386 72.674 10.774 71.882 10.288 71.432C13.42 69.812 16.336 66.95 17.686 64.628H19.936C21.88 67.508 24.832 69.956 27.73 71.216C27.19 71.774 26.686 72.494 26.272 73.142C23.482 71.594 20.458 69.002 18.91 66.77ZM19.018 73.646H25.066V75.572H19.018V73.646ZM11.314 79.19H26.704V81.134H11.314V79.19ZM17.938 69.776H20.242V80.234H17.938V69.776ZM13.276 72.89H15.4V80.18H13.276V72.89ZM29.008 75.734H45.064V77.498H29.008V75.734ZM29.044 67.652H44.992V69.434H29.044V67.652ZM29.782 70.874H44.308V72.566H29.782V70.874ZM30.682 73.358H43.462V74.924H30.682V73.358ZM35.902 71.738H38.044V81.62H35.902V71.738ZM34.336 64.7H36.352V68.498H34.336V64.7ZM37.666 64.7H39.718V68.372H37.666V64.7ZM35.506 76.526L37.198 77.282C35.488 79.154 32.608 80.684 29.836 81.404C29.548 80.882 28.918 80.054 28.45 79.604C31.168 79.082 34.03 77.894 35.506 76.526ZM38.476 76.472C39.934 77.894 42.742 79.01 45.55 79.478C45.064 79.928 44.416 80.828 44.092 81.422C41.248 80.702 38.494 79.172 36.802 77.138L38.476 76.472ZM41.806 64.844L44.074 65.384C43.498 66.374 42.886 67.346 42.418 68.012L40.672 67.472C41.086 66.734 41.554 65.636 41.806 64.844ZM39.43 68.714L41.716 69.236C41.23 70.1 40.762 70.892 40.384 71.468L38.548 70.946C38.872 70.298 39.25 69.38 39.43 68.714ZM30.34 65.42L32.194 64.79C32.716 65.564 33.31 66.644 33.562 67.346L31.6 68.048C31.402 67.346 30.826 66.248 30.34 65.42ZM32.626 69.452L34.714 69.128C35.02 69.632 35.362 70.334 35.506 70.82L33.31 71.198C33.202 70.73 32.896 69.974 32.626 69.452ZM53.704 72.332H55.828V78.614C55.828 79.28 55.936 79.352 56.44 79.352C56.674 79.352 57.61 79.352 57.898 79.352C58.438 79.352 58.528 78.92 58.6 76.454C59.05 76.814 59.95 77.174 60.508 77.318C60.31 80.414 59.788 81.296 58.096 81.296C57.718 81.296 56.458 81.296 56.098 81.296C54.172 81.296 53.704 80.63 53.704 78.614V72.332ZM51.13 73.718L53.074 74.15C52.894 76.22 52.552 78.596 51.742 80.054L49.816 79.208C50.572 77.822 50.968 75.734 51.13 73.718ZM53.83 70.334L55.27 68.912C56.71 69.596 58.672 70.694 59.662 71.54L58.096 73.142C57.214 72.314 55.306 71.09 53.83 70.334ZM59.32 73.988L61.246 73.232C62.326 75.104 63.388 77.516 63.676 79.172L61.552 80.036C61.318 78.416 60.364 75.914 59.32 73.988ZM54.442 64.718H56.692V67.994H54.442V64.718ZM49.006 66.824H63.226V68.876H49.006V66.824ZM47.98 66.824H50.14V71.378C50.14 74.294 49.87 78.758 48.232 81.584C47.836 81.224 46.882 80.594 46.36 80.378C47.872 77.786 47.98 73.988 47.98 71.378V66.824ZM67.654 76.922H76.924V78.452H67.654V76.922ZM64.918 74.024H81.1V75.698H64.918V74.024ZM70.174 72.908L72.262 73.232C71.11 75.626 69.112 77.48 65.584 78.74C65.35 78.254 64.774 77.516 64.36 77.21C67.618 76.238 69.382 74.654 70.174 72.908ZM76.672 74.564C77.68 75.734 79.696 76.76 81.694 77.21C81.244 77.624 80.632 78.416 80.344 78.938C78.22 78.254 76.204 76.832 75.016 75.194L76.672 74.564ZM76.168 76.922H78.22C78.22 76.922 78.202 77.39 78.166 77.642C77.986 79.586 77.77 80.54 77.356 80.972C76.996 81.332 76.582 81.44 76.042 81.494C75.574 81.548 74.746 81.548 73.864 81.53C73.828 80.99 73.63 80.288 73.36 79.82C74.08 79.892 74.764 79.91 75.088 79.91C75.358 79.91 75.502 79.874 75.664 79.748C75.898 79.532 76.042 78.812 76.168 77.156V76.922ZM71.56 75.968H73.612C73.216 78.974 72.19 80.792 67.402 81.71C67.222 81.206 66.736 80.45 66.376 80.072C70.552 79.406 71.254 78.164 71.56 75.968ZM65.152 65.672H80.848V67.382H65.152V65.672ZM68.932 64.718H71.038V68.012H68.932V64.718ZM74.89 64.718H77.014V68.012H74.89V64.718ZM68.932 71.414V72.116H77.05V71.414H68.932ZM68.932 69.524V70.226H77.05V69.524H68.932ZM66.862 68.282H79.228V73.376H66.862V68.282Z" fill="white"/>
<rect y="116" width="92" height="33" rx="4" fill="#081059"/>
<path d="M16.48 131.656H21.106V133.348H16.48V131.656ZM16.48 134.68H21.124V136.372H16.48V134.68ZM12.988 137.722H25.138V139.702H12.988V137.722ZM11.638 128.416H26.344V140.62H24.148V130.396H13.708V140.62H11.638V128.416ZM15.562 129.73H17.488V138.604H15.562V129.73ZM20.26 129.73H22.204V138.586H20.26V129.73ZM17.596 125.68L20.152 126.22C19.72 127.552 19.324 128.956 18.964 129.892L16.984 129.37C17.236 128.326 17.524 126.814 17.596 125.68ZM10.882 124.744H27.154V126.796H10.882V124.744ZM38.692 123.7H40.87V126.148H38.692V123.7ZM34.66 125.428H44.92V127.246H34.66V125.428ZM34.102 129.532H45.37V131.368H34.102V129.532ZM36.298 127.3L38.152 126.94C38.476 127.768 38.764 128.83 38.818 129.514L36.856 129.946C36.838 129.262 36.604 128.146 36.298 127.3ZM41.374 126.958L43.462 127.174C43.102 128.2 42.742 129.19 42.418 129.892L40.6 129.64C40.888 128.884 41.212 127.75 41.374 126.958ZM34.246 132.646H45.334V134.464H34.246V132.646ZM37.972 130.918L40.132 131.332C39.16 133.474 37.9 136.012 36.946 137.704L35.092 137.11C35.992 135.508 37.198 132.916 37.972 130.918ZM36.37 137.128L37.63 135.706C40.132 136.444 43.444 137.83 45.154 139.018L43.768 140.62C42.202 139.45 38.926 137.956 36.37 137.128ZM41.374 133.978L43.444 134.194C42.508 138.442 40.114 139.918 34.48 140.656C34.318 140.062 33.994 139.324 33.688 138.91C38.62 138.514 40.618 137.326 41.374 133.978ZM28.36 132.916C29.872 132.61 32.122 132.052 34.264 131.512L34.516 133.42C32.554 133.996 30.466 134.572 28.81 135.022L28.36 132.916ZM28.72 127.138H34.282V129.118H28.72V127.138ZM30.844 123.736H32.914V138.19C32.914 139.252 32.734 139.828 32.14 140.17C31.546 140.53 30.682 140.602 29.458 140.602C29.386 140.026 29.116 139.09 28.846 138.496C29.548 138.532 30.286 138.532 30.52 138.532C30.754 138.532 30.844 138.442 30.844 138.19V123.736ZM54.802 127.732H63.388V129.802H54.802V127.732ZM46.828 126.49H55.396V128.488H46.828V126.49ZM59.32 123.718H61.462V137.938C61.462 139.162 61.228 139.774 60.544 140.152C59.86 140.53 58.798 140.602 57.286 140.602C57.214 139.972 56.908 138.946 56.602 138.28C57.61 138.334 58.582 138.334 58.906 138.334C59.212 138.316 59.32 138.226 59.32 137.92V123.718ZM54.604 132.07L56.35 131.224C57.196 132.412 58.06 133.978 58.348 135.058L56.476 136.012C56.206 134.95 55.432 133.294 54.604 132.07ZM47.17 131.026L48.682 129.802C50.842 132.088 53.398 135.184 54.442 137.326L52.714 138.802C51.76 136.642 49.294 133.402 47.17 131.026ZM49.978 123.736H52.048V127.714H49.978V123.736ZM51.94 128.848L54.028 129.154C53.11 134.374 51.256 138.172 47.782 140.494C47.512 140.062 46.756 139.18 46.324 138.802C49.582 136.894 51.22 133.456 51.94 128.848ZM65.116 128.812H80.866V130.666H65.116V128.812ZM72.028 127.84H74.35V140.62H72.028V127.84ZM66.286 131.548H78.868V133.366H68.572V136.552H66.286V131.548ZM77.734 131.548H79.966V134.626C79.966 135.526 79.786 135.958 79.138 136.228C78.49 136.498 77.662 136.498 76.618 136.498C76.492 135.958 76.15 135.292 75.916 134.842C76.51 134.878 77.248 134.878 77.446 134.86C77.662 134.86 77.734 134.806 77.734 134.626V131.548ZM72.262 134.374L73.882 134.986C72.154 137.47 69.256 139.27 66.016 140.134C65.728 139.594 65.134 138.766 64.666 138.316C67.834 137.704 70.768 136.246 72.262 134.374ZM73.81 134.392C75.124 135.922 78.13 137.506 81.568 138.118C81.136 138.586 80.506 139.45 80.2 140.008C76.852 139.18 74.008 137.146 72.658 135.4L73.81 134.392ZM67.114 125.122H72.748V126.922H67.114V125.122ZM74.35 125.122H81.172V126.922H74.35V125.122ZM67.204 123.592L69.274 124.15C68.536 125.878 67.366 127.624 66.232 128.722C65.818 128.38 64.936 127.804 64.432 127.534C65.584 126.58 66.628 125.068 67.204 123.592ZM74.458 123.592L76.582 124.114C75.916 125.914 74.782 127.66 73.63 128.758C73.234 128.398 72.334 127.804 71.812 127.516C72.964 126.598 73.954 125.104 74.458 123.592ZM67.834 126.544L69.616 125.914C70.084 126.616 70.642 127.57 70.858 128.2L69.004 128.902C68.806 128.29 68.302 127.282 67.834 126.544ZM75.682 126.4L77.5 125.842C78.022 126.544 78.634 127.516 78.886 128.164L76.96 128.794C76.744 128.146 76.186 127.138 75.682 126.4Z" fill="white"/>
<path d="M53 42L45.5 49L38 42" stroke="#B59443" stroke-width="2" stroke-linecap="round"/>
<path d="M53 101L45.5 108L38 101" stroke="#B59443" stroke-width="2" stroke-linecap="round"/>
<path d="M104.672 15.88C105.248 15.88 105.712 16.344 105.712 16.92C105.712 17.512 105.248 17.976 104.672 17.976C104.08 17.976 103.616 17.512 103.616 16.92C103.616 16.344 104.08 15.88 104.672 15.88ZM110 15.88C110.576 15.88 111.04 16.344 111.04 16.92C111.04 17.512 110.576 17.976 110 17.976C109.408 17.976 108.944 17.512 108.944 16.92C108.944 16.344 109.408 15.88 110 15.88ZM115.328 15.88C115.904 15.88 116.368 16.344 116.368 16.92C116.368 17.512 115.904 17.976 115.328 17.976C114.736 17.976 114.272 17.512 114.272 16.92C114.272 16.344 114.736 15.88 115.328 15.88ZM120.672 15.88C121.248 15.88 121.712 16.344 121.712 16.92C121.712 17.512 121.248 17.976 120.672 17.976C120.08 17.976 119.616 17.512 119.616 16.92C119.616 16.344 120.08 15.88 120.672 15.88ZM126 15.88C126.576 15.88 127.04 16.344 127.04 16.92C127.04 17.512 126.576 17.976 126 17.976C125.408 17.976 124.944 17.512 124.944 16.92C124.944 16.344 125.408 15.88 126 15.88ZM131.328 15.88C131.904 15.88 132.368 16.344 132.368 16.92C132.368 17.512 131.904 17.976 131.328 17.976C130.736 17.976 130.272 17.512 130.272 16.92C130.272 16.344 130.736 15.88 131.328 15.88Z" fill="#2B2B2B"/>
<path d="M104.672 72.88C105.248 72.88 105.712 73.344 105.712 73.92C105.712 74.512 105.248 74.976 104.672 74.976C104.08 74.976 103.616 74.512 103.616 73.92C103.616 73.344 104.08 72.88 104.672 72.88ZM110 72.88C110.576 72.88 111.04 73.344 111.04 73.92C111.04 74.512 110.576 74.976 110 74.976C109.408 74.976 108.944 74.512 108.944 73.92C108.944 73.344 109.408 72.88 110 72.88ZM115.328 72.88C115.904 72.88 116.368 73.344 116.368 73.92C116.368 74.512 115.904 74.976 115.328 74.976C114.736 74.976 114.272 74.512 114.272 73.92C114.272 73.344 114.736 72.88 115.328 72.88ZM120.672 72.88C121.248 72.88 121.712 73.344 121.712 73.92C121.712 74.512 121.248 74.976 120.672 74.976C120.08 74.976 119.616 74.512 119.616 73.92C119.616 73.344 120.08 72.88 120.672 72.88ZM126 72.88C126.576 72.88 127.04 73.344 127.04 73.92C127.04 74.512 126.576 74.976 126 74.976C125.408 74.976 124.944 74.512 124.944 73.92C124.944 73.344 125.408 72.88 126 72.88ZM131.328 72.88C131.904 72.88 132.368 73.344 132.368 73.92C132.368 74.512 131.904 74.976 131.328 74.976C130.736 74.976 130.272 74.512 130.272 73.92C130.272 73.344 130.736 72.88 131.328 72.88Z" fill="#2B2B2B"/>
<path d="M104.672 131.88C105.248 131.88 105.712 132.344 105.712 132.92C105.712 133.512 105.248 133.976 104.672 133.976C104.08 133.976 103.616 133.512 103.616 132.92C103.616 132.344 104.08 131.88 104.672 131.88ZM110 131.88C110.576 131.88 111.04 132.344 111.04 132.92C111.04 133.512 110.576 133.976 110 133.976C109.408 133.976 108.944 133.512 108.944 132.92C108.944 132.344 109.408 131.88 110 131.88ZM115.328 131.88C115.904 131.88 116.368 132.344 116.368 132.92C116.368 133.512 115.904 133.976 115.328 133.976C114.736 133.976 114.272 133.512 114.272 132.92C114.272 132.344 114.736 131.88 115.328 131.88ZM120.672 131.88C121.248 131.88 121.712 132.344 121.712 132.92C121.712 133.512 121.248 133.976 120.672 133.976C120.08 133.976 119.616 133.512 119.616 132.92C119.616 132.344 120.08 131.88 120.672 131.88ZM126 131.88C126.576 131.88 127.04 132.344 127.04 132.92C127.04 133.512 126.576 133.976 126 133.976C125.408 133.976 124.944 133.512 124.944 132.92C124.944 132.344 125.408 131.88 126 131.88ZM131.328 131.88C131.904 131.88 132.368 132.344 132.368 132.92C132.368 133.512 131.904 133.976 131.328 133.976C130.736 133.976 130.272 133.512 130.272 132.92C130.272 132.344 130.736 131.88 131.328 131.88Z" fill="#2B2B2B"/>
<path d="M175.424 11.128H185.392V12.28H175.424V11.128ZM183.024 11.544H184.224V22.632C184.224 23.496 184 23.848 183.424 24.056C182.832 24.248 181.776 24.28 180.208 24.264C180.144 23.928 179.952 23.384 179.776 23.032C181.056 23.08 182.224 23.064 182.592 23.048C182.928 23.032 183.024 22.952 183.024 22.632V11.544ZM175.904 14.536H177.024V21.192H175.904V14.536ZM176.416 14.536H180.928V20.072H176.416V19H179.792V15.608H176.416V14.536ZM174.256 9.576L175.392 9.928C174.432 12.6 172.896 15.304 171.264 17.08C171.152 16.808 170.8 16.168 170.592 15.896C172.064 14.36 173.424 11.976 174.256 9.576ZM172.752 13.752L173.936 12.584L173.952 12.6V24.264H172.752V13.752ZM193.36 10.36C193.216 10.984 193.04 11.864 192.624 12.936C192.224 13.912 191.632 14.984 190.992 15.816C191.616 15.448 192.528 15.224 193.232 15.224C194.464 15.224 195.424 15.96 195.424 17.256C195.424 18.088 195.456 19.928 195.472 20.92H194.24C194.304 20.072 194.32 18.424 194.304 17.592C194.288 16.664 193.648 16.232 192.816 16.232C191.792 16.232 190.784 16.744 190.048 17.4C189.584 17.848 189.136 18.424 188.608 19.08L187.504 18.264C189.808 16.056 190.88 14.2 191.424 12.84C191.776 11.96 192 11 192.048 10.248L193.36 10.36ZM187.872 12.088C188.736 12.2 189.84 12.248 190.576 12.248C192.736 12.248 195.504 12.12 197.76 11.72V12.904C195.52 13.24 192.544 13.384 190.512 13.384C189.824 13.384 188.768 13.352 187.872 13.288V12.088ZM200.096 15.944C199.696 16.072 199.12 16.296 198.688 16.456C197.552 16.904 196.032 17.512 194.48 18.312C192.896 19.144 191.776 20.008 191.776 21.112C191.776 22.36 193.008 22.552 194.656 22.552C195.904 22.552 197.632 22.408 199.04 22.152L198.992 23.448C197.776 23.592 196 23.72 194.608 23.72C192.336 23.72 190.496 23.224 190.496 21.288C190.496 19.336 192.48 18.136 194.384 17.16C195.904 16.376 197.2 15.88 198.256 15.384C198.736 15.16 199.136 14.984 199.584 14.76L200.096 15.944ZM204.928 19.336H215.232V24.296H214.016V20.184H206.096V24.328H204.928V19.336ZM205.536 21.144H214.48V21.944H205.536V21.144ZM205.536 22.968H214.48V23.8H205.536V22.968ZM209.328 9.544H210.544V18.232H209.328V9.544ZM204.592 10.664H215.152V15.032H204.4V14.248H213.952V11.464H204.592V10.664ZM202.896 12.392H217.104V13.288H202.896V12.392ZM203.968 15.928H216.032V16.744H203.968V15.928ZM202.864 17.688H217.12V18.584H202.864V17.688ZM230.176 10.536C230.128 10.792 230.112 11.112 230.112 11.48C230.096 12.072 230.16 14.776 230.16 15.672C230.16 19.336 230.16 21.96 226.768 23.944L225.6 23.048C226.096 22.84 226.752 22.44 227.152 22.04C228.864 20.552 228.944 18.728 228.944 15.656C228.944 14.632 228.88 12.152 228.832 11.48C228.8 11.128 228.736 10.776 228.672 10.536H230.176ZM224.32 13.848C225.024 13.96 226.032 14.024 226.912 14.024C228.88 14.024 231.152 13.896 232.752 13.528V14.824C231.2 15.08 228.96 15.224 226.928 15.224C226.144 15.224 225.024 15.176 224.32 15.112V13.848ZM222.08 10.776C221.984 11.064 221.872 11.512 221.808 11.816C221.296 14.136 220.736 17.64 221.36 20.264C221.568 19.576 221.92 18.6 222.208 17.816L222.896 18.232C222.512 19.336 222.032 20.968 221.856 21.768C221.808 21.992 221.776 22.296 221.792 22.488C221.792 22.648 221.824 22.856 221.84 23.032L220.736 23.16C220.416 22.168 219.904 20.088 219.904 18.088C219.904 15.48 220.32 13.032 220.512 11.688C220.56 11.336 220.576 10.904 220.592 10.616L222.08 10.776ZM239.984 13.72C240.896 13.816 241.76 13.864 242.704 13.864C244.624 13.864 246.592 13.704 248.208 13.384V14.616C246.512 14.904 244.576 15.032 242.672 15.032C241.76 15.032 240.928 14.984 240 14.92L239.984 13.72ZM245.584 10.856C245.536 11.176 245.504 11.512 245.488 11.816C245.456 12.408 245.44 13.544 245.44 14.488C245.44 16.952 245.68 19.432 245.68 21.096C245.68 22.408 245.072 23.688 242.912 23.688C240.784 23.688 239.6 22.824 239.6 21.384C239.6 20.04 240.784 18.984 242.88 18.984C245.584 18.984 247.456 20.344 248.8 21.56L248.112 22.616C246.416 21.048 244.816 19.96 242.784 19.96C241.584 19.96 240.752 20.488 240.752 21.256C240.752 22.088 241.552 22.52 242.688 22.52C244.048 22.52 244.432 21.832 244.432 20.776C244.432 19.624 244.224 16.616 244.224 14.504C244.224 13.416 244.208 12.392 244.224 11.832C244.224 11.56 244.192 11.144 244.144 10.856H245.584ZM237.696 10.968C237.6 11.24 237.456 11.752 237.408 12.04C237.088 13.528 236.608 16.696 236.608 18.488C236.608 19.272 236.656 19.928 236.784 20.712C237.024 19.992 237.408 19.016 237.696 18.36L238.352 18.872C237.952 19.992 237.36 21.624 237.2 22.408C237.152 22.632 237.12 22.936 237.136 23.128C237.136 23.288 237.168 23.512 237.184 23.688L236.048 23.784C235.744 22.632 235.456 20.872 235.456 18.712C235.456 16.36 235.984 13.304 236.176 11.976C236.24 11.608 236.288 11.192 236.288 10.84L237.696 10.968ZM246.976 10.328C247.264 10.92 247.696 11.912 247.92 12.568L247.104 12.856C246.864 12.152 246.496 11.192 246.176 10.584L246.976 10.328ZM248.576 9.848C248.88 10.44 249.296 11.416 249.536 12.056L248.72 12.344C248.48 11.624 248.112 10.696 247.792 10.104L248.576 9.848ZM253.568 11.848C253.488 12.216 253.44 12.984 253.424 13.4C253.408 14.392 253.424 15.864 253.536 17.176C253.808 19.848 254.576 21.624 255.728 21.624C256.544 21.624 257.296 19.976 257.712 18.376L258.72 19.512C257.744 22.216 256.784 23.144 255.696 23.144C254.176 23.144 252.736 21.64 252.288 17.496C252.144 16.12 252.112 14.168 252.112 13.24C252.112 12.872 252.112 12.184 252.016 11.816L253.568 11.848ZM261.888 12.28C263.328 14.136 264.48 17.544 264.72 20.248L263.424 20.76C263.152 17.88 262.176 14.584 260.656 12.712L261.888 12.28ZM269.568 11.848C269.488 12.216 269.44 12.984 269.424 13.4C269.408 14.392 269.424 15.864 269.536 17.176C269.808 19.848 270.576 21.624 271.728 21.624C272.544 21.624 273.296 19.976 273.712 18.376L274.72 19.512C273.744 22.216 272.784 23.144 271.696 23.144C270.176 23.144 268.736 21.64 268.288 17.496C268.144 16.12 268.112 14.168 268.112 13.24C268.112 12.872 268.112 12.184 268.016 11.816L269.568 11.848ZM277.888 12.28C279.328 14.136 280.48 17.544 280.72 20.248L279.424 20.76C279.152 17.88 278.176 14.584 276.656 12.712L277.888 12.28ZM289.104 19.144C288.624 16.472 292.384 15.768 292.384 13.944C292.384 12.84 291.6 12.04 289.968 12.04C288.864 12.04 287.856 12.52 286.928 13.48L286.08 12.696C287.136 11.576 288.384 10.824 290.112 10.824C292.368 10.824 293.824 11.992 293.824 13.832C293.824 16.248 290 16.744 290.416 19.144H289.104ZM289.792 23.08C289.216 23.08 288.768 22.68 288.768 22.04C288.768 21.4 289.232 20.968 289.792 20.968C290.352 20.968 290.816 21.4 290.816 22.04C290.816 22.68 290.352 23.08 289.792 23.08Z" fill="#2B2B2B"/>
<path d="M182.16 70.88C181.792 71.104 181.392 71.312 180.928 71.552C179.84 72.112 178.064 72.944 176.496 73.984C175.008 74.96 174.112 76.016 174.112 77.216C174.112 78.544 175.376 79.376 177.904 79.376C179.648 79.376 181.792 79.152 183.04 78.832L183.024 80.272C181.824 80.48 179.968 80.656 177.968 80.656C174.96 80.656 172.784 79.76 172.784 77.36C172.784 75.632 173.952 74.272 175.824 73.024C177.456 71.936 179.328 71.056 180.368 70.48C180.832 70.208 181.184 70 181.52 69.712L182.16 70.88ZM174.496 67.76C175.232 69.808 176.208 71.808 176.96 73.088L175.856 73.76C175.056 72.448 174.096 70.288 173.232 68.304L174.496 67.76ZM182.432 67.6C182.832 68.192 183.408 69.152 183.728 69.808L182.864 70.208C182.544 69.552 182.016 68.576 181.568 67.968L182.432 67.6ZM184.192 66.96C184.608 67.552 185.232 68.56 185.536 69.152L184.672 69.536C184.32 68.848 183.808 67.92 183.344 67.328L184.192 66.96ZM194.752 68.128C194.608 68.32 194.416 68.608 194.24 68.912C193.52 70.016 192.048 72.672 191.232 74.224C192 73.536 192.832 73.232 193.6 73.232C194.672 73.232 195.44 73.92 195.488 75.184C195.52 76.128 195.488 77.344 195.552 78.128C195.6 78.928 196.144 79.28 196.832 79.28C198.624 79.28 199.68 77.072 200.08 75.36L201.152 76.224C200.304 78.8 198.96 80.592 196.64 80.592C194.928 80.592 194.368 79.52 194.32 78.576C194.272 77.632 194.288 76.4 194.24 75.52C194.208 74.832 193.792 74.4 193.072 74.4C191.792 74.4 190.576 75.712 189.968 76.976C189.472 77.92 188.8 79.824 188.576 80.608L187.2 80.128C188.368 76.896 191.872 70.336 192.752 68.8C192.928 68.416 193.136 68.032 193.328 67.552L194.752 68.128ZM203.536 69.92C204.128 69.984 204.816 70.016 205.504 70.016C207.232 70.016 209.248 69.808 211.088 69.2L211.12 70.384C209.552 70.816 207.456 71.168 205.504 71.152C204.912 71.152 204.224 71.136 203.632 71.12L203.536 69.92ZM209.216 67.312C209.008 68.096 208.672 69.6 208.288 70.736C207.52 73.04 206.048 75.952 204.72 77.744L203.488 77.104C204.912 75.44 206.4 72.592 207.056 70.704C207.408 69.696 207.76 68.288 207.808 67.168L209.216 67.312ZM212.992 72.256C212.944 72.912 212.944 73.392 212.96 73.968C212.992 75.008 213.136 77.44 213.136 78.496C213.136 79.776 212.32 80.816 210.336 80.816C208.576 80.816 207.152 80.112 207.152 78.512C207.152 77.04 208.544 76.112 210.336 76.112C213.024 76.112 215.088 77.456 216.4 78.592L215.728 79.68C214.496 78.56 212.656 77.136 210.304 77.136C209.12 77.136 208.32 77.68 208.32 78.416C208.32 79.152 208.944 79.664 210.192 79.664C211.52 79.664 211.968 78.96 211.968 78.096C211.968 76.88 211.792 74.016 211.728 72.256H212.992ZM216.192 72.672C215.328 71.936 213.584 70.96 212.528 70.464L213.168 69.504C214.336 70 216.144 71.04 216.912 71.616L216.192 72.672ZM219.552 79.536C222.336 79.472 226.8 79.312 230.96 79.12L230.912 80.224C226.88 80.432 222.544 80.624 219.712 80.72L219.552 79.536ZM219.408 74.592H232.672V75.728H219.408V74.592ZM222.144 71.536H229.792V72.656H222.144V71.536ZM223.792 75.312L225.136 75.696C224.4 77.232 223.472 79.104 222.688 80.304L221.616 79.952C222.368 78.704 223.312 76.72 223.792 75.312ZM227.6 77.008L228.624 76.464C230.096 77.728 231.664 79.456 232.416 80.672L231.328 81.328C230.608 80.128 229.024 78.288 227.6 77.008ZM225.936 67.744C224.624 69.696 222 71.888 219.28 73.248C219.136 72.96 218.832 72.528 218.576 72.272C221.328 70.96 224 68.64 225.248 66.592H226.48C228.176 68.96 230.976 71.056 233.52 72.096C233.232 72.384 232.944 72.816 232.736 73.168C230.24 71.968 227.424 69.824 225.936 67.744ZM240.48 79.648H249.52V80.832H240.48V79.648ZM241.104 71.808H249.184V72.96H241.104V71.808ZM244.544 66.688H245.76V80.224H244.544V66.688ZM234.88 69.568H240.192V70.672H234.88V69.568ZM237.408 74.368L238.592 72.944V81.296H237.408V74.368ZM237.408 66.576H238.592V70.112H237.408V66.576ZM238.496 73.264C239.04 73.648 240.896 75.28 241.36 75.68L240.624 76.656C240.032 75.968 238.464 74.448 237.808 73.872L238.496 73.264ZM239.744 69.568H239.984L240.208 69.52L240.896 69.968C239.68 72.912 237.232 75.568 234.944 77.04C234.816 76.736 234.528 76.176 234.32 75.968C236.496 74.688 238.784 72.256 239.744 69.824V69.568ZM256.784 67.584C256.72 67.872 256.656 68.224 256.592 68.528C256.48 69.104 256.272 70.416 256.048 71.408C255.504 73.664 254.368 77.648 252.56 80.56L251.248 80.048C253.072 77.6 254.352 73.328 254.784 71.376C255.088 70.096 255.296 68.656 255.296 67.424L256.784 67.584ZM262.288 69.424C263.28 70.72 264.672 73.632 265.216 75.104L263.968 75.696C263.504 74.064 262.24 71.28 261.12 69.952L262.288 69.424ZM251.024 71.088C251.52 71.12 251.936 71.104 252.448 71.088C253.648 71.056 256.896 70.704 257.984 70.704C259.408 70.704 260.576 71.248 260.576 73.408C260.576 75.312 260.32 77.856 259.648 79.184C259.152 80.256 258.352 80.528 257.312 80.528C256.704 80.528 255.936 80.416 255.44 80.288L255.216 78.96C255.888 79.168 256.736 79.28 257.184 79.28C257.776 79.28 258.256 79.152 258.576 78.464C259.088 77.376 259.344 75.296 259.344 73.568C259.344 72.096 258.672 71.824 257.648 71.824C256.576 71.824 253.568 72.192 252.592 72.288C252.224 72.336 251.568 72.416 251.152 72.48L251.024 71.088ZM262.464 67.104C262.864 67.68 263.44 68.656 263.776 69.312L262.912 69.696C262.592 69.04 262.048 68.08 261.6 67.472L262.464 67.104ZM264.224 66.464C264.656 67.056 265.264 68.064 265.584 68.656L264.704 69.04C264.368 68.336 263.84 67.424 263.376 66.832L264.224 66.464ZM273.536 67.344C273.472 67.536 273.408 67.824 273.36 68.048C273.088 69.392 272.816 71.92 272.816 74.112C272.816 76.192 273.264 78.112 273.76 79.616L272.592 79.968C272.128 78.544 271.696 76.272 271.696 74.24C271.696 72.048 272.016 69.456 272.16 68.08C272.192 67.792 272.208 67.504 272.208 67.296L273.536 67.344ZM270.96 69.312C273.776 69.312 276.56 69.088 278.768 68.592L278.784 69.776C276.48 70.176 273.328 70.416 270.944 70.416C270.256 70.416 269.008 70.352 268.352 70.32L268.32 69.12C268.88 69.216 270.272 69.312 270.96 69.312ZM277.632 71.2C277.536 71.408 277.392 71.84 277.296 72.096C276.352 75.056 274.752 77.28 273.072 78.576C272.048 79.36 270.768 79.952 269.632 79.952C268.576 79.952 267.744 79.312 267.744 77.952C267.744 75.76 269.776 73.504 272.144 72.592C273.216 72.176 274.512 71.936 275.552 71.936C278.576 71.936 280.48 73.696 280.48 75.936C280.48 78.224 278.96 80.224 275.248 80.816L274.56 79.744C277.44 79.424 279.232 77.936 279.232 75.872C279.232 74.32 277.92 72.96 275.536 72.96C274.192 72.96 273.008 73.344 272.192 73.712C270.384 74.512 268.944 76.272 268.944 77.744C268.944 78.4 269.264 78.72 269.856 78.72C270.656 78.72 271.696 78.272 272.72 77.376C274.144 76.128 275.456 74.4 276.192 71.808C276.256 71.568 276.336 71.136 276.352 70.88L277.632 71.2ZM285.808 68.224C286.16 68.256 286.608 68.272 286.928 68.272C287.776 68.272 291.568 68.16 292.416 68.08C292.896 68.032 293.12 68 293.296 67.936L294.032 68.88C293.744 69.072 293.424 69.28 293.12 69.52C292.336 70.128 290.16 72 288.912 73.024C289.648 72.784 290.416 72.704 291.136 72.704C293.792 72.704 295.696 74.288 295.696 76.448C295.696 79.024 293.568 80.704 290.176 80.704C288 80.704 286.672 79.76 286.672 78.416C286.672 77.328 287.664 76.336 289.136 76.336C291.264 76.336 292.336 77.84 292.448 79.456L291.296 79.648C291.2 78.288 290.416 77.312 289.136 77.312C288.4 77.312 287.84 77.76 287.84 78.32C287.84 79.104 288.72 79.568 289.984 79.568C292.704 79.568 294.416 78.448 294.416 76.448C294.416 74.864 292.912 73.696 290.816 73.696C288.16 73.696 286.72 74.816 284.704 76.88L283.776 75.952C285.104 74.864 287.168 73.136 288.08 72.352C288.976 71.616 290.992 69.936 291.792 69.216C290.944 69.264 287.744 69.392 286.912 69.44C286.544 69.472 286.192 69.488 285.84 69.536L285.808 68.224ZM305.104 76.144C304.624 73.472 308.384 72.768 308.384 70.944C308.384 69.84 307.6 69.04 305.968 69.04C304.864 69.04 303.856 69.52 302.928 70.48L302.08 69.696C303.136 68.576 304.384 67.824 306.112 67.824C308.368 67.824 309.824 68.992 309.824 70.832C309.824 73.248 306 73.744 306.416 76.144H305.104ZM305.792 80.08C305.216 80.08 304.768 79.68 304.768 79.04C304.768 78.4 305.232 77.968 305.792 77.968C306.352 77.968 306.816 78.4 306.816 79.04C306.816 79.68 306.352 80.08 305.792 80.08Z" fill="#2B2B2B"/>
<path d="M182.16 129.88C181.792 130.104 181.392 130.312 180.928 130.552C179.84 131.112 178.064 131.944 176.496 132.984C175.008 133.96 174.112 135.016 174.112 136.216C174.112 137.544 175.376 138.376 177.904 138.376C179.648 138.376 181.792 138.152 183.04 137.832L183.024 139.272C181.824 139.48 179.968 139.656 177.968 139.656C174.96 139.656 172.784 138.76 172.784 136.36C172.784 134.632 173.952 133.272 175.824 132.024C177.456 130.936 179.328 130.056 180.368 129.48C180.832 129.208 181.184 129 181.52 128.712L182.16 129.88ZM174.496 126.76C175.232 128.808 176.208 130.808 176.96 132.088L175.856 132.76C175.056 131.448 174.096 129.288 173.232 127.304L174.496 126.76ZM182.432 126.6C182.832 127.192 183.408 128.152 183.728 128.808L182.864 129.208C182.544 128.552 182.016 127.576 181.568 126.968L182.432 126.6ZM184.192 125.96C184.608 126.552 185.232 127.56 185.536 128.152L184.672 128.536C184.32 127.848 183.808 126.92 183.344 126.328L184.192 125.96ZM197.504 133.688C197.504 132.328 196.416 131.384 194.768 131.384C192.928 131.384 191.344 131.912 190.416 132.184C189.92 132.328 189.44 132.504 189.056 132.664L188.656 131.192C189.104 131.16 189.632 131.048 190.128 130.952C191.248 130.696 193.056 130.184 194.912 130.184C197.184 130.184 198.864 131.448 198.864 133.736C198.864 137.208 195.76 139.144 191.616 139.784L190.88 138.568C194.768 138.072 197.504 136.552 197.504 133.688ZM190.784 126.472C192.56 126.872 196.032 127.208 197.584 127.224L197.392 128.456C195.616 128.328 192.4 128.008 190.592 127.688L190.784 126.472ZM207.984 131V134.68H211.872V131H207.984ZM206.848 129.928H213.072V135.736H206.848V129.928ZM203.312 126.216H216.688V140.264H215.408V127.432H204.544V140.264H203.312V126.216ZM204 138.28H216.144V139.416H204V138.28ZM222.736 132.808H229.36V133.848H222.736V132.808ZM222.048 138.712H230.032V139.768H222.048V138.712ZM225.968 130.328C224.56 132.024 221.904 133.912 219.168 135.064C219.024 134.792 218.736 134.376 218.496 134.12C221.312 133.016 223.984 131.048 225.312 129.272H226.496C228.24 131.288 231.056 133 233.568 133.848C233.28 134.136 233.008 134.552 232.832 134.872C230.384 133.912 227.552 132.104 225.968 130.328ZM221.392 135.224H230.688V140.248H229.504V136.28H222.528V140.296H221.392V135.224ZM220.656 126.952H225.648V127.976H220.656V126.952ZM226.704 126.952H233.152V127.976H226.704V126.952ZM220.992 125.32L222.144 125.624C221.504 127.352 220.512 129.08 219.472 130.184C219.248 130.008 218.752 129.672 218.464 129.528C219.52 128.504 220.448 126.904 220.992 125.32ZM227.232 125.32L228.4 125.608C227.824 127.192 226.832 128.68 225.776 129.64C225.568 129.448 225.056 129.08 224.768 128.936C225.824 128.072 226.736 126.728 227.232 125.32ZM221.488 127.72L222.496 127.416C222.976 128.152 223.488 129.128 223.696 129.768L222.624 130.136C222.432 129.496 221.952 128.472 221.488 127.72ZM228.208 127.72L229.264 127.384C229.856 128.072 230.512 129.048 230.768 129.704L229.648 130.12C229.408 129.464 228.784 128.456 228.208 127.72ZM244.032 126.328C244 126.52 243.952 127.144 243.952 127.336C243.904 128.376 243.936 131.464 243.952 132.744L242.736 132.12C242.736 131.416 242.72 128.232 242.672 127.352C242.64 126.92 242.592 126.472 242.56 126.328H244.032ZM235.52 128.568C237.696 128.536 241.696 128.392 244.16 128.392C246.112 128.392 248.096 128.392 248.848 128.408L248.832 129.592C247.936 129.544 246.496 129.512 244.144 129.512C241.392 129.512 237.968 129.624 235.552 129.8L235.52 128.568ZM243.92 133.208C243.92 135.352 242.928 136.424 241.472 136.424C240.128 136.424 238.832 135.48 238.832 133.736C238.832 132.152 240.144 130.968 241.664 130.968C243.52 130.968 244.464 132.344 244.464 134.184C244.464 136.36 243.408 138.76 239.696 139.864L238.624 138.824C241.536 138.136 243.232 136.712 243.232 134.072C243.232 132.632 242.528 132.024 241.664 132.024C240.816 132.024 240.032 132.68 240.032 133.72C240.032 134.728 240.784 135.304 241.664 135.304C242.656 135.304 243.296 134.472 243.04 132.76L243.92 133.208ZM265.584 137.784C264.72 138.648 263.728 139.128 262.64 139.128C261.568 139.128 260.864 138.424 260.864 137.112C260.864 135.32 261.456 132.696 261.456 131.144C261.456 130.216 260.992 129.816 260.176 129.816C258.672 129.816 256.352 131.8 254.848 133.624L254.864 132.04C255.856 130.952 258.512 128.648 260.48 128.648C261.984 128.648 262.72 129.496 262.72 130.792C262.72 132.392 262.112 135.144 262.112 136.76C262.112 137.304 262.384 137.736 262.96 137.736C263.712 137.736 264.56 137.272 265.376 136.424L265.584 137.784ZM254.832 130.136C254.304 130.216 252.576 130.424 251.392 130.616L251.248 129.288C251.6 129.304 251.904 129.304 252.304 129.272C253.152 129.224 255.152 128.984 255.888 128.744L256.352 129.288C256.08 129.704 255.648 130.392 255.376 130.84L254.896 133.032C254.16 134.168 252.672 136.328 251.664 137.72L250.864 136.632C251.856 135.384 254.016 132.456 254.64 131.4L254.704 130.568L254.832 130.136ZM254.672 127.496C254.672 127.128 254.688 126.712 254.608 126.312L256.112 126.36C255.888 127.4 255.408 131.976 255.408 134.792C255.408 136.248 255.408 137.224 255.472 138.648C255.488 138.92 255.536 139.32 255.552 139.624H254.176C254.208 139.32 254.224 138.936 254.224 138.68C254.224 137.128 254.24 136.328 254.256 134.568C254.288 133.16 254.672 128.088 254.672 127.496ZM271.984 129.72C272.896 129.816 273.76 129.864 274.704 129.864C276.624 129.864 278.592 129.704 280.208 129.384V130.616C278.512 130.904 276.576 131.032 274.672 131.032C273.76 131.032 272.928 130.984 272 130.92L271.984 129.72ZM277.584 126.856C277.536 127.176 277.504 127.512 277.488 127.816C277.456 128.408 277.44 129.544 277.44 130.488C277.44 132.952 277.68 135.432 277.68 137.096C277.68 138.408 277.072 139.688 274.912 139.688C272.784 139.688 271.6 138.824 271.6 137.384C271.6 136.04 272.784 134.984 274.88 134.984C277.584 134.984 279.456 136.344 280.8 137.56L280.112 138.616C278.416 137.048 276.816 135.96 274.784 135.96C273.584 135.96 272.752 136.488 272.752 137.256C272.752 138.088 273.552 138.52 274.688 138.52C276.048 138.52 276.432 137.832 276.432 136.776C276.432 135.624 276.224 132.616 276.224 130.504C276.224 129.416 276.208 128.392 276.224 127.832C276.224 127.56 276.192 127.144 276.144 126.856H277.584ZM269.696 126.968C269.6 127.24 269.456 127.752 269.408 128.04C269.088 129.528 268.608 132.696 268.608 134.488C268.608 135.272 268.656 135.928 268.784 136.712C269.024 135.992 269.408 135.016 269.696 134.36L270.352 134.872C269.952 135.992 269.36 137.624 269.2 138.408C269.152 138.632 269.12 138.936 269.136 139.128C269.136 139.288 269.168 139.512 269.184 139.688L268.048 139.784C267.744 138.632 267.456 136.872 267.456 134.712C267.456 132.36 267.984 129.304 268.176 127.976C268.24 127.608 268.288 127.192 268.288 126.84L269.696 126.968ZM278.976 126.328C279.264 126.92 279.696 127.912 279.92 128.568L279.104 128.856C278.864 128.152 278.496 127.192 278.176 126.584L278.976 126.328ZM280.576 125.848C280.88 126.44 281.296 127.416 281.536 128.056L280.72 128.344C280.48 127.624 280.112 126.696 279.792 126.104L280.576 125.848ZM284.672 131.88C285.248 131.88 285.712 132.344 285.712 132.92C285.712 133.512 285.248 133.976 284.672 133.976C284.08 133.976 283.616 133.512 283.616 132.92C283.616 132.344 284.08 131.88 284.672 131.88ZM290 131.88C290.576 131.88 291.04 132.344 291.04 132.92C291.04 133.512 290.576 133.976 290 133.976C289.408 133.976 288.944 133.512 288.944 132.92C288.944 132.344 289.408 131.88 290 131.88ZM295.328 131.88C295.904 131.88 296.368 132.344 296.368 132.92C296.368 133.512 295.904 133.976 295.328 133.976C294.736 133.976 294.272 133.512 294.272 132.92C294.272 132.344 294.736 131.88 295.328 131.88ZM305.104 135.144C304.624 132.472 308.384 131.768 308.384 129.944C308.384 128.84 307.6 128.04 305.968 128.04C304.864 128.04 303.856 128.52 302.928 129.48L302.08 128.696C303.136 127.576 304.384 126.824 306.112 126.824C308.368 126.824 309.824 127.992 309.824 129.832C309.824 132.248 306 132.744 306.416 135.144H305.104ZM305.792 139.08C305.216 139.08 304.768 138.68 304.768 138.04C304.768 137.4 305.232 136.968 305.792 136.968C306.352 136.968 306.816 137.4 306.816 138.04C306.816 138.68 306.352 139.08 305.792 139.08Z" fill="#2B2B2B"/>
<path d="M152.98 136.375C153.394 136.375 153.73 136.039 153.73 135.625C153.73 135.211 153.394 134.875 152.98 134.875C152.566 134.875 152.23 135.211 152.23 135.625C152.23 136.039 152.566 136.375 152.98 136.375Z" fill="#B59443"/>
<path d="M151.135 129.918C151.134 129.624 151.206 129.335 151.344 129.076C151.481 128.817 151.681 128.596 151.924 128.432C152.168 128.268 152.448 128.167 152.74 128.138C153.031 128.108 153.326 128.151 153.598 128.262C153.869 128.373 154.109 128.55 154.296 128.776C154.483 129.002 154.611 129.271 154.669 129.559C154.728 129.846 154.714 130.144 154.63 130.425C154.546 130.706 154.394 130.962 154.188 131.17L154.255 131.095L152.92 132.528V133.323" stroke="#B59443" stroke-width="2" stroke-linecap="round" stroke-linejoin="round"/>
<path d="M153.288 139.54L153.025 142C155.328 140.873 157.371 139.28 159.025 137.32C160.328 135.67 160.984 133.6 160.87 131.5C160.795 129.412 159.894 127.438 158.365 126.014C156.835 124.59 154.802 123.832 152.714 123.906C150.625 123.981 148.652 124.882 147.228 126.412C145.804 127.941 145.045 129.974 145.12 132.063C145.251 134.123 146.175 136.052 147.698 137.446C149.22 138.84 151.224 139.591 153.288 139.54Z" stroke="#B59443" stroke-width="2" stroke-linecap="round" stroke-linejoin="round"/>
<path d="M153.83 79.76C153.233 79.9191 152.618 79.9997 152 80C150.381 79.9999 148.811 79.4382 147.559 78.4108C146.308 77.3833 145.451 75.9536 145.135 74.3652C144.819 72.7768 145.064 71.128 145.827 69.6998C146.591 68.2716 147.826 67.1523 149.322 66.5327C150.818 65.913 152.483 65.8313 154.033 66.3015C155.583 66.7717 156.921 67.7647 157.821 69.1113C158.721 70.4579 159.126 72.0748 158.967 73.6865C158.808 75.2982 158.095 76.8049 156.95 77.95" stroke="#B59443" stroke-width="2" stroke-linecap="round" stroke-linejoin="round"/>
<path d="M161 82.0002L156.95 77.9502" stroke="#B59443" stroke-width="2" stroke-linecap="round" stroke-linejoin="round"/>
<path d="M152.165 21.9698L162.14 11.9998L158.6 8.46484L146.23 20.8398C147.149 20.8904 148.013 21.2912 148.645 21.9598C149.311 22.5934 149.712 23.4568 149.765 24.3748" stroke="#B59443" stroke-width="2" stroke-linecap="round" stroke-linejoin="round"/>
<path d="M149.755 24.3851C149.71 23.4643 149.312 22.5962 148.645 21.9601C148.01 21.2907 147.141 20.8929 146.22 20.8501L144.4 26.2001L149.755 24.3851Z" stroke="#B59443" stroke-width="2" stroke-linecap="round" stroke-linejoin="round"/>
</svg>
