<svg width="600" height="73" viewBox="0 0 600 73" fill="none" xmlns="http://www.w3.org/2000/svg">
<g clip-path="url(#clip0_110_6)">
<path d="M17.86 23.98C16.13 27.2 14.16 30.36 12.39 32.96C10.42 35.79 8.17 37.23 5.81 37.23C2.35 37.23 0 34.4 0 30.17C0 26.52 1.82 23.4 5.23 21.38C7.49 20.09 10.89 19.17 13.63 19.17H14.11C16.56 14.18 17.18 12.83 18.81 9.09001C14.39 9.28001 11.71 9.67001 9.74 10.34C9.64 10.39 9.5 10.39 9.4 10.39C8.58 10.39 7.82 7.89001 7.58 4.29001C8.64 4.48001 9.64 4.58001 10.94 4.58001C12.57 4.58001 15.36 4.44001 18.28 4.15001C20.1067 3.99001 21.2267 3.78334 21.64 3.53001C22.02 3.34001 22.26 3.24001 22.5 3.24001C23.12 3.24001 24.08 4.01001 25.14 5.30001C25.91 6.31001 26.39 7.12001 26.39 7.46001C26.39 7.84001 26.2 8.18001 25.62 8.75001C24.9 9.52001 22.69 13.65 19.91 19.5C24.47 20.41 26.2 20.94 29.51 22.38C29.75 20.7 29.94 18.73 29.94 17.39C29.94 16.77 29.89 16.05 29.8 15.23C31.86 15.52 33.59 15.85 34.98 16.19C35.84 16.43 36.13 16.67 36.13 17.05C36.13 17.39 36.03 17.72 35.75 18.3C35.32 19.21 35.17 19.84 34.84 21.8C34.7 22.81 34.55 23.48 34.26 24.87C36.71 26.41 38.82 27.89 39.78 28.81C40.02 29.05 40.16 29.29 40.16 29.53C40.16 30.87 38.1 33.99 37.23 33.99C36.99 33.99 36.75 33.85 36.37 33.56C35.07 32.41 33.49 31.06 32.53 30.34C30.9 33.8 29.22 36.01 26.58 38.26C24.32 40.13 21.2 41.86 20.05 41.86C19.67 41.86 19.23 41.67 18.9 41.38C18.76 41.24 18.76 41.19 18.13 40.32C17.41 39.22 16.79 38.69 15.63 38.16C19.47 36.82 21.34 35.86 23.41 34.08C25.47 32.26 27.06 30.05 28.11 27.46C24.85 25.68 21.63 24.58 17.84 23.96L17.86 23.98ZM4.9 29.74C4.9 30.89 5.33 31.61 6.1 31.61C7.16 31.61 9.03 29.26 12.05 24.07C7.49 24.55 4.9 26.61 4.9 29.73V29.74Z" fill="#081059"/>
<path d="M68.59 3.53C69.17 3.91 69.41 4.2 69.41 4.54C69.41 4.88 69.36 4.92 68.64 5.74C68.4 6.03 67.68 7.08 66.91 8.38C65.31 11.0333 64.0767 13.13 63.21 14.67C61.87 16.93 61 18.46 60.52 19.18C60.4267 19.34 60.1533 19.82 59.7 20.62C59.08 21.72 58.69 22.3 58.02 23.21C61.14 20.47 62.82 19.75 65.99 19.75C68.1 19.75 69.97 20.66 71.17 22.25C72.18 23.59 72.47 24.84 72.9 29.55C73.14 32.38 73.38 33.63 73.72 34.35C74.06 35.02 74.73 35.41 75.59 35.41C78.9 35.41 82.84 31.43 84.76 26.19C85.24 28.21 85.62 29.17 86.63 30.94C86.97 31.52 87.06 31.9 87.06 32.38C87.06 32.91 86.82 33.58 86.24 34.49C83.74 38.52 79.66 40.92 75.3 40.92C72.56 40.92 70.26 39.96 69.06 38.38C68.1 37.04 67.67 35.26 67.28 30.56C67.04 27.49 66.8 26.43 66.13 25.66C65.6 25.08 64.83 24.79 63.78 24.79C60.61 24.79 56.44 29.06 53.99 34.73C53.27 36.36 52.79 37.85 52.26 39.67C52.07 40.39 51.83 40.68 51.49 40.68C50.48 40.68 48.18 39.72 46.93 38.81C46.59 38.52 46.45 38.33 46.45 38.04C46.45 37.8 46.55 37.56 47.17 36.22C47.55 35.36 47.7 35.12 48.03 34.25C50.3967 28.7167 54.86 19.3067 61.42 6.02C62.52 3.81 63.05 2.42 63.39 0.980003C65.89 1.89 67.04 2.47 68.57 3.52L68.59 3.53Z" fill="#081059"/>
<path d="M98.45 14.62C97.59 14.67 97.06 14.72 96.48 14.76C96.05 14.81 96 14.81 95.95 14.81C95.57 14.81 95.37 14.67 95.23 14.19C94.99 13.42 94.65 10.88 94.61 9.44C95.14 9.49 96.53 9.54 98.26 9.54C98.79 9.54 102.58 9.3 104.26 9.16C105.08 5.27 105.36 3.26 105.36 0.660004C110.3 1.33 112.08 1.91 112.08 2.82C112.08 3.16 112.03 3.25 111.31 4.36C110.93 4.94 110.78 5.46 109.97 8.44C112.23 8.06 113.57 7.72 115.35 7.15C115.69 7.05 115.83 7.01 116.07 7.01C116.41 7.01 116.5 7.25 116.79 8.64C117.03 9.84 117.17 10.85 117.17 11.38C117.17 11.96 117.03 12.05 115.78 12.34C114.15 12.72 111.36 13.2 108.39 13.59C106.61 18.97 105.41 21.85 103.21 26.36C101.53 29.72 100.57 31.5 99.27 33.51C98.89 34.09 98.65 34.28 98.31 34.28C97.83 34.28 96.49 33.56 94.81 32.31C94.04 31.78 93.85 31.54 93.85 31.21C93.85 30.88 94.04 30.59 94.67 29.72C96.06 27.99 97.89 25.02 99.47 21.85C100.81 19.21 101.29 18.11 102.69 14.31C100.82 14.45 100.67 14.5 98.47 14.65L98.45 14.62ZM114.24 42.27C109.01 42.27 105.46 39.39 105.46 35.12C105.46 30.85 109.16 27.39 114.1 27.39C115.25 27.39 115.78 27.44 117.75 27.73C117.56 25.43 117.56 24.51 117.37 20.05C117.37 19.14 117.27 17.89 117.18 16.35C119.63 16.59 121.5 16.88 122.41 17.26C122.79 17.4 122.99 17.64 122.99 18.03C122.99 18.27 122.94 18.46 122.89 18.8C122.65 19.81 122.6 20.53 122.6 21.82C122.6 23.6 122.74 26.62 122.89 28.97C126.3 30.51 127.69 31.27 130.09 33.15C131.15 33.97 131.53 34.4 131.53 34.78C131.53 35.26 131.29 35.69 129.95 37.85C129.37 38.81 128.94 39.24 128.61 39.24C128.417 39.24 127.873 38.8233 126.98 37.99C125.92 36.94 124.72 36.12 123.04 35.11C123.04 39.57 119.78 42.26 114.26 42.26L114.24 42.27ZM114.14 32C111.84 32 110.25 33.1 110.25 34.79C110.25 36.37 111.69 37.38 113.85 37.38C116.39 37.38 117.74 36.08 117.74 33.54C117.74 33.16 117.74 32.77 117.69 32.77C116.73 32.29 115.43 32 114.14 32ZM132.09 18.37C131.51 19.19 131.23 19.43 130.89 19.43C130.65 19.43 130.46 19.33 130.12 19C128.92 17.85 127.24 16.6 125.46 15.5C124.693 15.02 123.607 14.46 122.2 13.82C121.53 13.53 121.29 13.34 121.29 12.96C121.29 12.62 121.53 12.19 122.25 11.09C123.4 9.41 123.69 9.12 124.12 9.12C125.03 9.12 128.58 10.94 131.13 12.67C133.19 14.06 133.82 14.64 133.82 15.17C133.82 15.55 133.05 16.99 132.09 18.39V18.37Z" fill="#081059"/>
<path d="M158.26 31.18C155.96 35.16 152.79 37.37 149.52 37.37C144.53 37.37 140.98 32.47 140.98 25.66C140.98 18.08 144.82 11.55 151.4 8.09C154.62 6.36 158.07 5.59 162.63 5.59C172.66 5.59 180.1 12.7 180.1 22.2C180.1 30.6 175.97 36.65 168 40.06C166.42 40.73 165.17 41.12 164.54 41.12C163.96 41.12 163.72 40.93 163.1 40.02C162.28 38.77 161.37 37.86 160.08 36.99C169.97 34.45 174.43 29.79 174.43 22.01C174.43 18.03 172.75 14.67 169.77 12.55C168.09 11.4 166.75 10.92 164.11 10.49C162.77 20.62 161.18 26.14 158.25 31.18H158.26ZM151.35 14.19C148.13 17.02 146.31 21.05 146.31 25.57C146.31 29.27 147.51 31.43 149.53 31.43C151.93 31.43 154.38 28.12 156.2 22.41C157.35 18.81 157.93 16.07 158.65 10.74C155.24 11.46 153.56 12.28 151.35 14.2V14.19Z" fill="#081059"/>
<path d="M200.74 38.71C200.74 40.15 200.84 41.35 201.03 42.74H195.94C196.13 41.3 196.23 40.05 196.23 38.47V35.69H192.29C190.27 35.69 189.17 35.74 187.83 35.93V31.18C189.17 31.37 189.99 31.42 192.05 31.42H196.23V28.68H194.02C191.96 28.68 191.04 28.73 189.36 28.82C189.5 27.48 189.55 25.8 189.55 23.64V15.96C189.55 13.8 189.5 12.41 189.36 11.16C190.61 11.26 191.47 11.3 193.92 11.3H196.27V8.52H192.38C190.41 8.52 189.5 8.57 188.16 8.71V4.05C189.36 4.24 190.42 4.29 192.62 4.29H196.27V3.86C196.27 2.47 196.17 1.41 195.93 0.120003H201.02C200.78 1.37 200.73 2.38 200.73 3.86V4.29H203.95C206.16 4.29 207.17 4.24 208.41 4.05V8.71C207.16 8.57 206.39 8.52 204.19 8.52H200.73V11.3H203.61C205.77 11.3 206.63 11.25 207.45 11.16C207.35 12.07 207.31 13.18 207.31 15.62V23.83C207.31 26.61 207.36 27.72 207.45 28.77C206.54 28.72 205.67 28.67 203.42 28.67H200.73V31.41H204.28C206.01 31.41 206.63 31.36 208.07 31.17V35.92C206.73 35.73 205.81 35.68 203.89 35.68H200.72V38.7L200.74 38.71ZM193.49 15.28V18.06H196.37V15.28H193.49ZM193.49 21.66V24.64H196.37V21.66H193.49ZM203.43 18.06V15.28H200.6V18.06H203.43ZM203.43 24.64V21.66H200.6V24.64H203.43ZM213.08 20.03C211.11 20.03 210.01 20.08 208.66 20.27V15.18C209.91 15.37 211.16 15.42 213.22 15.42H225.51C227.53 15.42 228.73 15.37 230.02 15.18V20.27C228.68 20.08 227.48 20.03 225.51 20.03H219.46C217.97 26.03 216.48 30.74 214.56 35.68C219.07 35.15 219.98 35.01 223.44 34.29C222.1 30.55 221.28 28.58 219.79 25.41L224.06 23.68C226.89 29.68 228.52 33.86 230.49 40.29L225.98 42.55C225.84 42.12 225.45 40.68 224.78 38.33C223.15 38.76 221.66 39.1 219.79 39.48C219.02 39.62 215.71 40.2 209.9 41.16C208.17 41.4 207.98 41.45 207.21 41.64L206.15 36.41C207.45 36.36 208.07 36.31 209.41 36.22C211.67 30.27 213.44 24.41 214.26 20.04H213.06L213.08 20.03ZM210.25 3.23C211.5 3.42 212.51 3.47 214.71 3.47H223.97C226.13 3.47 227.14 3.42 228.39 3.23V8.17H228.01C227.91 8.17 227.63 8.17 227.29 8.12C226.67 8.07 225.32 8.02 223.98 8.02H214.72C212.66 8.02 211.5 8.07 210.26 8.26V3.24L210.25 3.23Z" fill="#081059"/>
<path d="M265.83 8.33C265.19 8.29667 264.71 8.28 264.39 8.28C264.01 10.25 263.67 11.83 263.24 13.22H266.89C266.84 9.33 266.79 6.21 266.79 3.86C266.79 2.04 266.74 1.6 266.6 0.550005H271.45C271.26 2.09 271.21 2.95 271.21 6.22C271.21 8.09 271.21 10.01 271.31 13.23H274C276.74 13.23 277.7 13.18 279.14 12.99V17.79C277.36 17.6 276.79 17.55 274 17.55H271.46C271.7 21.39 271.94 23.55 272.32 26C273.57 23.55 274.62 20.86 274.91 19.42L278.65 21.82C278.36 22.4 278.03 23.16 277.64 24.03C276.68 26.38 275 29.55 273.7 31.61C274.52 34.11 275.62 36.36 275.96 36.36C276.3 36.36 276.58 34.2 276.73 30.6C277.93 31.61 279.27 32.52 280.43 33.05C280.05 36.65 279.66 38.43 279.04 39.77C278.42 41.11 277.41 41.88 276.21 41.88C274.24 41.88 272.13 39.67 270.45 35.93C268.19 38.57 266.23 40.39 263.06 42.75C261.86 40.88 261.43 40.4 260.13 39.2C261.76 38.14 262.34 37.76 263.3 36.99H256.2V40.02H252.02C252.16 38.68 252.21 37.57 252.21 35.99V23.51C252.21 21.45 252.21 20.77 252.07 19.38C252.89 19.52 253.37 19.52 255 19.52H262.34C263.68 19.52 264.21 19.47 265.36 19.38C265.22 20.39 265.22 21.16 265.22 23.51V35.32C266.52 34.12 267.33 33.26 268.92 31.34C267.91 27.6 267.48 24.52 267.05 17.56H249.96V37.96C249.96 40.41 250.01 41.51 250.2 42.86H245.54C245.73 41.56 245.78 40.07 245.78 37.91V34.5C243.43 35.27 241.56 35.8 239.97 36.23C238.463 36.6433 237.423 36.9633 236.85 37.19L235.79 32.25C236.27 32.25 236.85 32.15 238.33 31.87V6.17C237.42 6.22001 236.94 6.27 236.27 6.36V1.46C237.28 1.6 238.38 1.7 240.16 1.7H247.46C249.33 1.7 250.39 1.65 251.4 1.46V4.29C252.41 4.43 253.03 4.48 254.28 4.48H256.44V4.19C256.44 2.32 256.39 1.5 256.2 0.450005H261.19C261 1.51 260.95 2.42 260.95 4.19V4.48H262.58C264.26 4.48 264.88 4.43 265.84 4.34V8.32L265.83 8.33ZM242.55 11.59H245.77V6.17H242.55V11.59ZM242.55 20.61H245.77V15.67H242.55V20.61ZM242.55 30.88C244.33 30.45 244.61 30.35 245.77 30.02V24.69H242.55V30.88ZM253.88 13.21C253.69 11.91 253.26 9.8 252.82 8.22001C252.2 8.27001 252.05 8.27 251.28 8.36V6.25C250.75 6.2 250.61 6.20001 249.94 6.15V13.21H253.88ZM256.14 26.32H261.37V23.34H256.14V26.32ZM256.14 33.18H261.37V29.92H256.14V33.18ZM256.76 8.22001C257.1 9.56001 257.29 10.96 257.58 13.21H259.5C259.98 11.72 260.32 9.99001 260.56 8.22001H256.77H256.76ZM275.43 2.36C277.06 4.76 277.88 6.34 279.08 9.32L275.48 11.43C274.42 8.12001 273.75 6.68 272.07 4.13L275.43 2.35V2.36Z" fill="#081059"/>
<path d="M1.77997 57.68C1.77997 56.86 1.73997 56.14 1.65997 55.38C2.29997 55.44 2.87997 55.46 3.91997 55.46H16.02C16.96 55.46 17.58 55.44 18.28 55.36C18.2 56.06 18.18 56.7 18.18 57.68V70C18.18 71.3 18.2 71.88 18.28 72.48H16.12V71.38H3.85997V72.48H1.65997C1.73997 71.92 1.77997 71.26 1.77997 69.98V57.68ZM3.85997 69.52H16.1V57.32H3.85997V69.52ZM6.71997 60.32C5.87997 60.32 5.49997 60.34 4.97997 60.42V58.48C5.49997 58.56 5.85997 58.58 6.71997 58.58H13.24C14.12 58.58 14.54 58.56 15.04 58.48V60.42C14.5 60.34 14.12 60.32 13.26 60.32H10.82V62.34H12.78C13.62 62.34 14 62.32 14.44 62.24V64.16C14.04 64.1 13.7 64.06 13.2 64.06C13.68 64.62 14.08 65.24 14.42 65.9L13.38 66.48C14.32 66.48 14.7 66.46 15.28 66.38V68.36C14.74 68.28 14.22 68.26 13.46 68.26H6.49997C5.63997 68.26 5.21997 68.28 4.69997 68.36V66.38C5.23997 66.46 5.65997 66.48 6.49997 66.48H8.81997V64.06H7.15997C6.35997 64.06 5.99997 64.08 5.51997 64.16V62.24C5.95997 62.32 6.31997 62.34 7.15997 62.34H8.81997V60.32H6.71997ZM10.82 66.48H12.88C12.5 65.7 12.16 65.16 11.68 64.56L12.68 64.06H10.82V66.48Z" fill="#B59443"/>
<path d="M40.26 65.88C39.76 66.4 39.38 66.92 39 67.68C36.98 66.34 35.32 64.6 34.38 62.82C34.1 63.5 33.82 64.06 33.44 64.62C32.54 66 31.52 66.94 29.82 68.02C29.52 67.5 29.12 66.96 28.58 66.42V70.14C28.58 71.3 28.6 71.9 28.68 72.42H26.3C26.4 71.76 26.44 71.04 26.44 70.1V59.16C26.44 58.38 26.42 57.8 26.36 57.32C27.06 57.38 27.58 57.4 28.58 57.4H33.28C33.3 56.94 33.32 56.66 33.32 56.38C33.32 55.58 33.28 55.18 33.18 54.68H35.58C35.52 55.02 35.5 55.2 35.48 55.64C35.4667 55.8133 35.4467 56.1667 35.42 56.7C35.4067 56.9933 35.3933 57.2267 35.38 57.4H40.28C41.34 57.4 41.8 57.38 42.48 57.32C42.42 57.8 42.4 58.38 42.4 59.18V70.16C42.4 70.96 42.34 71.26 42.1 71.54C41.68 72.06 41 72.22 39.18 72.22C38.68 72.22 38.08 72.2 37.32 72.16C37.18 71.2 37.06 70.74 36.72 69.98C37.68 70.14 38.48 70.2 39.22 70.2C40.16 70.2 40.26 70.14 40.26 69.58V65.88ZM28.58 66.2C30.12 65.26 31 64.46 31.76 63.3C32.46 62.24 32.88 61 33.12 59.32H28.58V66.2ZM35.22 59.32C35.16 59.8 35.14 59.9 35.08 60.24C35.62 61.42 36.38 62.54 37.24 63.42C38.08 64.28 38.92 64.92 40.26 65.68V59.32H35.22Z" fill="#B59443"/>
<path d="M59.88 61.46C60.34 63.18 61.36 65.04 62.64 66.48C64.06 68.12 65.66 69.2 67.94 70.14C67.28 70.9 67.02 71.32 66.54 72.34C62.74 70.4 60.34 67.84 58.9 64.18C58.32 66.14 57.3 67.82 55.76 69.32C54.46 70.62 53.08 71.52 51.18 72.36C50.86 71.62 50.46 71.02 49.84 70.34C52.18 69.4 53.84 68.26 55.08 66.76C56.28 65.3 56.92 63.76 57.26 61.46H52.74C51.52 61.46 50.96 61.48 50.32 61.58V59.18C50.92 59.26 51.62 59.3 52.74 59.3H57.46C57.5 58.42 57.52 57.96 57.52 57.2C57.52 56.24 57.48 55.66 57.38 55.1H59.92C59.82 55.78 59.8 56.04 59.78 57.36C59.78 58.18 59.76 58.62 59.74 59.3H64.82C65.9 59.3 66.6 59.26 67.24 59.18V61.58C66.5 61.5 65.9 61.46 64.84 61.46H59.88Z" fill="#B59443"/>
<path d="M82.32 57.92C79.74 58.16 78.86 58.2 76.3 58.26C76.1666 57.74 75.9333 57.08 75.6 56.28H76.46C79.28 56.28 82.82 56.02 85.18 55.62C86.96 55.32 87.7 55.14 88.72 54.72L90.28 56.64C88.6 57.06 86.14 57.52 84.48 57.7V60.2H88.46C89.52 60.2 90.22 60.16 90.84 60.08V62.22C90.2 62.16 89.46 62.12 88.48 62.12H84.48V64.44H89.38C90.46 64.44 91.1 64.4 91.72 64.32V66.5C91.04 66.42 90.44 66.38 89.38 66.38H84.48V70.14C84.48 71 84.22 71.58 83.74 71.78C83.28 71.98 82.46 72.1 81.56 72.1C80.98 72.1 80.1 72.06 78.96 71.98C78.86 71.12 78.74 70.68 78.38 69.88C79.76 70.06 80.8 70.14 81.58 70.14C82.14 70.14 82.32 70 82.32 69.56V66.38H76.94C75.9 66.38 75.26 66.42 74.6 66.5V64.32C75.22 64.4 75.86 64.44 76.94 64.44H82.32V62.12H78.02C77.18 62.12 76.28 62.16 75.62 62.22V60.08C76.24 60.16 76.94 60.2 78 60.2H82.32V57.92Z" fill="#B59443"/>
<path d="M104.3 70.78C104.3 71.38 104.34 71.88 104.42 72.46H102.3C102.38 71.86 102.42 71.34 102.42 70.68V69.52H100.78C99.94 69.52 99.48 69.54 98.92 69.62V67.64C99.48 67.72 99.82 67.74 100.68 67.74H102.42V66.6H101.5C100.64 66.6 100.26 66.62 99.56 66.66C99.62 66.1 99.64 65.4 99.64 64.5V61.3C99.64 60.4 99.62 59.82 99.56 59.3C100.08 59.34 100.44 59.36 101.46 59.36H102.44V58.2H100.82C100 58.2 99.62 58.22 99.06 58.28V56.34C99.56 56.42 100 56.44 100.92 56.44H102.44V56.26C102.44 55.68 102.4 55.24 102.3 54.7H104.42C104.32 55.22 104.3 55.64 104.3 56.26V56.44H105.64C106.56 56.44 106.98 56.42 107.5 56.34V58.28C106.98 58.22 106.66 58.2 105.74 58.2H104.3V59.36H105.5C106.4 59.36 106.76 59.34 107.1 59.3C107.06 59.68 107.04 60.14 107.04 61.16V64.58C107.04 65.74 107.06 66.2 107.1 66.64C106.72 66.62 106.36 66.6 105.42 66.6H104.3V67.74H105.78C106.5 67.74 106.76 67.72 107.36 67.64V69.62C106.8 69.54 106.42 69.52 105.62 69.52H104.3V70.78ZM101.28 61.02V62.18H102.48V61.02H101.28ZM101.28 63.68V64.92H102.48V63.68H101.28ZM105.42 62.18V61.02H104.24V62.18H105.42ZM105.42 64.92V63.68H104.24V64.92H105.42ZM109.44 63C108.62 63 108.16 63.02 107.6 63.1V60.98C108.12 61.06 108.64 61.08 109.5 61.08H114.62C115.46 61.08 115.96 61.06 116.5 60.98V63.1C115.94 63.02 115.44 63 114.62 63H112.1C111.48 65.5 110.86 67.46 110.06 69.52C111.94 69.3 112.32 69.24 113.76 68.94C113.2 67.38 112.86 66.56 112.24 65.24L114.02 64.52C115.2 67.02 115.88 68.76 116.7 71.44L114.82 72.38C114.76 72.2 114.6 71.6 114.32 70.62C113.64 70.8 113.02 70.94 112.24 71.1C111.92 71.16 110.54 71.4 108.12 71.8C107.4 71.9 107.32 71.92 107 72L106.56 69.82C107.1 69.8 107.36 69.78 107.92 69.74C108.86 67.26 109.6 64.82 109.94 63H109.44ZM108.26 56C108.78 56.08 109.2 56.1 110.12 56.1H113.98C114.88 56.1 115.3 56.08 115.82 56V58.06H115.66C115.66 58.06 115.5 58.06 115.36 58.04C115.1 58.02 114.54 58 113.98 58H110.12C109.26 58 108.78 58.02 108.26 58.1V56Z" fill="#B59443"/>
<path d="M135.42 58.12C135.153 58.1067 134.953 58.1 134.82 58.1C134.66 58.92 134.52 59.58 134.34 60.16H135.86C135.84 58.54 135.82 57.24 135.82 56.26C135.82 55.5 135.8 55.32 135.74 54.88H137.76C137.68 55.52 137.66 55.88 137.66 57.24C137.66 58.02 137.66 58.82 137.7 60.16H138.82C139.96 60.16 140.36 60.14 140.96 60.06V62.06C140.22 61.98 139.98 61.96 138.82 61.96H137.76C137.86 63.56 137.96 64.46 138.12 65.48C138.64 64.46 139.08 63.34 139.2 62.74L140.76 63.74C140.64 63.98 140.5 64.3 140.34 64.66C139.94 65.64 139.24 66.96 138.7 67.82C139.04 68.86 139.5 69.8 139.64 69.8C139.78 69.8 139.9 68.9 139.96 67.4C140.46 67.82 141.02 68.2 141.5 68.42C141.34 69.92 141.18 70.66 140.92 71.22C140.66 71.78 140.24 72.1 139.74 72.1C138.92 72.1 138.04 71.18 137.34 69.62C136.4 70.72 135.58 71.48 134.26 72.46C133.76 71.68 133.58 71.48 133.04 70.98C133.72 70.54 133.96 70.38 134.36 70.06H131.4V71.32H129.66C129.72 70.76 129.74 70.3 129.74 69.64V64.44C129.74 63.58 129.74 63.3 129.68 62.72C130.02 62.78 130.22 62.78 130.9 62.78H133.96C134.52 62.78 134.74 62.76 135.22 62.72C135.16 63.14 135.16 63.46 135.16 64.44V69.36C135.7 68.86 136.04 68.5 136.7 67.7C136.28 66.14 136.1 64.86 135.92 61.96H128.8V70.46C128.8 71.48 128.82 71.94 128.9 72.5H126.96C127.04 71.96 127.06 71.34 127.06 70.44V69.02C126.08 69.34 125.3 69.56 124.64 69.74C124.013 69.9133 123.58 70.0467 123.34 70.14L122.9 68.08C123.1 68.08 123.34 68.04 123.96 67.92V57.22C123.58 57.24 123.38 57.26 123.1 57.3V55.26C123.52 55.32 123.98 55.36 124.72 55.36H127.76C128.54 55.36 128.98 55.34 129.4 55.26V56.44C129.82 56.5 130.08 56.52 130.6 56.52H131.5V56.4C131.5 55.62 131.48 55.28 131.4 54.84H133.48C133.4 55.28 133.38 55.66 133.38 56.4V56.52H134.06C134.76 56.52 135.02 56.5 135.42 56.46V58.12ZM125.72 59.48H127.06V57.22H125.72V59.48ZM125.72 63.24H127.06V61.18H125.72V63.24ZM125.72 67.52C126.46 67.34 126.58 67.3 127.06 67.16V64.94H125.72V67.52ZM130.44 60.16C130.36 59.62 130.18 58.74 130 58.08C129.74 58.1 129.68 58.1 129.36 58.14V57.26C129.14 57.24 129.08 57.24 128.8 57.22V60.16H130.44ZM131.38 65.62H133.56V64.38H131.38V65.62ZM131.38 68.48H133.56V67.12H131.38V68.48ZM131.64 58.08C131.78 58.64 131.86 59.22 131.98 60.16H132.78C132.98 59.54 133.12 58.82 133.22 58.08H131.64ZM139.42 55.64C140.1 56.64 140.44 57.3 140.94 58.54L139.44 59.42C139 58.04 138.72 57.44 138.02 56.38L139.42 55.64Z" fill="#B59443"/>
<path d="M151.98 59.8C151.98 57.58 151.9 56.42 151.74 55.78C151.98 55.7933 152.36 55.8133 152.88 55.84C153.12 55.84 154.2 56.02 154.34 56.06C154.48 56.12 154.54 56.2 154.54 56.32C154.54 56.3867 154.5 56.56 154.42 56.84C154.32 57.12 154.3 57.54 154.26 59.8C154.76 59.8 156.24 59.8 158.72 59.78C158.72 57.5 158.66 56.6 158.5 55.64C159.58 55.7 160.18 55.76 160.76 55.86C161.18 55.92 161.3 56 161.3 56.18C161.3 56.32 161.28 56.38 161.16 56.7C161.1 56.84 161.04 57.46 161.02 58.1V59.76C163.04 59.72 163.8 59.7 164.4 59.64C164.48 59.62 164.54 59.62 164.6 59.62C164.7 59.62 164.78 59.66 164.82 59.72C164.88 59.84 164.92 60.32 164.92 60.96C164.92 61.9 164.88 62 164.58 62C164.58 62 164.42 61.9867 164.1 61.96C163.42 61.9 163.26 61.9 160.98 61.9C160.86 64.9 160.46 66.5 159.46 68.1C158.6 69.48 157.48 70.5 155.94 71.36C155.4 71.66 154.68 71.94 154.48 71.94C154.3 71.94 154.28 71.92 153.86 71.48C153.42 71 153.14 70.8 152.52 70.42C155.4 69.38 156.9 68.2 157.82 66.26C158.38 65.06 158.62 63.88 158.7 61.88H157.4C157.22 61.88 156.66 61.88 155.84 61.9C155.48 61.92 154.94 61.92 154.22 61.94C154.22 62.8867 154.233 63.96 154.26 65.16V65.42C154.26 65.7 154.2 65.8 153.98 65.88C153.74 65.94 153.12 66 152.64 66C151.94 66 151.84 65.94 151.84 65.58V65.28C151.92 63.46 151.94 63.14 151.96 61.98C150.92 62 149.08 62.12 148.6 62.2C148.56 62.22 148.52 62.22 148.48 62.22C148.32 62.22 148.22 62.14 148.18 61.96C148.08 61.62 147.98 60.66 147.94 59.66C148.96 59.78 149.54 59.8 151.2 59.8H151.98Z" fill="#B59443"/>
<path d="M178.14 62.46C181.8 62.46 183.9 62.42 185.92 62.28H186.18C186.78 62.28 186.78 62.3 186.78 63.9C186.78 64.72 186.72 64.86 186.38 64.86H186.3C184.98 64.8 184.24 64.8 178.46 64.8C176.34 64.8 175.28 64.82 173.44 64.88H172.86C172.22 64.88 172.12 64.9 171.74 64.96C171.64 64.96 171.56 64.98 171.52 64.98C171.3 64.98 171.16 64.88 171.12 64.7C171 64.2 170.92 63.18 170.92 62.26C172.54 62.42 173.96 62.46 178.14 62.46Z" fill="#B59443"/>
<path d="M198.08 67.84C198.4 68.32 199.28 68.5 201.2 68.5C203.12 68.5 204.04 68.42 206.84 68.04C206.9 68.02 206.96 68.02 207.02 68.02C207.22 68.02 207.32 68.12 207.36 68.34C207.42 68.66 207.52 69.66 207.52 70C207.52 70.3 207.42 70.44 207.14 70.52C206.52 70.66 203.72 70.82 201.44 70.82C199.16 70.82 197.94 70.66 197 70.22C196.3 69.88 195.84 69.32 195.68 68.62C195.58 68.14 195.54 67.7 195.54 66.9V66.12C195.58 64.02 195.58 63.76 195.58 62.38C195.58 58.92 195.52 57.66 195.34 56.72C197.8 56.92 198.34 57.04 198.34 57.42C198.34 57.52 198.32 57.56 198.22 57.78C198.16 57.92 198.1 58.18 198.04 58.58C197.96 59.18 197.94 59.64 197.94 60.7C197.92 61.48 197.92 62.02 197.92 62.32C201.38 61.3 204.2 59.9 205.36 58.62C206.34 59.84 206.92 60.76 206.92 61.04C206.92 61.22 206.84 61.28 206.44 61.42C206.16 61.52 205.64 61.74 204.86 62.14C202.4 63.32 200.64 63.96 197.9 64.7C197.9 67.2 197.92 67.58 198.08 67.84ZM207.08 59.24C206.66 58.44 206.24 57.9 205.6 57.22C205.52 57.1267 205.48 57.06 205.48 57.02C205.48 56.9 205.58 56.78 205.94 56.52C206.24 56.3 206.4 56.22 206.5 56.22C206.66 56.22 206.88 56.4 207.36 56.92C208 57.66 208.46 58.28 208.46 58.46C208.46 58.66 207.56 59.4 207.3 59.4C207.2 59.4 207.16 59.36 207.08 59.24ZM209.36 58.02C209.28 58.02 209.24 57.98 209.16 57.84C208.62 56.98 208.28 56.52 207.66 55.88C207.58 55.8 207.56 55.78 207.56 55.72C207.56 55.56 208.34 54.96 208.54 54.96C208.72 54.96 208.96 55.16 209.4 55.64C209.98 56.26 210.48 56.96 210.48 57.14C210.48 57.34 209.62 58.02 209.36 58.02Z" fill="#B59443"/>
<path d="M229.4 67.38C230.68 68.54 231.46 69.38 231.46 69.6C231.46 69.78 231.2 70.1 230.58 70.7C230.12 71.14 229.92 71.28 229.78 71.28C229.7 71.28 229.6 71.24 229.48 71.14C229.333 70.9667 228.953 70.5333 228.34 69.84C227.24 68.6 225.74 67.28 224 66.04C222.68 67.42 220.9 68.92 219.46 69.9C218.32 70.68 217.24 71.28 217 71.28C216.8 71.28 216.78 71.26 216.3 70.72C216.02 70.4 215.56 70 215.06 69.64C217.36 68.58 219.06 67.44 220.96 65.7C223.02 63.82 224.38 62.08 225.98 59.32C221.473 59.3467 218.853 59.4 218.12 59.48C217.88 59.5 217.84 59.5 217.8 59.5C217.58 59.5 217.46 59.4 217.42 59.18C217.32 58.54 217.28 57.94 217.28 56.88C218.64 57.06 220.76 57.14 223.66 57.14C224.84 57.14 226.08 57.1 226.74 57.02C227 57 227.04 56.98 227.46 56.84C227.54 56.8 227.58 56.8 227.7 56.8C228.04 56.8 228.4 57.08 228.88 57.72C229.26 58.26 229.48 58.68 229.48 58.9C229.48 59.14 229.42 59.22 228.9 59.7C228.58 60.02 228.44 60.18 227.82 61.2C227.22 62.2 226.3 63.46 225.54 64.38C227.1 65.42 228.16 66.22 229.4 67.38Z" fill="#B59443"/>
<path d="M242.02 69.1C243.72 68.62 244.8 68.26 246.5 67.66V69.7C245.02 70.28 244.04 70.62 241.68 71.36C241.267 71.4933 240.593 71.6867 239.66 71.94C239.48 71.98 239.36 72.02 239.24 72.04C238.74 72.2 238.44 72.3 238.2 72.4L237.74 70.02C238.4 69.98 238.94 69.88 239.84 69.66V57.32C239.84 56.32 239.82 55.82 239.72 55.16H242.14C242.04 55.8 242.02 56.3 242.02 57.32V60.52H244.68C245.6 60.52 246 60.5 246.52 60.42V62.66C246.04 62.58 245.58 62.56 244.68 62.56H242.02V69.1ZM249.34 69.66C249.34 70.08 249.6 70.16 251.04 70.16C252.3 70.16 252.8 70.08 252.98 69.82C253.24 69.44 253.36 68.36 253.36 65.94C254.14 66.36 254.6 66.56 255.42 66.8C255.28 69.66 255.06 70.76 254.5 71.38C253.98 71.96 253.14 72.14 250.84 72.14C249.08 72.14 248.42 72.06 247.92 71.8C247.42 71.52 247.22 71.06 247.22 70.2V57.34C247.22 56.26 247.2 55.76 247.1 55.18H249.46C249.36 55.86 249.34 56.28 249.34 57.34V61.54C251.58 60.24 253.06 59.1 253.86 58.02L255.36 59.78C255.147 59.94 254.913 60.12 254.66 60.32C253.16 61.56 251.56 62.58 249.34 63.78V69.66Z" fill="#B59443"/>
<path d="M276.56 58.76C277.52 60.52 278.22 61.36 279.7 62.62C279.6 62.74 279.52 62.84 279.46 62.9C278.94 63.52 278.82 63.66 278.42 64.3C277.92 63.82 277.74 63.64 277.4 63.28C277 64.74 276.3 66.38 275.54 67.62C276.76 68.98 277.82 69.72 279.72 70.54C279.18 71.3 279 71.62 278.62 72.56C276.48 71.32 275.52 70.58 274.36 69.24C273.06 70.7 271.84 71.64 270.06 72.56C269.56 71.66 269.38 71.4 268.76 70.78C270.68 69.96 271.88 69.1 273.16 67.66C272.72 66.96 272.32 66.22 271.82 65.1C271.78 65 271.58 64.54 271.26 63.72C271.04 63.98 270.94 64.08 270.64 64.4C270.26 63.92 270.12 63.76 269.66 63.34V64.7C269.66 65.64 269.68 66.26 269.72 66.74C269.22 66.7 269.02 66.7 268.04 66.7H267.04V67.92H268.48C269.22 67.92 269.54 67.9 270.06 67.82V69.82C269.46 69.74 269.18 69.72 268.48 69.72H267.04V70.84C267.04 71.46 267.08 71.92 267.16 72.54H265.06C265.14 71.92 265.18 71.46 265.18 70.76V69.72H263.6C262.76 69.72 262.38 69.74 261.84 69.82V67.82C262.34 67.9 262.7 67.92 263.6 67.92H265.18V66.7H264.32C263.44 66.7 262.98 66.72 262.36 66.76C262.42 66.14 262.44 65.48 262.44 64.62V61.3C262.44 60.42 262.42 59.92 262.36 59.3C262.96 59.34 263.38 59.36 264.28 59.36H265.18V58.32H263.7C262.9 58.32 262.48 58.34 261.94 58.4V56.46C262.5 56.54 262.78 56.56 263.7 56.56H265.18V56.32C265.18 55.76 265.14 55.28 265.06 54.78H267.16C267.08 55.24 267.04 55.74 267.04 56.32V56.56H268.08C268.98 56.56 269.26 56.54 269.82 56.46V58.4C269.28 58.34 269 58.32 268.08 58.32H267.04V59.36H268.12C269.04 59.36 269.36 59.34 269.72 59.3C269.68 59.68 269.66 60.12 269.66 61.18V62.56C270.9 61.36 271.56 60.36 272.2 58.76L273.94 59.58C273.24 61.1 272.72 61.94 271.76 63.14L273 62.62C273.18 63.64 273.66 64.9 274.36 66C274.92 64.92 275.32 63.78 275.54 62.5L277.3 63.18C276.32 62.08 275.74 61.2 274.92 59.6L276.56 58.76ZM264.06 60.92V62.26H265.24V60.92H264.06ZM264.06 63.78V65.16H265.24V63.78H264.06ZM268.14 62.26V60.92H266.96V62.26H268.14ZM268.14 65.16V63.78H266.96V65.16H268.14ZM273.4 56.18C273.4 55.56 273.38 55.2 273.3 54.74H275.58C275.5 55.12 275.48 55.54 275.48 56.14V56.8H277.42C278.26 56.8 278.78 56.78 279.36 56.7V58.78C278.76 58.72 278.12 58.68 277.42 58.68H272.14C271.34 58.68 270.76 58.7 270.22 58.78V56.7C270.74 56.78 271.28 56.8 272.14 56.8H273.4V56.18Z" fill="#B59443"/>
<mask id="mask0_110_6" style="mask-type:luminance" maskUnits="userSpaceOnUse" x="294" y="0" width="306" height="73">
<path d="M599.86 0H294.54V72.7H599.86V0Z" fill="white"/>
</mask>
<g mask="url(#mask0_110_6)">
<path d="M599.86 0.110001H294.54V72.59H599.86V0.110001Z" fill="#081059"/>
<path d="M467.45 0.110001L491.96 36.34L467.45 72.58H467.16C467.16 72.58 467.16 72.58 467.16 72.59H599.87V0.110001H467.46H467.45Z" fill="#B59443"/>
<path d="M359.09 -0.139999H374.55V73.28H352.88L337 43.09C332.79 34.99 327.11 22.68 325.11 17.84H324.9C325.22 22.36 325.43 37.62 325.43 43.93V73.28H310.07V-0.139999H332.37L348.36 31.21C351.09 36.47 357.41 49.93 359.51 55.09H359.72C359.4 49.72 359.09 34.68 359.09 26.79V-0.139999Z" fill="white"/>
<path d="M437.67 -0.139999V13.01H407.79V29.42H435.56V42.46H407.79V60.03H438.4V73.28H390.75V-0.139999H437.67Z" fill="white"/>
<path d="M584.31 13.43L564.43 13.11V73.28H546.86V13.12L527.4 13.44V-0.139999H584.31V13.43Z" fill="white"/>
<path d="M467.37 -0.129997H448.78V0.0200027L473.31 36.39L448.78 72.77V72.92H467.37L492 36.39L467.37 -0.129997Z" fill="white"/>
<path d="M498.71 72.92H517.29V72.77L494.33 38.82L485.03 52.71L498.71 72.92Z" fill="white"/>
<path d="M517.13 -0.129997H498.63L485.02 20.05L494.27 33.92L517.13 0.0200027V-0.129997Z" fill="white"/>
</g>
</g>
<defs>
<clipPath id="clip0_110_6">
<rect width="599.86" height="72.7" fill="white"/>
</clipPath>
</defs>
</svg>
