<svg width="224" height="35" viewBox="0 0 224 35" fill="none" xmlns="http://www.w3.org/2000/svg">
<path d="M1.488 18.688C5.784 17.584 9.288 16.024 11.976 14.368C14.424 12.856 17.16 10.456 18.72 8.56L21.312 11.008C19.128 13.216 16.2 15.472 13.368 17.176C10.656 18.784 6.768 20.584 2.976 21.712L1.488 18.688ZM11.472 15.928L14.88 15.112V25.936C14.88 26.992 14.928 28.48 15.096 29.08H11.28C11.376 28.504 11.472 26.992 11.472 25.936V15.928ZM27.648 10.768C29.496 10.816 33.192 10.792 35.832 10.408C38.256 10.048 40.68 9.52 41.88 8.944L43.872 11.584C43.056 11.8 42.408 11.968 42.024 12.064C40.536 12.448 38.616 12.76 36.768 13.024C34.032 13.408 30.504 13.504 28.416 13.552L27.648 10.768ZM28.68 27.328C32.928 25.384 34.824 22.216 34.824 17.728C34.824 17.728 34.824 16.168 34.824 12.76L37.968 12.4C37.968 14.464 37.968 17.656 37.968 17.656C37.968 22.504 36.384 26.608 31.752 29.392L28.68 27.328ZM25.848 16.528C26.52 16.576 27.312 16.648 28.08 16.648C29.592 16.648 42.432 16.648 44.04 16.648C44.544 16.648 45.672 16.576 46.2 16.528V19.624C45.552 19.576 44.76 19.528 44.088 19.528C42.576 19.528 29.52 19.528 28.104 19.528C27.36 19.528 26.472 19.576 25.848 19.624V16.528ZM64.416 8.776C64.296 9.544 64.248 10.456 64.272 11.224C64.344 15.184 64.512 21.784 64.56 26.632C64.584 28.168 63.696 29.056 61.872 29.056C60.408 29.056 59.088 29.008 57.72 28.912L57.432 25.792C58.536 25.96 59.832 26.056 60.648 26.056C61.248 26.056 61.464 25.744 61.464 25.072C61.464 21.76 61.416 15.184 61.224 11.224C61.152 10.192 61.104 9.424 60.984 8.776H64.416ZM50.712 12.784C51.384 12.856 52.536 12.952 53.352 12.952C55.032 12.952 66.12 12.952 67.296 12.952C68.064 12.952 69.192 12.832 69.768 12.76V15.928C69.024 15.904 68.088 15.88 67.44 15.88C66.504 15.88 54.768 15.88 53.448 15.88C52.56 15.88 51.552 15.928 50.712 15.976V12.784ZM49.416 24.208C54.432 21.808 58.632 18.112 60.36 15.28H61.92L61.944 17.848C60 20.752 55.752 24.52 51.624 26.704L49.416 24.208ZM79.392 9.016C80.976 9.88 83.616 11.56 84.864 12.448L83.088 15.088C81.744 14.152 79.248 12.544 77.664 11.656L79.392 9.016ZM74.952 26.056C77.64 25.6 80.496 24.784 83.112 23.344C87.192 21.064 90.552 17.776 92.448 14.344L94.296 17.608C92.088 20.944 88.68 23.968 84.768 26.248C82.32 27.616 78.864 28.816 76.752 29.2L74.952 26.056ZM75.696 14.488C77.304 15.352 79.944 16.984 81.192 17.872L79.416 20.56C78.072 19.6 75.576 17.992 73.968 17.128L75.696 14.488ZM114.6 10.024C114.6 10.744 115.176 11.32 115.896 11.32C116.616 11.32 117.216 10.744 117.216 10.024C117.216 9.304 116.616 8.704 115.896 8.704C115.176 8.704 114.6 9.304 114.6 10.024ZM113.136 10.024C113.136 8.488 114.36 7.24 115.896 7.24C117.432 7.24 118.68 8.488 118.68 10.024C118.68 11.56 117.432 12.784 115.896 12.784C114.36 12.784 113.136 11.56 113.136 10.024ZM109.824 9.064C109.752 9.4 109.608 10.576 109.608 11.176C109.608 12.592 109.608 14.632 109.608 16.024C109.608 17.968 109.608 25.12 109.608 27.136C109.608 28.528 108.792 29.392 107.088 29.392C105.816 29.392 104.4 29.344 103.2 29.2L102.912 26.224C103.92 26.416 104.976 26.488 105.576 26.488C106.2 26.488 106.416 26.272 106.44 25.648C106.464 24.736 106.464 17.152 106.464 16.024C106.464 15.184 106.464 12.616 106.464 11.152C106.464 10.528 106.344 9.496 106.272 9.064H109.824ZM98.064 12.904C98.784 13 99.624 13.072 100.368 13.072C101.832 13.072 113.472 13.072 115.2 13.072C115.872 13.072 116.904 13 117.552 12.928V16.072C116.808 16 115.872 15.976 115.224 15.976C113.496 15.976 101.952 15.976 100.368 15.976C99.648 15.976 98.736 16 98.064 16.072V12.904ZM104.184 19.408C103.08 21.52 100.848 24.664 99.552 26.08L96.936 24.328C98.544 22.792 100.464 20.152 101.448 18.112L104.184 19.408ZM114.48 18.04C115.704 19.576 117.624 22.6 118.584 24.352L115.776 25.912C114.744 23.848 113.04 20.944 111.864 19.456L114.48 18.04ZM121.488 18.688C125.784 17.584 129.288 16.024 131.976 14.368C134.424 12.856 137.16 10.456 138.72 8.56L141.312 11.008C139.128 13.216 136.2 15.472 133.368 17.176C130.656 18.784 126.768 20.584 122.976 21.712L121.488 18.688ZM131.472 15.928L134.88 15.112V25.936C134.88 26.992 134.928 28.48 135.096 29.08H131.28C131.376 28.504 131.472 26.992 131.472 25.936V15.928ZM149.784 9.76C151.44 10.888 154.56 13.384 155.976 14.848L153.528 17.344C152.28 16 149.256 13.384 147.504 12.184L149.784 9.76ZM146.76 25.744C150.528 25.216 153.624 23.992 155.952 22.624C160.056 20.176 163.176 16.528 164.712 13.288L166.56 16.648C164.76 19.912 161.568 23.224 157.704 25.552C155.256 27.016 152.16 28.336 148.8 28.912L146.76 25.744ZM175.512 25.72C175.512 23.872 175.512 13.936 175.512 11.92C175.512 11.056 175.44 9.88 175.272 9.016H179.016C178.92 9.88 178.8 10.912 178.8 11.92C178.8 14.56 178.824 23.944 178.824 25.72C178.824 26.392 178.92 28.072 179.04 29.056H175.272C175.44 28.12 175.512 26.656 175.512 25.72ZM178.104 15.232C181.296 16.12 186.48 18.016 188.832 19.168L187.488 22.504C184.752 21.088 180.72 19.552 178.104 18.688V15.232Z" fill="#081059"/>
<path d="M210.763 21.2625C208.122 23.9542 205.253 26.4114 202.188 28.6062C199.613 30.3812 197.688 31.1687 197.063 30.5437C196.438 29.9187 197.225 27.9937 199 25.4125C201.197 22.3502 203.654 19.4833 206.344 16.8437C212.688 10.4937 218.825 6.34373 220.044 7.56248C221.263 8.78123 217.125 14.9187 210.763 21.2625Z" stroke="#081059" stroke-width="2" stroke-miterlimit="10"/>
<path d="M221.681 15.575C220.395 17.3904 218.999 19.1249 217.5 20.7687" stroke="#081059" stroke-width="2" stroke-linecap="round" stroke-linejoin="round"/>
<path d="M208.394 14.8438L212.744 19.1875" stroke="#081059" stroke-width="2" stroke-miterlimit="10"/>
<path d="M199.019 25.425L202.181 28.5875" stroke="#081059" stroke-width="2" stroke-miterlimit="10"/>
<path d="M219.306 10.7251L221.681 15.5751" stroke="#081059" stroke-width="2" stroke-linecap="round" stroke-linejoin="round"/>
</svg>
