<svg width="137" height="16" viewBox="0 0 137 16" fill="none" xmlns="http://www.w3.org/2000/svg">
<g clip-path="url(#clip0_353_1043)">
<path d="M0.0168716 7.93583C0.767402 7.44924 1.50521 6.94053 2.27694 6.48933C2.74761 6.21507 3.25221 5.98947 3.76528 5.81695C4.71935 5.4896 5.66917 5.62673 6.58507 6.01601C7.22111 6.29027 7.83171 6.61319 8.46351 6.89187C9.26917 7.24576 10.1215 7.40058 10.9865 7.49348C11.3087 7.52886 11.631 7.55541 11.9533 7.57752C12.0847 7.58637 12.1314 7.63945 12.1356 7.77658C12.1653 8.39146 12.1695 8.39146 11.5759 8.44454C10.4437 8.54628 9.32005 8.69668 8.26846 9.1877C7.74267 9.43542 7.22535 9.70083 6.69532 9.9397C5.29178 10.5767 3.91369 10.4661 2.5992 9.68756C1.75963 9.19212 0.949734 8.63475 0.127119 8.10393C0.0889563 8.07738 0.0465535 8.05527 0.0041507 8.02872C0.00839098 7.99776 0.0168716 7.9668 0.0211118 7.93583L0.0168716 7.93583Z" fill="#B59443"/>
<path d="M10.9739 3.71576C10.9739 3.63172 10.9739 3.60075 10.9739 3.56536C10.9994 3.28225 10.9485 3.03011 10.7026 2.87086C10.4354 2.69835 10.1598 2.72931 9.90115 2.88413C9.52377 3.10974 9.34991 3.57421 9.422 4.07407C9.56617 5.06052 10.1047 5.7506 10.9061 6.22392C11.2453 6.42298 11.6185 6.56011 11.9746 6.71936C12.1061 6.77686 12.1951 7.07767 12.0976 7.18383C12.0722 7.21037 12.0086 7.21922 11.9662 7.2148C10.7704 7.02458 9.57465 6.83437 8.45521 6.31681C7.87854 6.0514 7.35274 5.70636 6.95839 5.17111C6.475 4.512 6.38172 3.75115 6.47076 2.96376C6.59373 1.85345 7.06016 0.933346 8.00574 0.349436C9.37112 -0.491039 11.2665 0.234424 11.7754 1.77825C12.0171 2.50813 11.7754 3.22917 11.1478 3.62729C11.1054 3.65383 11.0545 3.67153 10.9697 3.71576L10.9739 3.71576Z" fill="#B59443"/>
<path d="M10.9697 12.2621C11.4064 12.4965 11.7032 12.8062 11.8135 13.2707C11.9704 13.9121 11.7541 14.4606 11.381 14.9516C10.4566 16.1637 8.29403 16.6149 7.06011 14.7127C6.41135 13.7086 6.2587 12.5983 6.63184 11.4482C6.87354 10.7006 7.43325 10.2317 8.07778 9.86895C8.87071 9.42217 9.73573 9.18772 10.6177 9.0152C11.029 8.93115 11.4446 8.8648 11.8559 8.80287C11.9407 8.7896 12.0848 8.81172 12.1103 8.8648C12.1951 9.05059 12.1145 9.22753 11.9619 9.28061C11.3598 9.4841 10.8 9.76278 10.3251 10.2007C9.81205 10.674 9.49403 11.2624 9.40923 11.9746C9.34562 12.5231 9.58308 12.992 10.0198 13.1689C10.5753 13.3989 11.029 13.0362 10.9697 12.4213C10.9697 12.3859 10.9697 12.3506 10.9697 12.2621Z" fill="#B59443"/>
<path d="M12.4494 8.00222C12.4494 7.48467 12.4409 6.97153 12.4536 6.45398C12.4579 6.25049 12.4918 6.03816 12.5469 5.84353C12.6232 5.58254 12.848 5.39675 13.0515 5.40117C13.3229 5.41002 13.4798 5.59138 13.5688 5.82583C13.6324 5.99835 13.6706 6.18856 13.6748 6.36993C13.6833 7.45812 13.6918 8.55074 13.6748 9.63894C13.6748 9.87339 13.5943 10.1211 13.484 10.329C13.2932 10.6873 12.8607 10.6962 12.6614 10.3423C12.5427 10.13 12.4748 9.86011 12.4621 9.6124C12.4324 9.07715 12.4536 8.53747 12.4536 8.00222L12.4494 8.00222Z" fill="#B59443"/>
<path d="M14.0015 7.99779C14.0015 7.61294 14.0015 7.62621 14.3492 7.52447C14.7648 7.40061 15.1803 7.27675 15.5831 7.11308C16.0538 6.92286 16.5075 6.93613 16.9358 7.17943C17.2962 7.38734 17.6227 7.64833 17.9577 7.89605C17.9916 7.92259 18.0086 8.05529 17.9874 8.07299C17.5591 8.42687 17.1351 8.79403 16.5881 8.95328C16.2574 9.05059 15.9393 9.01078 15.6171 8.89577C15.1379 8.72768 14.6503 8.57727 14.1627 8.4313C14.0524 8.39591 13.993 8.3561 13.9973 8.23224C13.9973 8.15261 13.9973 8.07299 13.9973 7.99779L14.0015 7.99779Z" fill="#B59443"/>
<path d="M13.2297 11.457C13.3273 11.488 13.4206 11.5322 13.5181 11.5543C14.2856 11.7224 14.9428 11.0014 14.7817 10.1653C14.7054 9.75393 14.5358 9.40889 14.1202 9.25406C13.9252 9.18329 14.01 8.9975 14.0184 8.86479C14.0184 8.8294 14.1584 8.76747 14.2262 8.78074C14.8792 8.87364 15.4686 9.10366 15.8418 9.71854C16.4015 10.6475 15.8163 12.0144 14.7732 12.24C14.1965 12.3638 13.6962 12.2532 13.3188 11.7445C13.2637 11.6693 13.2297 11.5809 13.1831 11.4968C13.1958 11.4835 13.2128 11.4747 13.2255 11.4614L13.2297 11.457Z" fill="#B59443"/>
<path d="M13.1914 4.4943C13.3313 4.13599 13.5815 3.8927 13.9419 3.77769C14.7646 3.52112 15.6508 3.98559 15.9349 4.8128C16.2529 5.72847 15.9052 6.60434 15.0487 6.97592C14.79 7.08651 14.5101 7.14401 14.2388 7.21037C14.154 7.23248 14.0225 7.27672 14.014 7.12189C14.0098 6.98919 13.925 6.81667 14.1243 6.73262C14.6246 6.52471 14.79 6.09563 14.7985 5.5825C14.8027 5.08706 14.5907 4.71548 14.1582 4.4943C13.9038 4.36602 13.6409 4.37487 13.378 4.47661C13.3271 4.4943 13.2805 4.51642 13.2296 4.53854C13.2168 4.52527 13.2041 4.50757 13.1914 4.4943Z" fill="#B59443"/>
</g>
<path d="M19.5 7.99999L136 8" stroke="#B59443" stroke-linecap="round" stroke-dasharray="1 2"/>
<defs>
<clipPath id="clip0_353_1043">
<rect width="16" height="18" fill="white" transform="translate(0 16) rotate(-90)"/>
</clipPath>
</defs>
</svg>
