<svg width="56" height="58" viewBox="0 0 56 58" fill="none" xmlns="http://www.w3.org/2000/svg">
<path d="M28 28.5923C30.5773 28.5923 32.6667 26.4534 32.6667 23.8149C32.6667 21.1765 30.5773 19.0376 28 19.0376C25.4227 19.0376 23.3333 21.1765 23.3333 23.8149C23.3333 26.4534 25.4227 28.5923 28 28.5923Z" stroke="#081059" stroke-width="2.4" stroke-linecap="round" stroke-linejoin="round"/>
<path d="M19.8333 37.0244C19.8333 34.8071 20.6938 32.6806 22.2253 31.1127C23.7568 29.5449 25.8341 28.6641 28 28.6641C30.1659 28.6641 32.2432 29.5449 33.7747 31.1127C35.3063 32.6806 36.1667 34.8071 36.1667 37.0244" stroke="#081059" stroke-width="2.4" stroke-linecap="round" stroke-linejoin="round"/>
<path d="M46.6667 10.749H9.33333C8.71449 10.749 8.121 11.0007 7.68342 11.4486C7.24583 11.8966 7 12.5042 7 13.1377V41.8017C7 42.4352 7.24583 43.0428 7.68342 43.4907C8.121 43.9387 8.71449 44.1904 9.33333 44.1904H23.3333L28 48.9677L32.6667 44.1904H46.6667C47.2855 44.1904 47.879 43.9387 48.3166 43.4907C48.7542 43.0428 49 42.4352 49 41.8017V13.1377C49 12.5042 48.7542 11.8966 48.3166 11.4486C47.879 11.0007 47.2855 10.749 46.6667 10.749Z" stroke="#081059" stroke-width="2.4" stroke-linecap="round" stroke-linejoin="round"/>
</svg>
