<svg width="36" height="36" viewBox="0 0 36 36" fill="none" xmlns="http://www.w3.org/2000/svg">
<path d="M1.5 34.5V12.75H7.5" stroke="white" stroke-width="2" stroke-linecap="round" stroke-linejoin="round"/>
<path d="M13.5 34.5V5.25H31.5V34.5" stroke="white" stroke-width="2" stroke-linecap="round" stroke-linejoin="round"/>
<path d="M7.5 20.25C8.32843 20.25 9 19.5784 9 18.75C9 17.9216 8.32843 17.25 7.5 17.25C6.67157 17.25 6 17.9216 6 18.75C6 19.5784 6.67157 20.25 7.5 20.25Z" fill="white"/>
<path d="M19.5 20.25C20.3284 20.25 21 19.5784 21 18.75C21 17.9216 20.3284 17.25 19.5 17.25C18.6716 17.25 18 17.9216 18 18.75C18 19.5784 18.6716 20.25 19.5 20.25Z" fill="white"/>
<path d="M25.5 20.25C26.3284 20.25 27 19.5784 27 18.75C27 17.9216 26.3284 17.25 25.5 17.25C24.6716 17.25 24 17.9216 24 18.75C24 19.5784 24.6716 20.25 25.5 20.25Z" fill="white"/>
<path d="M25.5 14.25C26.3284 14.25 27 13.5784 27 12.75C27 11.9216 26.3284 11.25 25.5 11.25C24.6716 11.25 24 11.9216 24 12.75C24 13.5784 24.6716 14.25 25.5 14.25Z" fill="white"/>
<path d="M7.5 26.25C8.32843 26.25 9 25.5784 9 24.75C9 23.9216 8.32843 23.25 7.5 23.25C6.67157 23.25 6 23.9216 6 24.75C6 25.5784 6.67157 26.25 7.5 26.25Z" fill="white"/>
<path d="M19.5 26.25C20.3284 26.25 21 25.5784 21 24.75C21 23.9216 20.3284 23.25 19.5 23.25C18.6716 23.25 18 23.9216 18 24.75C18 25.5784 18.6716 26.25 19.5 26.25Z" fill="white"/>
<path d="M25.5 26.25C26.3284 26.25 27 25.5784 27 24.75C27 23.9216 26.3284 23.25 25.5 23.25C24.6716 23.25 24 23.9216 24 24.75C24 25.5784 24.6716 26.25 25.5 26.25Z" fill="white"/>
<path d="M7.5 32.25C8.32843 32.25 9 31.5784 9 30.75C9 29.9216 8.32843 29.25 7.5 29.25C6.67157 29.25 6 29.9216 6 30.75C6 31.5784 6.67157 32.25 7.5 32.25Z" fill="white"/>
<path d="M19.5 32.25C20.3284 32.25 21 31.5784 21 30.75C21 29.9216 20.3284 29.25 19.5 29.25C18.6716 29.25 18 29.9216 18 30.75C18 31.5784 18.6716 32.25 19.5 32.25Z" fill="white"/>
<path d="M25.5 32.25C26.3284 32.25 27 31.5784 27 30.75C27 29.9216 26.3284 29.25 25.5 29.25C24.6716 29.25 24 29.9216 24 30.75C24 31.5784 24.6716 32.25 25.5 32.25Z" fill="white"/>
<path d="M19.5 14.25C20.3284 14.25 21 13.5784 21 12.75C21 11.9216 20.3284 11.25 19.5 11.25C18.6716 11.25 18 11.9216 18 12.75C18 13.5784 18.6716 14.25 19.5 14.25Z" fill="white"/>
</svg>
