<svg width="69" height="69" viewBox="0 0 69 69" fill="none" xmlns="http://www.w3.org/2000/svg">
<path d="M37.3749 17.7819L40.5805 24.9694C40.811 25.4797 41.1711 25.9208 41.6251 26.2487C42.0791 26.5766 42.611 26.7798 43.168 26.8381L51.0167 27.6575C51.6309 27.7187 52.2139 27.9575 52.6945 28.3447C53.1752 28.7319 53.5326 29.2507 53.7232 29.8377C53.9138 30.4247 53.9293 31.0545 53.7677 31.6502C53.6062 32.2459 53.2747 32.7816 52.8136 33.1919L46.9486 38.4675C46.5357 38.8497 46.2306 39.3339 46.064 39.8713C45.8975 40.4088 45.8754 40.9807 45.9999 41.5294L47.653 49.2631C47.7826 49.8662 47.7339 50.4939 47.5127 51.0697C47.2916 51.6455 46.9076 52.1445 46.4077 52.5058C45.9077 52.867 45.3134 53.0749 44.6973 53.1041C44.0811 53.1333 43.4698 52.9824 42.938 52.67L36.1099 48.7169C35.6233 48.441 35.0736 48.2959 34.5142 48.2959C33.9549 48.2959 33.4051 48.441 32.9186 48.7169L26.0905 52.67C25.5586 52.9824 24.9473 53.1333 24.3312 53.1041C23.7151 53.0749 23.1208 52.867 22.6208 52.5058C22.1208 52.1445 21.7369 51.6455 21.5157 51.0697C21.2946 50.4939 21.2459 49.8662 21.3755 49.2631L22.9999 41.5294C23.1138 40.9812 23.0822 40.4128 22.9082 39.8806C22.7342 39.3485 22.4238 38.8712 22.008 38.4963L16.143 33.2206C15.6819 32.8103 15.3504 32.2746 15.1889 31.6789C15.0273 31.0833 15.0428 30.4534 15.2334 29.8664C15.424 29.2794 15.7814 28.7606 16.2621 28.3734C16.7427 27.9863 17.3257 27.7475 17.9399 27.6863L25.8749 26.8669C26.4318 26.8085 26.9638 26.6053 27.4177 26.2774C27.8717 25.9496 28.2319 25.5085 28.4624 24.9981L31.668 17.8106C31.9267 17.2753 32.3304 16.8232 32.8332 16.506C33.3361 16.1887 33.9179 16.0189 34.5125 16.0159C35.107 16.0129 35.6905 16.1768 36.1965 16.489C36.7025 16.8012 37.1108 17.2492 37.3749 17.7819Z" stroke="#081059" stroke-width="2" stroke-linecap="round" stroke-linejoin="round"/>
</svg>
