<svg width="48" height="48" viewBox="0 0 48 48" fill="none" xmlns="http://www.w3.org/2000/svg">
<path d="M20.5714 35.1429L17.1428 43.7143M27.4285 35.1429L30.8571 43.7143M13.7142 43.7143H34.2857M44.5714 4.28572H3.42852C2.97386 4.28572 2.53783 4.46633 2.21634 4.78782C1.89485 5.10931 1.71423 5.54535 1.71423 6.00001V33.4286C1.71423 33.8832 1.89485 34.3193 2.21634 34.6408C2.53783 34.9623 2.97386 35.1429 3.42852 35.1429H44.5714C45.026 35.1429 45.4621 34.9623 45.7836 34.6408C46.1051 34.3193 46.2857 33.8832 46.2857 33.4286V6.00001C46.2857 5.54535 46.1051 5.10931 45.7836 4.78782C45.4621 4.46633 45.026 4.28572 44.5714 4.28572Z" stroke="#081059" stroke-width="2.4" stroke-linecap="round" stroke-linejoin="round"/>
<path d="M21.6069 10.2377C21.2159 10.2377 20.8409 10.393 20.5644 10.6695C20.2879 10.946 20.1326 11.321 20.1326 11.712V15.8503H15.9977C15.6067 15.8503 15.2317 16.0056 14.9552 16.2821C14.6788 16.5586 14.5234 16.9336 14.5234 17.3246V22.1074C14.5234 22.92 15.1852 23.5817 15.9977 23.5817H20.1394V27.72C20.1394 28.5326 20.7977 29.1943 21.6137 29.1943H26.3966C26.7876 29.1943 27.1626 29.039 27.4391 28.7625C27.7155 28.486 27.8709 28.111 27.8709 27.72V23.5783H32.0092C32.4002 23.5783 32.7751 23.423 33.0516 23.1465C33.3281 22.87 33.4834 22.495 33.4834 22.104V17.3246C33.4834 16.9336 33.3281 16.5586 33.0516 16.2821C32.7751 16.0056 32.4002 15.8503 32.0092 15.8503H27.864V11.712C27.864 11.321 27.7087 10.946 27.4322 10.6695C27.1557 10.393 26.7807 10.2377 26.3897 10.2377H21.6069Z" stroke="#081059" stroke-width="2.4" stroke-linecap="round" stroke-linejoin="round"/>
</svg>
