<svg width="30" height="20" viewBox="0 0 30 20" fill="none" xmlns="http://www.w3.org/2000/svg">
<rect x="0.5" y="0.5" width="29" height="19" stroke="#081059"/>
<path d="M7.4002 14V5.12H10.3162C12.2722 5.12 13.7842 5.804 13.7842 7.916C13.7842 9.944 12.2722 10.844 10.3642 10.844H9.1762V14H7.4002ZM9.1762 9.44H10.2442C11.4682 9.44 12.0562 8.924 12.0562 7.916C12.0562 6.872 11.4082 6.536 10.1842 6.536H9.1762V9.44ZM16.6041 14V5.12H19.6881C21.5481 5.12 23.0241 5.768 23.0241 7.808C23.0241 9.788 21.5481 10.652 19.6881 10.652H18.3801V14H16.6041ZM18.3801 9.248H19.5201C20.6721 9.248 21.2961 8.756 21.2961 7.808C21.2961 6.86 20.6721 6.536 19.5201 6.536H18.3801V9.248ZM21.4281 14L19.3641 10.196L20.6001 9.08L23.4081 14H21.4281Z" fill="#081059"/>
</svg>
