<svg width="48" height="48" viewBox="0 0 48 48" fill="none" xmlns="http://www.w3.org/2000/svg">
<path d="M24 18V45" stroke="#B59443" stroke-width="2" stroke-miterlimit="10" stroke-linecap="round"/>
<path d="M18 25L24 31L30 25" stroke="#B59443" stroke-width="2" stroke-miterlimit="10" stroke-linecap="round"/>
<path d="M31 36.81C31.6592 36.9359 32.3288 36.9995 33 37C34.4445 37.0519 35.8851 36.8187 37.2396 36.3138C38.594 35.809 39.8357 35.0422 40.8939 34.0575C41.952 33.0727 42.8058 31.8892 43.4065 30.5744C44.0072 29.2597 44.3431 27.8395 44.395 26.395C44.4469 24.9505 44.2137 23.5098 43.7088 22.1554C43.204 20.801 42.4372 19.5593 41.4525 18.5011C40.4677 17.443 39.2842 16.5892 37.9694 15.9885C36.6547 15.3878 35.2345 15.0519 33.79 15C33.9284 14.3423 33.9988 13.6721 34 13C34 10.3478 32.9464 7.8043 31.0711 5.92893C29.1957 4.05357 26.6522 3 24 3C21.3478 3 18.8043 4.05357 16.9289 5.92893C15.0536 7.8043 14 10.3478 14 13C14.0012 13.6721 14.0716 14.3423 14.21 15C11.2926 15.1048 8.53634 16.3642 6.54752 18.5011C4.55869 20.6381 3.50024 23.4776 3.605 26.395C3.70976 29.3124 4.96915 32.0687 7.10613 34.0575C9.24311 36.0463 12.0826 37.1048 15 37C15.6711 36.9995 16.3408 36.9359 17 36.81" stroke="#081059" stroke-width="2" stroke-miterlimit="10" stroke-linecap="round"/>
</svg>
