<svg width="34" height="34" viewBox="0 0 34 34" fill="none" xmlns="http://www.w3.org/2000/svg">
<path d="M30 18.5V15.5C30 15.1526 29.862 14.8194 29.6163 14.5737C29.3706 14.328 29.0374 14.19 28.69 14.19H28.06C27.7964 14.1916 27.5386 14.1118 27.3221 13.9615C27.1055 13.8111 26.9406 13.5976 26.85 13.35C26.75 13.1 26.65 12.86 26.54 12.62C26.4306 12.3782 26.3978 12.1087 26.4461 11.8477C26.4943 11.5867 26.6213 11.3467 26.81 11.16L27.25 10.72C27.4949 10.4744 27.6324 10.1418 27.6324 9.795C27.6324 9.44821 27.4949 9.11557 27.25 8.87L25.13 6.75C24.8844 6.50513 24.5518 6.36762 24.205 6.36762C23.8582 6.36762 23.5256 6.50513 23.28 6.75L22.83 7.21C22.6407 7.39458 22.4003 7.51805 22.14 7.56441C21.8796 7.61077 21.6114 7.57788 21.37 7.47C21.1352 7.35799 20.8949 7.25787 20.65 7.17C20.4088 7.08178 20.1996 6.92302 20.0498 6.71436C19.9 6.5057 19.8165 6.25679 19.81 6V5.35C19.8154 5.17463 19.7854 4.99997 19.722 4.83639C19.6586 4.67281 19.5629 4.52364 19.4407 4.39772C19.3186 4.27181 19.1723 4.17172 19.0107 4.1034C18.8491 4.03508 18.6754 3.99992 18.5 4H15.5C15.1526 4 14.8194 4.13802 14.5737 4.38369C14.328 4.62936 14.19 4.96257 14.19 5.31V6C14.1908 6.26469 14.1109 6.52332 13.9607 6.74134C13.8106 6.95935 13.5976 7.12634 13.35 7.22C13.1115 7.30379 12.8779 7.4006 12.65 7.51C12.4086 7.61788 12.1404 7.65077 11.88 7.60441C11.6197 7.55805 11.3793 7.43458 11.19 7.25L10.72 6.77C10.4744 6.52513 10.1418 6.38762 9.795 6.38762C9.44821 6.38762 9.11557 6.52513 8.87 6.77L6.75 8.89C6.50513 9.13557 6.36762 9.46821 6.36762 9.815C6.36762 10.1618 6.50513 10.4944 6.75 10.74L7.24 11.23C7.42493 11.417 7.54878 11.6557 7.59521 11.9146C7.64163 12.1735 7.60843 12.4404 7.5 12.68C7.4 12.91 7.3 13.14 7.22 13.37C7.12634 13.6176 6.95935 13.8306 6.74133 13.9807C6.52332 14.1309 6.26469 14.2108 6 14.21H5.31C4.966 14.21 4.6358 14.3452 4.39069 14.5866C4.14558 14.828 4.00525 15.156 4 15.5V18.5C4 18.8474 4.13802 19.1806 4.38369 19.4263C4.62936 19.672 4.96257 19.81 5.31 19.81H6C6.26469 19.8092 6.52332 19.8891 6.74133 20.0393C6.95935 20.1894 7.12634 20.4024 7.22 20.65C7.3 20.88 7.4 21.11 7.5 21.34C7.60843 21.5796 7.64163 21.8465 7.59521 22.1054C7.54878 22.3643 7.42493 22.603 7.24 22.79L6.75 23.28C6.50513 23.5256 6.36762 23.8582 6.36762 24.205C6.36762 24.5518 6.50513 24.8844 6.75 25.13L8.87 27.25C9.11557 27.4949 9.44821 27.6324 9.795 27.6324C10.1418 27.6324 10.4744 27.4949 10.72 27.25L11.19 26.77C11.3793 26.5854 11.6197 26.462 11.88 26.4156C12.1404 26.3692 12.4086 26.4021 12.65 26.51C12.8779 26.6194 13.1115 26.7162 13.35 26.8C13.5944 26.8924 13.8053 27.0564 13.9551 27.2704C14.1049 27.4845 14.1868 27.7387 14.19 28V28.67C14.1873 28.8437 14.2193 29.0162 14.2839 29.1775C14.3486 29.3387 14.4446 29.4855 14.5665 29.6093C14.6885 29.733 14.8338 29.8313 14.994 29.8984C15.1543 29.9655 15.3263 30 15.5 30H18.5C18.8474 30 19.1806 29.862 19.4263 29.6163C19.672 29.3706 19.81 29.0374 19.81 28.69V28C19.8084 27.7364 19.8882 27.4786 20.0385 27.2621C20.1889 27.0455 20.4024 26.8806 20.65 26.79C20.8949 26.7021 21.1352 26.602 21.37 26.49C21.6114 26.3821 21.8796 26.3492 22.14 26.3956C22.4003 26.4419 22.6407 26.5654 22.83 26.75L23.28 27.21C23.5256 27.4549 23.8582 27.5924 24.205 27.5924C24.5518 27.5924 24.8844 27.4549 25.13 27.21L27.25 25.09C27.4949 24.8444 27.6324 24.5118 27.6324 24.165C27.6324 23.8182 27.4949 23.4856 27.25 23.24L26.81 22.8C26.6213 22.6133 26.4943 22.3733 26.4461 22.1123C26.3978 21.8513 26.4306 21.5818 26.54 21.34C26.65 21.1 26.75 20.86 26.85 20.61C26.9406 20.3624 27.1055 20.1489 27.3221 19.9985C27.5386 19.8482 27.7964 19.7684 28.06 19.77H28.69C29.0306 19.7702 29.3579 19.6376 29.6025 19.4006C29.847 19.1635 29.9896 18.8405 30 18.5Z" stroke="#F2F7F9" stroke-width="2" stroke-linecap="round" stroke-linejoin="round"/>
<path d="M16.9999 21.81C19.6564 21.81 21.8099 19.6565 21.8099 17C21.8099 14.3435 19.6564 12.19 16.9999 12.19C14.3435 12.19 12.1899 14.3435 12.1899 17C12.1899 19.6565 14.3435 21.81 16.9999 21.81Z" stroke="#DCBD6F" stroke-width="2" stroke-linecap="round" stroke-linejoin="round"/>
</svg>
