<svg width="48" height="48" viewBox="0 0 48 48" fill="none" xmlns="http://www.w3.org/2000/svg">
<path d="M24 31V45" stroke="#B59443" stroke-width="2" stroke-miterlimit="10" stroke-linecap="round"/>
<path d="M18 25L24 31L30 25" stroke="#B59443" stroke-width="2" stroke-miterlimit="10" stroke-linecap="round"/>
<path d="M18 36.91C14.2764 35.5054 11.1636 32.8389 9.20391 29.3751C7.24423 25.9113 6.56189 21.8697 7.27577 17.9546C7.98966 14.0394 10.0545 10.4987 13.1106 7.94951C16.1667 5.40027 20.0203 4.00403 24 4.00403C27.9798 4.00403 31.8334 5.40027 34.8895 7.94951C37.9455 10.4987 40.0104 14.0394 40.7243 17.9546C41.4382 21.8697 40.7558 25.9113 38.7962 29.3751C36.8365 32.8389 33.7237 35.5054 30 36.91" stroke="#081059" stroke-width="2" stroke-miterlimit="10" stroke-linecap="round"/>
</svg>
