<svg width="36" height="24" viewBox="0 0 36 24" fill="none" xmlns="http://www.w3.org/2000/svg">
<path d="M11.0001 5.24003V18.76L4.24009 12L11.0001 5.24003ZM1.42009 10.58C1.23469 10.7651 1.08759 10.9848 0.987228 11.2268C0.886865 11.4687 0.835205 11.7281 0.835205 11.99C0.835205 12.252 0.886865 12.5113 0.987228 12.7533C1.08759 12.9952 1.23469 13.215 1.42009 13.4L10.6001 22.58C11.8401 23.84 14.0001 22.96 14.0001 21.18V2.82003C14.0001 1.04003 11.8401 0.140035 10.5801 1.40003L1.42009 10.58ZM22.0001 2.82003V21.16C22.0001 22.94 24.1601 23.84 25.4201 22.58L34.6001 13.4C34.7855 13.215 34.9326 12.9952 35.033 12.7533C35.1333 12.5113 35.185 12.252 35.185 11.99C35.185 11.7281 35.1333 11.4687 35.033 11.2268C34.9326 10.9848 34.7855 10.7651 34.6001 10.58L25.4201 1.40003C24.1601 0.160035 22.0001 1.04003 22.0001 2.82003Z" fill="#081059"/>
</svg>
