<svg width="34" height="34" viewBox="0 0 34 34" fill="none" xmlns="http://www.w3.org/2000/svg">
<path d="M2.125 23.97V25.8825C2.12492 26.6266 2.41759 27.3409 2.93978 27.8711C3.46198 28.4012 4.17178 28.7047 4.91583 28.7158H29.0912C29.4608 28.7149 29.8264 28.6407 30.167 28.4974C30.5076 28.354 30.8163 28.1445 31.0752 27.8809C31.3342 27.6174 31.5383 27.305 31.6755 26.9619C31.8128 26.6189 31.8806 26.252 31.875 25.8825V23.97H2.125Z" stroke="#081059" stroke-width="1.75" stroke-linecap="round" stroke-linejoin="round"/>
<path d="M19.8366 26.3288C19.8366 26.2367 19.9112 26.1621 20.0033 26.1621C20.0953 26.1621 20.1699 26.2367 20.1699 26.3288C20.1699 26.4208 20.0953 26.4954 20.0033 26.4954C19.9112 26.4954 19.8366 26.4208 19.8366 26.3288Z" fill="#081059" stroke="#081059" stroke-width="1.75"/>
<path d="M23.2013 26.3288C23.2013 26.2367 23.276 26.1621 23.368 26.1621C23.46 26.1621 23.5347 26.2367 23.5347 26.3288C23.5347 26.4208 23.46 26.4954 23.368 26.4954C23.276 26.4954 23.2013 26.4208 23.2013 26.3288Z" fill="#081059" stroke="#081059" stroke-width="1.75"/>
<path d="M26.5729 26.3288C26.5729 26.2367 26.6475 26.1621 26.7396 26.1621C26.8316 26.1621 26.9062 26.2367 26.9062 26.3288C26.9062 26.4208 26.8316 26.4954 26.7396 26.4954C26.6475 26.4954 26.5729 26.4208 26.5729 26.3288Z" fill="#081059" stroke="#081059" stroke-width="1.75"/>
<path d="M4.14355 21.4058V7.40918C4.14355 6.84559 4.36744 6.30509 4.76595 5.90658C5.16447 5.50806 5.70497 5.28418 6.26855 5.28418H27.7594C28.323 5.28418 28.8635 5.50806 29.262 5.90658C29.6605 6.30509 29.8844 6.84559 29.8844 7.40918V23.97" stroke="#081059" stroke-width="1.75" stroke-miterlimit="10"/>
<path d="M24.6288 8.22375H9.36426C8.19065 8.22375 7.23926 9.17515 7.23926 10.3488V19.2808C7.23926 20.4544 8.19065 21.4058 9.36426 21.4058H24.6288C25.8024 21.4058 26.7538 20.4544 26.7538 19.2808V10.3488C26.7538 9.17515 25.8024 8.22375 24.6288 8.22375Z" stroke="#DCBD6F" stroke-width="1.75" stroke-linecap="round" stroke-linejoin="round"/>
</svg>
