<svg width="48" height="48" viewBox="0 0 48 48" fill="none" xmlns="http://www.w3.org/2000/svg">
<path d="M37.7639 16H6.2361C5.00114 16 4 17.0011 4 18.2361V33.7639C4 34.9989 5.00114 36 6.2361 36H37.7639C38.9989 36 40 34.9989 40 33.7639V18.2361C40 17.0011 38.9989 16 37.7639 16Z" stroke="#081059" stroke-width="2" stroke-linecap="round" stroke-linejoin="round"/>
<path d="M10 13V12.2973C10.0088 11.6793 10.2627 11.0902 10.7059 10.6594C11.149 10.2286 11.745 9.99141 12.363 9.99998H43.637C44.255 9.99141 44.851 10.2286 45.2941 10.6594C45.7373 11.0902 45.9912 11.6793 46 12.2973V27.7027C45.9912 28.3206 45.7373 28.9098 45.2941 29.3406C44.851 29.7714 44.255 30.0086 43.637 30H42.9143" stroke="#081059" stroke-width="2" stroke-linecap="round" stroke-linejoin="round"/>
<path d="M24.8293 21C24.6222 21.5849 24.239 22.0913 23.7323 22.4494C23.2256 22.8076 22.6204 22.9999 22 22.9999C21.3795 22.9999 20.7743 22.8076 20.2676 22.4494C19.7609 22.0913 19.3777 21.5849 19.1707 21" stroke="#DCBD6F" stroke-width="2" stroke-linecap="round" stroke-linejoin="round"/>
<path d="M19 25H25" stroke="#DCBD6F" stroke-width="2" stroke-linecap="round" stroke-linejoin="round"/>
<path d="M19 28H25" stroke="#DCBD6F" stroke-width="2" stroke-linecap="round" stroke-linejoin="round"/>
<path d="M22 31V25" stroke="#DCBD6F" stroke-width="2" stroke-linecap="round" stroke-linejoin="round"/>
<path d="M9 26H13" stroke="#DCBD6F" stroke-width="2" stroke-linecap="round" stroke-linejoin="round"/>
<path d="M31 26H35" stroke="#DCBD6F" stroke-width="2" stroke-linecap="round" stroke-linejoin="round"/>
</svg>
