<svg width="48" height="48" viewBox="0 0 48 48" fill="none" xmlns="http://www.w3.org/2000/svg">
<path d="M17.9167 14.3333H7.83333C7.3471 14.3333 6.88079 14.5265 6.53697 14.8703C6.19315 15.2141 6 15.6804 6 16.1667V40C6 40.4862 6.19315 40.9526 6.53697 41.2964C6.88079 41.6402 7.3471 41.8333 7.83333 41.8333H42.6667" stroke="#081059" stroke-width="2" stroke-linecap="round" stroke-linejoin="round"/>
<path d="M30.7498 14.3333H23.4165" stroke="#081059" stroke-width="2" stroke-linecap="round" stroke-linejoin="round"/>
<path d="M42.6667 36.3333V16.1667C42.6667 15.6804 42.4735 15.2141 42.1297 14.8703C41.7859 14.5265 41.3196 14.3333 40.8333 14.3333H36.25" stroke="#081059" stroke-width="2" stroke-linecap="round" stroke-linejoin="round"/>
<path d="M30.7498 18V8.83333C30.7498 8.3471 30.5567 7.88079 30.2129 7.53697C29.869 7.19315 29.4027 7 28.9165 7H19.7498C19.2636 7 18.7973 7.19315 18.4535 7.53697C18.1097 7.88079 17.9165 8.3471 17.9165 8.83333V18" stroke="#B59443" stroke-width="2" stroke-linecap="round" stroke-linejoin="round"/>
</svg>
