<svg width="137" height="16" viewBox="0 0 137 16" fill="none" xmlns="http://www.w3.org/2000/svg">
<g clip-path="url(#clip0_353_1042)">
<path d="M136.983 8.06417C136.233 8.55076 135.495 9.05947 134.723 9.51067C134.252 9.78493 133.748 10.0105 133.235 10.1831C132.281 10.5104 131.331 10.3733 130.415 9.98399C129.779 9.70973 129.168 9.38681 128.536 9.10813C127.731 8.75424 126.879 8.59942 126.014 8.50652C125.691 8.47114 125.369 8.4446 125.047 8.42248C124.915 8.41363 124.869 8.36055 124.864 8.22342C124.835 7.60854 124.83 7.60854 125.424 7.55546C126.556 7.45372 127.68 7.30332 128.732 6.8123C129.257 6.56458 129.775 6.29917 130.305 6.0603C131.708 5.42331 133.086 5.5339 134.401 6.31244C135.24 6.80788 136.05 7.36525 136.873 7.89608C136.911 7.92262 136.953 7.94473 136.996 7.97128C136.992 8.00224 136.983 8.0332 136.979 8.06417L136.983 8.06417Z" fill="#B59443"/>
<path d="M126.026 12.2842C126.026 12.3683 126.026 12.3992 126.026 12.4346C126.001 12.7177 126.051 12.9699 126.297 13.1291C126.565 13.3017 126.84 13.2707 127.099 13.1159C127.476 12.8903 127.65 12.4258 127.578 11.9259C127.434 10.9395 126.895 10.2494 126.094 9.77608C125.755 9.57702 125.382 9.43989 125.025 9.28064C124.894 9.22314 124.805 8.92233 124.902 8.81617C124.928 8.78963 124.991 8.78078 125.034 8.7852C126.23 8.97542 127.425 9.16563 128.545 9.68319C129.121 9.9486 129.647 10.2936 130.042 10.8289C130.525 11.488 130.618 12.2488 130.529 13.0362C130.406 14.1466 129.94 15.0667 128.994 15.6506C127.629 16.491 125.733 15.7656 125.225 14.2218C124.983 13.4919 125.225 12.7708 125.852 12.3727C125.895 12.3462 125.945 12.3285 126.03 12.2842L126.026 12.2842Z" fill="#B59443"/>
<path d="M126.03 3.73791C125.594 3.50346 125.297 3.19381 125.187 2.72934C125.03 2.08792 125.246 1.5394 125.619 1.04839C126.543 -0.163665 128.706 -0.614868 129.94 1.28726C130.589 2.29141 130.741 3.40172 130.368 4.55185C130.126 5.29943 129.567 5.76832 128.922 6.13105C128.129 6.57783 127.264 6.81228 126.382 6.9848C125.971 7.06885 125.555 7.1352 125.144 7.19713C125.059 7.2104 124.915 7.18828 124.89 7.1352C124.805 6.94941 124.885 6.77247 125.038 6.71939C125.64 6.5159 126.2 6.23722 126.675 5.79929C127.188 5.32597 127.506 4.73764 127.591 4.02544C127.654 3.47692 127.417 3.00802 126.98 2.83108C126.425 2.60106 125.971 2.96379 126.03 3.57866C126.03 3.61405 126.03 3.64944 126.03 3.73791Z" fill="#B59443"/>
<path d="M124.551 7.99778C124.551 8.51533 124.559 9.02847 124.546 9.54602C124.542 9.74951 124.508 9.96184 124.453 10.1565C124.377 10.4175 124.152 10.6033 123.948 10.5988C123.677 10.59 123.52 10.4086 123.431 10.1742C123.368 10.0016 123.329 9.81144 123.325 9.63007C123.317 8.54188 123.308 7.44926 123.325 6.36106C123.325 6.12661 123.406 5.8789 123.516 5.67099C123.707 5.31268 124.139 5.30383 124.339 5.65772C124.457 5.87005 124.525 6.13989 124.538 6.3876C124.568 6.92285 124.546 7.46253 124.546 7.99778L124.551 7.99778Z" fill="#B59443"/>
<path d="M122.998 8.00221C122.998 8.38706 122.998 8.37379 122.651 8.47553C122.235 8.59939 121.82 8.72325 121.417 8.88692C120.946 9.07714 120.492 9.06387 120.064 8.82057C119.704 8.61266 119.377 8.35167 119.042 8.10395C119.008 8.07741 118.991 7.94471 119.013 7.92701C119.441 7.57313 119.865 7.20597 120.412 7.04672C120.743 6.94941 121.061 6.98922 121.383 7.10423C121.862 7.27233 122.35 7.42273 122.837 7.5687C122.948 7.60409 123.007 7.6439 123.003 7.76776C123.003 7.84739 123.003 7.92701 123.003 8.00221L122.998 8.00221Z" fill="#B59443"/>
<path d="M123.77 4.54301C123.673 4.51204 123.579 4.46781 123.482 4.44569C122.714 4.27759 122.057 4.99863 122.218 5.83468C122.295 6.24607 122.464 6.59111 122.88 6.74594C123.075 6.81671 122.99 7.0025 122.982 7.13521C122.982 7.1706 122.842 7.23253 122.774 7.21926C122.121 7.12636 121.531 6.89634 121.158 6.28146C120.599 5.35252 121.184 3.98564 122.227 3.76004C122.803 3.63618 123.304 3.74677 123.681 4.25547C123.736 4.33068 123.77 4.41915 123.817 4.50319C123.804 4.51646 123.787 4.52531 123.774 4.53858L123.77 4.54301Z" fill="#B59443"/>
<path d="M123.809 11.5057C123.669 11.864 123.418 12.1073 123.058 12.2223C122.235 12.4789 121.349 12.0144 121.065 11.1872C120.747 10.2715 121.095 9.39566 121.951 9.02408C122.21 8.91349 122.49 8.85599 122.761 8.78963C122.846 8.76752 122.977 8.72328 122.986 8.87811C122.99 9.01081 123.075 9.18333 122.876 9.26738C122.375 9.47529 122.21 9.90437 122.202 10.4175C122.197 10.9129 122.409 11.2845 122.842 11.5057C123.096 11.634 123.359 11.6251 123.622 11.5234C123.673 11.5057 123.72 11.4836 123.77 11.4615C123.783 11.4747 123.796 11.4924 123.809 11.5057Z" fill="#B59443"/>
</g>
<path d="M117.5 8H1" stroke="#B59443" stroke-linecap="round" stroke-dasharray="1 2"/>
<defs>
<clipPath id="clip0_353_1042">
<rect width="16" height="18" fill="white" transform="translate(137) rotate(90)"/>
</clipPath>
</defs>
</svg>
