<svg width="58" height="58" viewBox="0 0 58 58" fill="none" xmlns="http://www.w3.org/2000/svg">
<path fill-rule="evenodd" clip-rule="evenodd" d="M47.125 9.66667H10.875C10.5545 9.66667 10.2472 9.79397 10.0206 10.0206C9.79397 10.2472 9.66667 10.5545 9.66667 10.875V47.125C9.66667 47.4455 9.79397 47.7528 10.0206 47.9794C10.2472 48.206 10.5545 48.3333 10.875 48.3333H47.125C47.4455 48.3333 47.7528 48.206 47.9794 47.9794C48.206 47.7528 48.3333 47.4455 48.3333 47.125V10.875C48.3333 10.5545 48.206 10.2472 47.9794 10.0206C47.7528 9.79397 47.4455 9.66667 47.125 9.66667ZM10.875 7.25C9.91359 7.25 8.99156 7.63192 8.31174 8.31174C7.63192 8.99156 7.25 9.91359 7.25 10.875V47.125C7.25 48.0864 7.63192 49.0084 8.31174 49.6883C8.99156 50.3681 9.91359 50.75 10.875 50.75H47.125C48.0864 50.75 49.0084 50.3681 49.6883 49.6883C50.3681 49.0084 50.75 48.0864 50.75 47.125V10.875C50.75 9.91359 50.3681 8.99156 49.6883 8.31174C49.0084 7.63192 48.0864 7.25 47.125 7.25H10.875Z" fill="#081059"/>
<path fill-rule="evenodd" clip-rule="evenodd" d="M16.9167 25.375C16.5962 25.375 16.2889 25.5023 16.0623 25.7289C15.8357 25.9555 15.7084 26.2629 15.7084 26.5833V44.7083C15.7084 45.0288 15.8357 45.3361 16.0623 45.5628C16.2889 45.7894 16.5962 45.9167 16.9167 45.9167H22.9584C22.9584 45.2001 23.2774 44.5549 23.635 44.0558C24.032 43.5197 24.5073 43.0464 25.0452 42.6518C25.868 42.029 26.7993 41.5643 27.7917 41.2815V37.6348H25.6167C24.1788 37.6348 22.7953 38.1157 21.7355 38.6328C21.1899 38.9002 20.6652 39.2084 20.1659 39.5548L20.0874 39.6116L20.0717 39.6237L19.3334 38.6667C19.0853 38.3495 18.8396 38.0305 18.5963 37.7097L18.5975 37.7085L18.6011 37.7048L18.612 37.6976L18.6458 37.6722C18.674 37.6497 18.7131 37.6215 18.763 37.5876C18.8629 37.5143 19.0031 37.4193 19.1835 37.3025C19.54 37.0717 20.0511 36.766 20.677 36.4603C21.9132 35.8573 23.6725 35.2193 25.6167 35.2193H27.7917V32.625H26.4625C25.375 32.625 24.3383 32.886 23.5553 33.1615C23.1405 33.3058 22.7359 33.4782 22.3445 33.6775L22.3361 33.6811L21.75 32.625L21.164 31.5689L21.1652 31.5677L21.1688 31.5653L21.1785 31.5605L21.2051 31.546C21.3406 31.4722 21.4788 31.4037 21.6195 31.3405C21.8938 31.2137 22.2805 31.0469 22.7554 30.8814C23.6918 30.5503 25.0125 30.2083 26.4625 30.2083H27.7917V27.7917H30.2084V30.2083H31.175C32.445 30.2083 33.8515 30.5527 34.8786 30.8645C35.4847 31.0491 36.083 31.2587 36.6718 31.4928L36.702 31.5049L36.7104 31.5073L36.714 31.5097L36.25 32.625L35.786 33.7403L35.7812 33.7391L35.7619 33.7306C35.6238 33.6738 35.4844 33.6203 35.3438 33.5699C34.9591 33.4274 34.5703 33.2964 34.1777 33.1772C33.2111 32.8848 32.0801 32.625 31.175 32.625H30.2084V35.2181H31.9C33.6038 35.2181 35.4803 35.8609 36.8397 36.4337C37.6519 36.7775 38.4457 37.1635 39.2177 37.59L39.2552 37.6118L39.2673 37.6178L39.2697 37.6203H39.2721L38.6667 38.6667L38.0613 39.7119L38.0553 39.7095L38.0275 39.6937L37.9127 39.6297C37.2586 39.2743 36.5876 38.9509 35.902 38.6606C34.6031 38.1133 33.0975 37.6348 31.9 37.6348H30.2084V41.2428C31.2052 41.4966 32.1671 42.0198 32.9271 42.5998C33.4694 43.0072 33.9497 43.4911 34.353 44.0365C34.7118 44.5392 35.0417 45.1953 35.0417 45.9167H41.0834C41.4038 45.9167 41.7112 45.7894 41.9378 45.5628C42.1644 45.3361 42.2917 45.0288 42.2917 44.7083V26.5833C42.2917 26.2629 42.1644 25.9555 41.9378 25.7289C41.7112 25.5023 41.4038 25.375 41.0834 25.375H16.9167ZM32.625 45.9167C32.6184 45.8746 32.6062 45.8335 32.5888 45.7946C32.5347 45.6693 32.4666 45.5506 32.3858 45.4406C32.1226 45.0916 31.8109 44.7819 31.4602 44.521C30.6422 43.8963 29.7093 43.5157 29.0411 43.5C28.263 43.5677 27.2939 43.9833 26.4988 44.5827C26.1579 44.8315 25.8551 45.1287 25.5998 45.4647C25.5031 45.6001 25.4427 45.7125 25.4089 45.797C25.3908 45.8347 25.3793 45.8751 25.375 45.9167H32.625ZM34.4375 17.5208C34.4375 18.963 33.8647 20.346 32.8449 21.3657C31.8252 22.3855 30.4422 22.9583 29 22.9583C27.5579 22.9583 26.1749 22.3855 25.1551 21.3657C24.1354 20.346 23.5625 18.963 23.5625 17.5208C23.5625 16.0787 24.1354 14.6957 25.1551 13.6759C26.1749 12.6562 27.5579 12.0833 29 12.0833C30.4422 12.0833 31.8252 12.6562 32.8449 13.6759C33.8647 14.6957 34.4375 16.0787 34.4375 17.5208Z" fill="#081059"/>
</svg>
