<svg width="18" height="16" viewBox="0 0 18 16" fill="none" xmlns="http://www.w3.org/2000/svg">
<g clip-path="url(#clip0_353_1032)">
<path d="M17.9831 8.06417C17.2326 8.55076 16.4948 9.05947 15.7231 9.51067C15.2524 9.78493 14.7478 10.0105 14.2347 10.1831C13.2807 10.5104 12.3308 10.3733 11.4149 9.98399C10.7789 9.70973 10.1683 9.38681 9.53649 9.10813C8.73083 8.75424 7.87854 8.59942 7.01352 8.50652C6.69126 8.47114 6.36899 8.4446 6.04673 8.42248C5.91528 8.41363 5.86864 8.36055 5.8644 8.22342C5.83472 7.60854 5.83048 7.60854 6.42412 7.55546C7.55627 7.45372 8.67995 7.30332 9.73154 6.8123C10.2573 6.56458 10.7746 6.29917 11.3047 6.0603C12.7082 5.42331 14.0863 5.5339 15.4008 6.31244C16.2404 6.80788 17.0503 7.36525 17.8729 7.89608C17.911 7.92262 17.9534 7.94473 17.9958 7.97128C17.9916 8.00224 17.9831 8.0332 17.9789 8.06417L17.9831 8.06417Z" fill="#B59443"/>
<path d="M7.02606 12.2842C7.02606 12.3683 7.02606 12.3992 7.02606 12.4346C7.00062 12.7177 7.0515 12.9699 7.29744 13.1291C7.56457 13.3017 7.84019 13.2707 8.09885 13.1159C8.47623 12.8903 8.65009 12.4258 8.578 11.9259C8.43383 10.9395 7.89532 10.2494 7.0939 9.77608C6.75468 9.57702 6.38154 9.43989 6.02535 9.28064C5.8939 9.22314 5.80486 8.92233 5.90238 8.81617C5.92782 8.78963 5.99143 8.78078 6.03383 8.7852C7.22959 8.97542 8.42535 9.16563 9.54479 9.68319C10.1215 9.9486 10.6473 10.2936 11.0416 10.8289C11.525 11.488 11.6183 12.2488 11.5292 13.0362C11.4063 14.1466 10.9398 15.0667 9.99426 15.6506C8.62888 16.491 6.73348 15.7656 6.22464 14.2218C5.98295 13.4919 6.22464 12.7708 6.85221 12.3727C6.89461 12.3462 6.94549 12.3285 7.0303 12.2842L7.02606 12.2842Z" fill="#B59443"/>
<path d="M7.03035 3.73791C6.5936 3.50346 6.29678 3.19381 6.18653 2.72934C6.02964 2.08792 6.2459 1.5394 6.61904 1.04839C7.54342 -0.163665 9.70597 -0.614868 10.9399 1.28726C11.5887 2.29141 11.7413 3.40172 11.3682 4.55185C11.1265 5.29943 10.5667 5.76832 9.92222 6.13105C9.12929 6.57783 8.26427 6.81228 7.38229 6.9848C6.97099 7.06885 6.55544 7.1352 6.14413 7.19713C6.05933 7.2104 5.91516 7.18828 5.88971 7.1352C5.80491 6.94941 5.88547 6.77247 6.03812 6.71939C6.64024 6.5159 7.19996 6.23722 7.67487 5.79929C8.18795 5.32597 8.50597 4.73764 8.59077 4.02544C8.65438 3.47692 8.41692 3.00802 7.98017 2.83108C7.4247 2.60106 6.97099 2.96379 7.03035 3.57866C7.03035 3.61405 7.03035 3.64944 7.03035 3.73791Z" fill="#B59443"/>
<path d="M5.55061 7.99778C5.55061 8.51533 5.5591 9.02847 5.54637 9.54602C5.54213 9.74951 5.50821 9.96184 5.45309 10.1565C5.37676 10.4175 5.15203 10.6033 4.94849 10.5988C4.67712 10.59 4.52023 10.4086 4.43118 10.1742C4.36758 10.0016 4.32941 9.81144 4.32517 9.63007C4.31669 8.54188 4.30821 7.44926 4.32517 6.36106C4.32517 6.12661 4.40574 5.8789 4.51599 5.67099C4.7068 5.31268 5.13931 5.30383 5.3386 5.65772C5.45733 5.87005 5.52517 6.13989 5.53789 6.3876C5.56758 6.92285 5.54637 7.46253 5.54637 7.99778L5.55061 7.99778Z" fill="#B59443"/>
<path d="M3.99848 8.00221C3.99848 8.38706 3.99848 8.37379 3.65077 8.47553C3.23523 8.59939 2.81968 8.72325 2.41685 8.88692C1.94618 9.07714 1.49247 9.06387 1.0642 8.82057C0.703777 8.61266 0.377276 8.35167 0.0422935 8.10395C0.00837107 8.07741 -0.00858979 7.94471 0.0126116 7.92701C0.44088 7.57313 0.864908 7.20597 1.4119 7.04672C1.74265 6.94941 2.06067 6.98922 2.38293 7.10423C2.86208 7.27233 3.34971 7.42273 3.83734 7.5687C3.94759 7.60409 4.00696 7.6439 4.00272 7.76776C4.00272 7.84739 4.00272 7.92701 4.00272 8.00221L3.99848 8.00221Z" fill="#B59443"/>
<path d="M4.77025 4.54301C4.67272 4.51204 4.57944 4.46781 4.48191 4.44569C3.71442 4.27759 3.05718 4.99863 3.21831 5.83468C3.29463 6.24607 3.46424 6.59111 3.87979 6.74594C4.07485 6.81671 3.99004 7.0025 3.98156 7.13521C3.98156 7.1706 3.84163 7.23253 3.77379 7.21926C3.12078 7.12636 2.53138 6.89634 2.15824 6.28146C1.59852 5.35252 2.18368 3.98564 3.22679 3.76004C3.80347 3.63618 4.30382 3.74677 4.68121 4.25547C4.73633 4.33068 4.77025 4.41915 4.81689 4.50319C4.80417 4.51646 4.78721 4.52531 4.77449 4.53858L4.77025 4.54301Z" fill="#B59443"/>
<path d="M4.80859 11.5057C4.66866 11.864 4.41849 12.1073 4.05806 12.2223C3.23545 12.4789 2.34923 12.0144 2.06513 11.1872C1.74711 10.2715 2.09481 9.39566 2.95135 9.02408C3.21001 8.91349 3.48987 8.85599 3.76124 8.78963C3.84605 8.76752 3.9775 8.72328 3.98598 8.87811C3.99022 9.01081 4.07502 9.18333 3.87573 9.26738C3.37538 9.47529 3.21001 9.90437 3.20153 10.4175C3.19729 10.9129 3.4093 11.2845 3.84181 11.5057C4.09623 11.634 4.35912 11.6251 4.62202 11.5234C4.67291 11.5057 4.71955 11.4836 4.77043 11.4615C4.78315 11.4747 4.79587 11.4924 4.80859 11.5057Z" fill="#B59443"/>
</g>
<defs>
<clipPath id="clip0_353_1032">
<rect width="16" height="18" fill="white" transform="translate(18) rotate(90)"/>
</clipPath>
</defs>
</svg>
