<svg width="45" height="45" viewBox="0 0 45 45" fill="none" xmlns="http://www.w3.org/2000/svg">
<circle cx="22.5" cy="22.5" r="21.5" fill="white" stroke="#F2F7F9" stroke-width="2"/>
<path d="M22.0459 31.336C19.2379 31.336 17.3659 30.232 16.0219 28.912L17.6779 26.68C18.6619 27.664 19.9339 28.48 21.5659 28.48C23.4379 28.48 24.7099 27.304 24.7099 25.192C24.7099 23.128 23.5099 21.976 21.7339 21.976C20.6779 21.976 20.1019 22.24 19.0699 22.912L17.4379 21.856L17.9419 13.24H27.4459V16.192H20.9899L20.6539 19.96C21.3499 19.648 21.9739 19.48 22.7899 19.48C25.7659 19.48 28.2619 21.232 28.2619 25.12C28.2619 29.056 25.3099 31.336 22.0459 31.336Z" fill="#168AB1"/>
</svg>
