<svg width="40" height="40" viewBox="0 0 40 40" fill="none" xmlns="http://www.w3.org/2000/svg">
<path d="M20.0001 19.9499C21.841 19.9499 23.3334 18.4575 23.3334 16.6165C23.3334 14.7756 21.841 13.2832 20.0001 13.2832C18.1591 13.2832 16.6667 14.7756 16.6667 16.6165C16.6667 18.4575 18.1591 19.9499 20.0001 19.9499Z" stroke="white" stroke-width="2" stroke-linecap="round" stroke-linejoin="round"/>
<path d="M14.1667 25.8333C14.1667 24.2862 14.7813 22.8025 15.8753 21.7085C16.9693 20.6146 18.453 20 20.0001 20C21.5472 20 23.0309 20.6146 24.1249 21.7085C25.2188 22.8025 25.8334 24.2862 25.8334 25.8333" stroke="white" stroke-width="2" stroke-linecap="round" stroke-linejoin="round"/>
<path d="M33.3333 7.5H6.66667C6.22464 7.5 5.80072 7.6756 5.48816 7.98816C5.17559 8.30072 5 8.72464 5 9.16667V29.1667C5 29.6087 5.17559 30.0326 5.48816 30.3452C5.80072 30.6577 6.22464 30.8333 6.66667 30.8333H16.6667L20 34.1667L23.3333 30.8333H33.3333C33.7754 30.8333 34.1993 30.6577 34.5118 30.3452C34.8244 30.0326 35 29.6087 35 29.1667V9.16667C35 8.72464 34.8244 8.30072 34.5118 7.98816C34.1993 7.6756 33.7754 7.5 33.3333 7.5Z" stroke="white" stroke-width="2" stroke-linecap="round" stroke-linejoin="round"/>
</svg>
