<svg width="32" height="30" viewBox="0 0 32 30" fill="none" xmlns="http://www.w3.org/2000/svg">
<path fill-rule="evenodd" clip-rule="evenodd" d="M13.9922 1.35113C14.601 0.985704 15.2977 0.792664 16.0078 0.792664C16.7179 0.792664 17.4146 0.985704 18.0235 1.35113C18.6317 1.71621 19.1294 2.23962 19.4633 2.86547C19.4636 2.86607 19.464 2.86667 19.4643 2.86727L30.541 23.4384C30.8843 24.0368 31.0635 24.7153 31.0603 25.4053C31.0571 26.0992 30.8696 26.7799 30.517 27.3775C30.1643 27.9752 29.6593 28.4684 29.0534 28.8068C28.4498 29.1439 27.7677 29.3152 27.0765 29.3033H4.93914C4.24793 29.3152 3.56585 29.1439 2.96222 28.8068C2.35638 28.4684 1.8513 27.9752 1.49868 27.3775C1.14607 26.7798 0.958565 26.0992 0.955364 25.4053C0.952181 24.7153 1.13133 24.0368 1.47458 23.4384L12.5514 2.86727C12.5517 2.86674 12.5519 2.8662 12.5522 2.86567C12.8862 2.23973 13.3839 1.71625 13.9922 1.35113ZM16.0078 2.29266C15.5697 2.29266 15.1398 2.41177 14.7641 2.63725C14.3885 2.86273 14.0812 3.18609 13.8751 3.57274L13.8736 3.57558L2.79026 24.1589C2.78672 24.1655 2.78308 24.172 2.77935 24.1785C2.56519 24.5492 2.45337 24.9702 2.45535 25.3984C2.45732 25.8266 2.57302 26.2465 2.79059 26.6153C3.00816 26.984 3.3198 27.2884 3.69362 27.4972C4.06744 27.7059 4.49001 27.8116 4.9181 27.8035L4.93241 27.8033H27.0832L27.0976 27.8035C27.5256 27.8116 27.9482 27.7059 28.322 27.4972C28.6959 27.2884 29.0075 26.984 29.2251 26.6153C29.4426 26.2465 29.5583 25.8266 29.5603 25.3984C29.5623 24.9702 29.4505 24.5492 29.2363 24.1785C29.2326 24.172 29.2289 24.1655 29.2254 24.1589L18.1421 3.57558L18.1405 3.57274C17.9345 3.18609 17.6272 2.86273 17.2515 2.63725C16.8759 2.41177 16.446 2.29266 16.0078 2.29266Z" fill="url(#paint0_linear_815_3509)"/>
<path fill-rule="evenodd" clip-rule="evenodd" d="M15.9998 9.05667C16.414 9.05667 16.7498 9.39246 16.7498 9.80667V18.3092C16.7498 18.7234 16.414 19.0592 15.9998 19.0592C15.5855 19.0592 15.2498 18.7234 15.2498 18.3092V9.80667C15.2498 9.39246 15.5855 9.05667 15.9998 9.05667Z" fill="url(#paint1_linear_815_3509)"/>
<path d="M15.9999 24.5633C16.8656 24.5633 17.5674 23.8545 17.5674 22.98C17.5674 22.1055 16.8656 21.3967 15.9999 21.3967C15.1342 21.3967 14.4324 22.1055 14.4324 22.98C14.4324 23.8545 15.1342 24.5633 15.9999 24.5633Z" fill="url(#paint2_linear_815_3509)"/>
<defs>
<linearGradient id="paint0_linear_815_3509" x1="0.955322" y1="15.0483" x2="31.0603" y2="15.0483" gradientUnits="userSpaceOnUse">
<stop stop-color="#FF9900"/>
<stop offset="1" stop-color="#FF2600"/>
</linearGradient>
<linearGradient id="paint1_linear_815_3509" x1="15.2498" y1="14.0579" x2="16.7498" y2="14.0579" gradientUnits="userSpaceOnUse">
<stop stop-color="#FF9900"/>
<stop offset="1" stop-color="#FF2600"/>
</linearGradient>
<linearGradient id="paint2_linear_815_3509" x1="14.4324" y1="22.98" x2="17.5674" y2="22.98" gradientUnits="userSpaceOnUse">
<stop stop-color="#FF9900"/>
<stop offset="1" stop-color="#FF2600"/>
</linearGradient>
</defs>
</svg>
