<svg width="38" height="38" viewBox="0 0 38 38" fill="none" xmlns="http://www.w3.org/2000/svg">
<path d="M6.33325 29.2915V34.8332H30.0833V29.2915" stroke="white" stroke-width="2" stroke-linecap="round" stroke-linejoin="round"/>
<path d="M18.2083 15.0417V7.125" stroke="white" stroke-width="2" stroke-linecap="round" stroke-linejoin="round"/>
<path d="M26.125 15.0417V7.125" stroke="white" stroke-width="2" stroke-linecap="round" stroke-linejoin="round"/>
<path d="M10.2917 15.0417V7.125" stroke="white" stroke-width="2" stroke-linecap="round" stroke-linejoin="round"/>
<circle cx="26.1251" cy="3.16683" r="1.58333" fill="white"/>
<circle cx="18.2083" cy="3.16683" r="1.58333" fill="white"/>
<circle cx="10.2916" cy="3.16683" r="1.58333" fill="white"/>
<path d="M4.75 24.5419C5.58903 24.5409 6.4169 24.3495 7.17115 23.9819C7.92541 23.6144 8.58636 23.0804 9.10417 22.4202C9.62278 23.0789 10.2841 23.6114 11.0383 23.9775C11.7925 24.3436 12.62 24.5339 13.4583 24.5339C14.2967 24.5339 15.1242 24.3436 15.8784 23.9775C16.6326 23.6114 17.2939 23.0789 17.8125 22.4202C18.3679 23.125 19.0861 23.6844 19.9055 24.0503C20.7248 24.4162 21.6207 24.5777 22.5163 24.5209C23.4118 24.464 24.2801 24.1906 25.0466 23.724C25.8131 23.2574 26.4549 22.6117 26.9167 21.8423C27.4077 22.6643 28.1034 23.345 28.9359 23.8181C29.7683 24.2912 30.7092 24.5406 31.6667 24.5419" stroke="white" stroke-width="2" stroke-linecap="round" stroke-linejoin="round"/>
<path d="M4.75 24.5415V17.4165C4.75 16.7866 5.00022 16.1825 5.44562 15.7371C5.89102 15.2917 6.49511 15.0415 7.125 15.0415H29.2917C29.9216 15.0415 30.5256 15.2917 30.971 15.7371C31.4164 16.1825 31.6667 16.7866 31.6667 17.4165V24.5415" stroke="white" stroke-width="2" stroke-linecap="round" stroke-linejoin="round"/>
</svg>
