<svg width="30" height="24" viewBox="0 0 30 24" fill="none" xmlns="http://www.w3.org/2000/svg">
<g clip-path="url(#clip0_353_93)">
<path d="M15 1.33236e-07C14.5726 -0.000151648 14.1548 0.129381 13.7993 0.372211C13.4439 0.615041 13.1668 0.960265 13.0032 1.36422C12.8395 1.76817 12.7966 2.2127 12.8799 2.6416C12.9632 3.0705 13.1689 3.46449 13.4711 3.77375C13.7732 4.08301 14.1583 4.29364 14.5774 4.379C14.9966 4.46437 15.4311 4.42064 15.8259 4.25333C16.2208 4.08602 16.5583 3.80267 16.7958 3.43909C17.0332 3.07551 17.16 2.64805 17.16 2.21077C17.1574 1.62538 16.9291 1.0647 16.5245 0.650688C16.12 0.236678 15.5721 0.00282617 15 1.33236e-07ZM15 1.26339C15.1831 1.26339 15.3621 1.31895 15.5144 1.42305C15.6667 1.52715 15.7854 1.67511 15.8555 1.84822C15.9255 2.02134 15.9439 2.21182 15.9081 2.3956C15.8724 2.57937 15.7842 2.74818 15.6547 2.88067C15.5252 3.01317 15.3602 3.1034 15.1806 3.13995C15.001 3.17651 14.8148 3.15775 14.6456 3.08604C14.4764 3.01433 14.3318 2.89291 14.2301 2.73711C14.1283 2.58132 14.074 2.39815 14.074 2.21077C14.0727 2.08596 14.0958 1.96214 14.1419 1.84656C14.1879 1.73098 14.2561 1.62597 14.3423 1.53768C14.4285 1.44939 14.5311 1.3796 14.6441 1.3324C14.757 1.28519 14.878 1.26152 15 1.26277V1.26339ZM2.15998 2.77954C1.73281 2.77969 1.31527 2.90943 0.960156 3.15236C0.605045 3.39529 0.328309 3.7405 0.164938 4.14434C0.00156809 4.54818 -0.0411001 4.99251 0.0423287 5.42116C0.125757 5.84981 0.331537 6.24352 0.633648 6.55252C0.935759 6.86152 1.32064 7.07192 1.73961 7.15713C2.15859 7.24234 2.59286 7.19853 2.9875 7.03124C3.38215 6.86395 3.71945 6.58069 3.95676 6.21727C4.19407 5.85386 4.32073 5.4266 4.32073 4.98954C4.31836 4.40401 4.0899 3.84318 3.68514 3.42925C3.28037 3.01531 2.73211 2.78184 2.15983 2.7797L2.15998 2.77954ZM27.84 2.77954C27.4128 2.77969 26.9953 2.90943 26.6402 3.15236C26.285 3.39529 26.0083 3.7405 25.8449 4.14434C25.6816 4.54818 25.6389 4.99251 25.7223 5.42116C25.8058 5.84981 26.0115 6.24352 26.3136 6.55252C26.6158 6.86152 27.0006 7.07192 27.4196 7.15713C27.8386 7.24234 28.2729 7.19853 28.6675 7.03124C29.0621 6.86395 29.3995 6.58069 29.6368 6.21727C29.8741 5.85386 30.0007 5.4266 30.0007 4.98954C29.9984 4.40388 29.7698 3.84293 29.3649 3.42897C28.9599 3.01502 28.4115 2.78163 27.8391 2.7797L27.84 2.77954ZM2.15998 4.042C2.34312 4.042 2.52214 4.09757 2.67441 4.20166C2.82669 4.30577 2.94537 4.45373 3.01545 4.62684C3.08553 4.79995 3.10387 4.99044 3.06814 5.17421C3.03241 5.35799 2.94423 5.5268 2.81473 5.65929C2.68523 5.79179 2.52024 5.88201 2.34063 5.91857C2.16101 5.95512 1.97483 5.93636 1.80564 5.86466C1.63644 5.79295 1.49183 5.67152 1.39008 5.51572C1.28834 5.35993 1.23403 5.17676 1.23403 4.98939C1.23281 4.86465 1.25592 4.74091 1.30201 4.62542C1.34811 4.50993 1.41625 4.40501 1.50247 4.3168C1.58868 4.22859 1.69123 4.15887 1.8041 4.11171C1.91698 4.06455 2.03792 4.0409 2.15983 4.04216L2.15998 4.042ZM27.84 4.042C28.0231 4.042 28.2021 4.09757 28.3544 4.20166C28.5067 4.30577 28.6254 4.45373 28.6954 4.62684C28.7655 4.79995 28.7839 4.99044 28.7481 5.17421C28.7124 5.35799 28.6242 5.5268 28.4947 5.65929C28.3652 5.79179 28.2002 5.88201 28.0206 5.91857C27.841 5.95512 27.6548 5.93636 27.4856 5.86466C27.3164 5.79295 27.1718 5.67152 27.0701 5.51572C26.9683 5.35993 26.914 5.17676 26.914 4.98939C26.9128 4.86472 26.9359 4.74105 26.982 4.62562C27.028 4.5102 27.0961 4.40532 27.1823 4.31713C27.2684 4.22893 27.3708 4.15919 27.4836 4.11198C27.5964 4.06477 27.7172 4.04103 27.8391 4.04216L27.84 4.042ZM14.985 5.30554L14.97 5.30646C14.9542 5.30728 14.9384 5.30876 14.9226 5.31091C14.9021 5.31357 14.8817 5.31731 14.8615 5.32211C14.8413 5.32692 14.8216 5.33281 14.8023 5.33977C14.6802 5.38193 14.574 5.46213 14.4987 5.56914C14.4234 5.67615 14.3827 5.8046 14.3823 5.93647V5.7081L7.88728 13.4689L2.72398 8.14462C2.63786 8.05555 2.52779 7.9947 2.40777 7.96981C2.28776 7.94491 2.16322 7.95709 2.04998 8.0048C1.93675 8.05251 1.83994 8.13359 1.77187 8.23774C1.70379 8.34189 1.66753 8.4644 1.66768 8.58969V23.3691C1.66774 23.452 1.68377 23.5342 1.71485 23.6108C1.74593 23.6874 1.79146 23.757 1.84883 23.8156C1.90621 23.8742 1.9743 23.9207 2.04923 23.9524C2.12416 23.9841 2.20446 24.0004 2.28553 24.0003H27.7143C27.8779 24.0002 28.0347 23.9336 28.1504 23.8153C28.2661 23.6969 28.3311 23.5365 28.3312 23.3691V8.58969C28.3312 8.46459 28.2949 8.34231 28.2268 8.23836C28.1588 8.13441 28.0622 8.05347 27.9491 8.0058C27.8361 7.95813 27.7117 7.94587 27.5919 7.97058C27.472 7.9953 27.362 8.05587 27.2758 8.14462L22.113 13.4689L15.618 5.7081V5.93662C15.6175 5.84696 15.5985 5.75842 15.562 5.67689C15.5255 5.59536 15.4725 5.52271 15.4065 5.46377C15.391 5.4499 15.3749 5.43684 15.3582 5.42463C15.3415 5.41229 15.3241 5.40082 15.3063 5.39026C15.2546 5.35944 15.1987 5.33683 15.1404 5.32319L15.1348 5.32104L15.1266 5.31874C15.1139 5.31608 15.1011 5.31388 15.0883 5.31214C15.0771 5.3104 15.0659 5.30892 15.0546 5.30769L15.0436 5.30677H15.0327C15.0209 5.30564 15.009 5.30488 14.9971 5.30447H14.9821L14.985 5.30554ZM15 6.91024L21.6109 14.8108C21.6664 14.8772 21.7347 14.9311 21.8115 14.9691C21.8884 15.0071 21.9721 15.0284 22.0574 15.0316C22.1427 15.0349 22.2277 15.02 22.3071 14.9879C22.3865 14.9558 22.4585 14.9072 22.5186 14.8452L27.0972 10.1233V22.7375H2.90263V10.1221L7.48213 14.8451C7.54223 14.9069 7.61419 14.9554 7.69348 14.9874C7.77277 15.0194 7.85768 15.0342 7.94286 15.031C8.02804 15.0278 8.11165 15.0065 8.18841 14.9686C8.26517 14.9307 8.33343 14.8769 8.38888 14.8107L15 6.91024Z" fill="#B59443"/>
<path d="M2.5 23V9.5L8 14L15 6L22 14L27.5 9.5V23H2.5Z" fill="#B59443"/>
</g>
<defs>
<clipPath id="clip0_353_93">
<rect width="30" height="24" fill="white"/>
</clipPath>
</defs>
</svg>
