<svg width="15" height="126" viewBox="0 0 15 126" fill="none" xmlns="http://www.w3.org/2000/svg">
<g clip-path="url(#clip0_644_1061)">
<path d="M7.43982 125.28C6.98364 124.576 6.50672 123.884 6.08372 123.161C5.8266 122.72 5.6151 122.246 5.45337 121.765C5.14648 120.871 5.27504 119.981 5.63998 119.122C5.8971 118.526 6.19984 117.953 6.46111 117.361C6.79287 116.606 6.93802 115.807 7.02511 114.996C7.05829 114.693 7.08317 114.391 7.1039 114.089C7.1122 113.966 7.16196 113.922 7.29052 113.918C7.86697 113.89 7.86697 113.886 7.91673 114.443C8.01212 115.504 8.15312 116.558 8.61344 117.544C8.84568 118.037 9.0945 118.522 9.31845 119.019C9.91563 120.334 9.81195 121.626 9.08206 122.859C8.61759 123.646 8.09506 124.405 7.59741 125.176C7.57252 125.212 7.55179 125.252 7.52691 125.292C7.49788 125.288 7.46885 125.28 7.43982 125.276L7.43982 125.28Z" fill="#B59443"/>
<path d="M3.48353 115.007C3.40474 115.007 3.37571 115.007 3.34253 115.007C3.07712 114.984 2.84073 115.031 2.69144 115.262C2.5297 115.512 2.55873 115.771 2.70388 116.013C2.91538 116.367 3.35083 116.53 3.81945 116.462C4.74425 116.327 5.39119 115.822 5.83493 115.071C6.02155 114.753 6.15011 114.403 6.2994 114.069C6.35331 113.946 6.63532 113.863 6.73485 113.954C6.75973 113.978 6.76802 114.037 6.76387 114.077C6.58555 115.198 6.40723 116.319 5.92202 117.369C5.67319 117.909 5.34972 118.402 4.84792 118.772C4.23001 119.225 3.51671 119.313 2.77853 119.229C1.73761 119.114 0.875016 118.677 0.327601 117.79C-0.460345 116.51 0.219777 114.733 1.66711 114.256C2.35138 114.029 3.02735 114.256 3.40059 114.844C3.42547 114.884 3.44206 114.932 3.48353 115.011L3.48353 115.007Z" fill="#B59443"/>
<path d="M11.4957 115.011C11.7155 114.602 12.0058 114.324 12.4412 114.22C13.0425 114.073 13.5568 114.276 14.0171 114.626C15.1534 115.492 15.5764 117.52 13.7932 118.677C12.8518 119.285 11.8108 119.428 10.7326 119.078C10.0318 118.852 9.59216 118.327 9.2521 117.723C8.83324 116.979 8.61345 116.168 8.45171 115.341C8.37292 114.956 8.31071 114.566 8.25265 114.181C8.24021 114.101 8.26095 113.966 8.31071 113.942C8.48489 113.863 8.65077 113.938 8.70054 114.081C8.8913 114.646 9.15257 115.17 9.56313 115.616C10.0069 116.097 10.5584 116.395 11.2261 116.474C11.7403 116.534 12.1799 116.311 12.3458 115.902C12.5615 115.381 12.2214 114.956 11.645 115.011C11.6118 115.011 11.5786 115.011 11.4957 115.011Z" fill="#B59443"/>
<path d="M7.50204 113.624C7.01683 113.624 6.53577 113.632 6.05056 113.62C5.85979 113.616 5.66073 113.584 5.47826 113.533C5.23358 113.461 5.05941 113.25 5.06355 113.06C5.07185 112.805 5.24188 112.658 5.46167 112.575C5.62341 112.515 5.80173 112.479 5.97176 112.475C6.99195 112.467 8.01628 112.459 9.03646 112.475C9.25625 112.475 9.48849 112.551 9.6834 112.654C10.0193 112.833 10.0276 113.238 9.69584 113.425C9.49678 113.537 9.24381 113.6 9.01157 113.612C8.50978 113.64 8.00383 113.62 7.50204 113.62L7.50204 113.624Z" fill="#B59443"/>
<path d="M7.49789 112.169C7.1371 112.169 7.14954 112.169 7.05415 111.843C6.93804 111.454 6.82192 111.064 6.66848 110.686C6.49015 110.245 6.50259 109.82 6.73068 109.418C6.92559 109.08 7.17027 108.774 7.40251 108.46C7.42739 108.428 7.5518 108.413 7.56839 108.432C7.90016 108.834 8.24437 109.231 8.39366 109.744C8.4849 110.054 8.44757 110.352 8.33975 110.655C8.18216 111.104 8.04116 111.561 7.90431 112.018C7.87113 112.121 7.83381 112.177 7.71769 112.173C7.64304 112.173 7.56839 112.173 7.49789 112.173L7.49789 112.169Z" fill="#B59443"/>
<path d="M10.7409 112.893C10.7699 112.801 10.8114 112.714 10.8321 112.622C10.9897 111.903 10.3137 111.287 9.52994 111.438C9.14426 111.509 8.82079 111.668 8.67564 112.058C8.60929 112.241 8.43511 112.161 8.3107 112.153C8.27752 112.153 8.21946 112.022 8.2319 111.958C8.31899 111.346 8.53464 110.794 9.11108 110.444C9.98197 109.919 11.2634 110.468 11.4749 111.446C11.591 111.986 11.4874 112.455 11.0104 112.809C10.9399 112.861 10.857 112.893 10.7782 112.936C10.7658 112.924 10.7575 112.908 10.745 112.897L10.7409 112.893Z" fill="#B59443"/>
<path d="M4.21342 112.928C3.87751 112.797 3.64942 112.563 3.54159 112.225C3.30106 111.454 3.73651 110.623 4.51201 110.356C5.37046 110.058 6.19158 110.384 6.53993 111.187C6.64361 111.43 6.69752 111.692 6.75973 111.947C6.78046 112.026 6.82194 112.149 6.67679 112.157C6.55238 112.161 6.39064 112.241 6.31184 112.054C6.11693 111.585 5.71466 111.43 5.2336 111.422C4.76913 111.418 4.42077 111.617 4.21342 112.022C4.09315 112.261 4.10145 112.507 4.19683 112.754C4.21342 112.801 4.23416 112.845 4.25489 112.893C4.24245 112.905 4.22586 112.917 4.21342 112.928Z" fill="#B59443"/>
</g>
<path d="M7.5 109.614L7.50001 16.6138" stroke="#B59443" stroke-width="1.35" stroke-linecap="round"/>
<path d="M3 103.989L3 20.9885" stroke="#B59443" stroke-width="1.35" stroke-linecap="round"/>
<g clip-path="url(#clip1_644_1061)">
<path d="M7.56018 0.708948C8.01636 1.41257 8.49328 2.10427 8.91628 2.82776C9.1734 3.26902 9.3849 3.74207 9.54663 4.22308C9.85352 5.11752 9.72496 6.00797 9.36001 6.86663C9.1029 7.46292 8.80016 8.03536 8.53889 8.62767C8.20713 9.38297 8.06198 10.182 7.97489 10.993C7.94171 11.2951 7.91683 11.5972 7.89609 11.8993C7.8878 12.0225 7.83803 12.0663 7.70947 12.0703C7.13303 12.0981 7.13303 12.1021 7.08327 11.5455C6.98788 10.4841 6.84688 9.43068 6.38656 8.44481C6.15432 7.95188 5.90549 7.4669 5.68155 6.96999C5.08437 5.65418 5.18805 4.36221 5.91794 3.12988C6.38241 2.34278 6.90494 1.58351 7.40259 0.812305C7.42748 0.776527 7.44821 0.736775 7.47309 0.697022C7.50212 0.700997 7.53115 0.708948 7.56018 0.712923L7.56018 0.708948Z" fill="#B59443"/>
<path d="M11.5165 10.9811C11.5953 10.9811 11.6243 10.9811 11.6575 10.9811C11.9229 11.005 12.1593 10.9573 12.3086 10.7267C12.4703 10.4763 12.4413 10.2179 12.2961 9.9754C12.0846 9.6216 11.6492 9.45861 11.1806 9.52619C10.2558 9.66135 9.60881 10.1662 9.16507 10.9175C8.97845 11.2356 8.84989 11.5854 8.7006 11.9193C8.64669 12.0425 8.36468 12.126 8.26515 12.0346C8.24027 12.0107 8.23198 11.9511 8.23612 11.9114C8.41445 10.7903 8.59277 9.6693 9.07798 8.61983C9.32681 8.0792 9.65028 7.58626 10.1521 7.21656C10.77 6.76338 11.4833 6.67593 12.2215 6.75941C13.2624 6.87469 14.125 7.31197 14.6724 8.19846C15.4603 9.47849 14.7802 11.2554 13.3329 11.7325C12.6486 11.9591 11.9726 11.7325 11.5994 11.1441C11.5745 11.1044 11.5579 11.0567 11.5165 10.9772L11.5165 10.9811Z" fill="#B59443"/>
<path d="M3.50433 10.9771C3.28453 11.3865 2.99424 11.6648 2.55879 11.7681C1.95747 11.9152 1.44323 11.7125 0.982902 11.3627C-0.153398 10.496 -0.5764 8.46866 1.20685 7.31186C2.14823 6.70365 3.18915 6.56054 4.26739 6.91036C4.96825 7.13695 5.40784 7.66168 5.7479 8.26592C6.16676 9.0093 6.38655 9.82025 6.54829 10.6471C6.62708 11.0327 6.68929 11.4223 6.74735 11.8079C6.75979 11.8874 6.73905 12.0225 6.68929 12.0464C6.51511 12.1259 6.34923 12.0504 6.29946 11.9073C6.1087 11.3428 5.84743 10.818 5.43687 10.3728C4.99313 9.89181 4.44157 9.59366 3.77389 9.51416C3.25965 9.45453 2.82006 9.67714 2.65418 10.0866C2.43853 10.6074 2.77859 11.0327 3.35503 10.9771C3.38821 10.9771 3.42139 10.9771 3.50433 10.9771Z" fill="#B59443"/>
<path d="M7.49796 12.3645C7.98317 12.3645 8.46423 12.3565 8.94944 12.3685C9.14021 12.3724 9.33927 12.4042 9.52174 12.4559C9.76642 12.5275 9.94059 12.7382 9.93645 12.929C9.92815 13.1834 9.75812 13.3305 9.53833 13.4139C9.37659 13.4736 9.19827 13.5094 9.02824 13.5133C8.00805 13.5213 6.98372 13.5292 5.96354 13.5133C5.74375 13.5133 5.51151 13.4378 5.3166 13.3344C4.98068 13.1556 4.97239 12.7501 5.30416 12.5632C5.50322 12.4519 5.75619 12.3883 5.98843 12.3764C6.49022 12.3486 6.99617 12.3685 7.49796 12.3685L7.49796 12.3645Z" fill="#B59443"/>
<path d="M7.50211 13.8194C7.8629 13.8194 7.85046 13.8194 7.94585 14.1453C8.06196 14.5349 8.17808 14.9245 8.33152 15.3021C8.50985 15.7434 8.49741 16.1687 8.26932 16.5702C8.07441 16.9081 7.82973 17.2142 7.59749 17.5283C7.57261 17.5601 7.4482 17.576 7.43161 17.5561C7.09984 17.1546 6.75563 16.7571 6.60634 16.2443C6.5151 15.9342 6.55243 15.6361 6.66025 15.3339C6.81784 14.8847 6.95884 14.4276 7.09569 13.9704C7.12887 13.8671 7.16619 13.8114 7.28231 13.8154C7.35696 13.8154 7.43161 13.8154 7.50211 13.8154L7.50211 13.8194Z" fill="#B59443"/>
<path d="M4.25899 13.096C4.22996 13.1874 4.18849 13.2749 4.16776 13.3663C4.01017 14.0858 4.68614 14.702 5.46994 14.5509C5.85562 14.4794 6.17909 14.3204 6.32424 13.9308C6.39059 13.7479 6.56477 13.8274 6.68918 13.8354C6.72236 13.8354 6.78042 13.9666 6.76798 14.0302C6.68089 14.6424 6.46524 15.1949 5.88879 15.5447C5.01791 16.0695 3.73646 15.5209 3.52496 14.543C3.40884 14.0023 3.51252 13.5333 3.98943 13.1795C4.05993 13.1278 4.14287 13.096 4.22167 13.0522C4.23411 13.0642 4.2424 13.0801 4.25484 13.092L4.25899 13.096Z" fill="#B59443"/>
<path d="M10.7866 13.0601C11.1225 13.1912 11.3506 13.4258 11.4584 13.7637C11.6989 14.5349 11.2635 15.3657 10.488 15.6321C9.62954 15.9302 8.80842 15.6042 8.46007 14.8012C8.35639 14.5587 8.30248 14.2964 8.24027 14.0419C8.21954 13.9624 8.17806 13.8392 8.32321 13.8313C8.44762 13.8273 8.60936 13.7478 8.68816 13.9346C8.88307 14.4037 9.28534 14.5587 9.7664 14.5667C10.2309 14.5707 10.5792 14.3719 10.7866 13.9664C10.9068 13.7279 10.8986 13.4814 10.8032 13.235C10.7866 13.1873 10.7658 13.1435 10.7451 13.0958C10.7576 13.0839 10.7741 13.072 10.7866 13.0601Z" fill="#B59443"/>
</g>
<defs>
<clipPath id="clip0_644_1061">
<rect width="15" height="16.875" fill="white" transform="translate(15 125.295) rotate(-180)"/>
</clipPath>
<clipPath id="clip1_644_1061">
<rect width="15" height="16.875" fill="white" transform="translate(0 0.693115)"/>
</clipPath>
</defs>
</svg>
