<svg width="400" height="69" viewBox="0 0 400 69" fill="none" xmlns="http://www.w3.org/2000/svg">
<rect width="400" height="54" rx="8" fill="#081059"/>
<path d="M200 69L187.01 54L212.99 54L200 69Z" fill="#081059"/>
<rect x="27" width="27" height="54" fill="#B59443"/>
<rect width="54" height="54" rx="8" fill="#B59443"/>
<rect x="1" y="1" width="398" height="52" rx="7" stroke="#081059" stroke-width="2"/>
<path d="M21.9299 35V32.984C26.7779 28.64 29.6099 25.304 29.6099 22.568C29.6099 20.792 28.6739 19.688 26.9699 19.688C25.6499 19.688 24.6179 20.528 23.7059 21.536L21.7619 19.616C23.3939 17.864 25.0019 16.928 27.4259 16.928C30.7619 16.928 33.0179 19.064 33.0179 22.376C33.0179 25.616 30.3299 29.072 27.0899 32.24C27.9779 32.144 29.1539 32.024 29.9939 32.024H33.8339V35H21.9299Z" fill="white"/>
<path d="M133.688 22.524H140.348V24.324H133.688V22.524ZM129.26 32.496H144.812V34.26H129.26V32.496ZM130.304 18.384H135.344V20.13H130.304V18.384ZM134.66 18.384H135.02L135.398 18.294L136.802 18.996C135.47 22.524 132.626 25.098 129.602 26.556C129.314 26.106 128.738 25.368 128.306 24.99C130.988 23.856 133.67 21.408 134.66 18.744V18.384ZM138.764 17.772C140.006 20.706 142.526 23.316 145.658 24.504C145.154 24.936 144.524 25.746 144.2 26.304C140.888 24.792 138.422 21.912 136.928 18.348L138.764 17.772ZM129.44 21.624L130.592 20.436C131.402 20.886 132.392 21.588 132.86 22.128L131.654 23.442C131.186 22.902 130.214 22.128 129.44 21.624ZM141.536 17.88L143.156 19.032C142.166 19.878 140.996 20.76 140.096 21.336L138.8 20.328C139.664 19.716 140.852 18.672 141.536 17.88ZM143.57 19.986L145.154 21.102C144.128 22.002 142.886 22.938 141.932 23.532L140.636 22.524C141.572 21.876 142.832 20.814 143.57 19.986ZM133.85 27.078V28.662H140.006V27.078H133.85ZM131.744 25.35H142.238V30.372H131.744V25.35ZM132.788 30.606L134.768 30.102C135.236 30.75 135.632 31.668 135.794 32.28L133.724 32.874C133.598 32.262 133.202 31.308 132.788 30.606ZM139.214 30.084L141.302 30.534C140.852 31.416 140.438 32.226 140.078 32.802L138.188 32.37C138.548 31.74 138.998 30.768 139.214 30.084ZM161.768 25.818L163.46 26.844C162.704 27.672 161.912 28.536 161.264 29.112L159.914 28.212C160.508 27.582 161.318 26.556 161.768 25.818ZM153.758 26.988L155.162 26.07C155.9 26.736 156.692 27.672 157.034 28.356L155.522 29.364C155.234 28.68 154.46 27.69 153.758 26.988ZM154.532 18.33H161.966V24.648H159.968V20.094H154.532V18.33ZM154.928 21.048H161.102V22.704H154.928V21.048ZM153.668 23.622H163.316V25.458H153.668V23.622ZM157.376 24.558H159.374V32.586C159.374 33.468 159.266 33.99 158.69 34.296C158.15 34.602 157.43 34.62 156.44 34.62C156.386 34.08 156.152 33.306 155.918 32.766C156.422 32.784 156.962 32.784 157.142 32.784C157.322 32.784 157.376 32.73 157.376 32.532V24.558ZM153.146 31.668C154.064 31.146 155.414 30.3 156.746 29.436L157.394 31.056C156.332 31.866 155.162 32.712 154.136 33.396L153.146 31.668ZM159.32 25.836C159.896 27.978 161.264 30.66 163.73 31.92C163.298 32.298 162.65 33.144 162.344 33.684C159.986 32.172 158.69 29.076 158.132 26.988L159.32 25.836ZM147.8 22.2H153.128V24H147.8V22.2ZM146.936 25.314H153.506V27.15H146.936V25.314ZM147.116 28.158L148.484 27.816C148.79 28.824 149.042 30.084 149.132 30.948L147.674 31.326C147.638 30.462 147.386 29.166 147.116 28.158ZM146.738 32.28C148.448 32.028 151.004 31.56 153.434 31.128L153.596 32.91C151.346 33.378 148.97 33.882 147.152 34.242L146.738 32.28ZM152.102 27.672L153.65 28.05C153.326 29.076 153.038 30.21 152.768 30.966L151.472 30.606C151.706 29.796 151.976 28.536 152.102 27.672ZM149.402 22.92H151.256V32.622L149.402 32.946V22.92ZM149.312 17.718H150.446V18.114H151.058V18.672C150.356 20.04 149.258 21.894 147.476 23.514C147.188 23.082 146.576 22.398 146.18 22.11C147.692 20.814 148.754 19.122 149.312 17.718ZM149.582 17.718H151.094C152.138 18.618 153.47 19.914 154.118 20.832L152.732 22.488C152.156 21.57 150.932 20.058 149.96 19.248H149.582V17.718ZM173.846 25.188L175.79 25.8C174.602 27.942 172.622 29.85 170.642 31.038C170.354 30.624 169.67 29.796 169.238 29.418C171.11 28.482 172.892 26.934 173.846 25.188ZM174.08 17.646L175.952 18.618C174.998 19.752 173.9 20.958 173.036 21.75L171.56 20.904C172.406 20.04 173.486 18.672 174.08 17.646ZM177.446 18.978L179.372 20.04C177.446 22.074 174.908 24.378 172.892 25.836L171.47 24.9C173.468 23.37 175.952 20.922 177.446 18.978ZM169.85 21.012L171.146 19.608C172.46 20.436 174.152 21.66 174.926 22.596L173.558 24.144C172.82 23.226 171.2 21.894 169.85 21.012ZM177.248 23.01L178.922 22.11C179.984 23.28 181.19 24.918 181.676 26.052L179.858 27.078C179.426 25.98 178.31 24.252 177.248 23.01ZM169.49 24.288C172.1 24.27 176.15 24.216 179.948 24.144L179.876 25.872C176.222 25.998 172.352 26.124 169.652 26.196L169.49 24.288ZM173.234 28.158C174.692 30.588 177.734 32.226 181.676 32.838C181.226 33.288 180.668 34.116 180.398 34.674C176.258 33.846 173.288 31.866 171.488 28.716L173.234 28.158ZM173.684 27.078H178.526V28.698H172.244L173.684 27.078ZM177.824 27.078H178.238L178.58 27.006L179.93 27.6C178.328 31.65 174.638 33.72 170.264 34.71C170.084 34.17 169.616 33.324 169.238 32.892C173.198 32.208 176.636 30.372 177.824 27.384V27.078ZM168.302 21.588L170.21 22.29C169.04 24.486 167.168 26.79 165.404 28.248C165.206 27.78 164.63 26.7 164.27 26.232C165.8 25.116 167.366 23.37 168.302 21.588ZM167.978 17.718L169.886 18.474C168.77 20.04 167.078 21.786 165.566 22.902C165.296 22.47 164.774 21.714 164.432 21.318C165.728 20.418 167.24 18.906 167.978 17.718ZM166.826 25.476L168.662 23.64L168.842 23.73V34.656H166.826V25.476ZM189.02 21.948C190.064 22.056 191.09 22.11 192.188 22.11C194.384 22.11 196.634 21.93 198.506 21.534V23.766C196.616 24.054 194.348 24.198 192.188 24.216C191.126 24.216 190.1 24.18 189.038 24.108L189.02 21.948ZM195.878 18.924C195.824 19.266 195.788 19.698 195.77 20.076C195.734 20.67 195.698 21.912 195.698 23.208C195.698 26.52 195.986 28.86 195.986 30.57C195.986 32.46 195.05 33.828 192.458 33.828C189.956 33.828 188.408 32.802 188.408 30.912C188.408 29.076 189.956 27.816 192.422 27.816C195.806 27.816 197.984 29.508 199.388 30.804L198.164 32.694C196.094 30.768 194.276 29.562 192.242 29.562C191.216 29.562 190.514 29.976 190.514 30.66C190.514 31.398 191.234 31.722 192.206 31.722C193.304 31.722 193.682 31.146 193.682 30.084C193.682 28.842 193.448 25.818 193.448 23.226C193.448 21.858 193.43 20.652 193.412 20.112C193.412 19.824 193.358 19.266 193.304 18.924H195.878ZM187.094 19.104C186.95 19.464 186.734 20.4 186.662 20.724C186.392 21.93 185.798 25.89 185.798 27.69C185.798 28.032 185.816 28.5 185.87 28.86C186.122 28.23 186.428 27.618 186.68 27.006L187.796 27.888C187.292 29.382 186.698 31.2 186.5 32.19C186.446 32.442 186.392 32.838 186.41 33.018C186.41 33.216 186.41 33.522 186.428 33.774L184.394 33.918C184.034 32.676 183.674 30.606 183.674 28.176C183.674 25.458 184.214 22.056 184.43 20.67C184.502 20.166 184.574 19.464 184.592 18.906L187.094 19.104ZM205.166 21.768H207.47V31.2C207.47 32.118 207.614 32.244 208.55 32.244C208.982 32.244 210.782 32.244 211.286 32.244C212.204 32.244 212.366 31.74 212.51 29.166C213.014 29.544 213.986 29.958 214.616 30.084C214.328 33.36 213.698 34.404 211.466 34.404C210.926 34.404 208.802 34.404 208.28 34.404C205.85 34.404 205.166 33.684 205.166 31.182V21.768ZM205.382 19.266L206.786 17.7C208.244 18.618 210.08 19.968 211.106 20.76L209.684 22.542C208.658 21.66 206.804 20.238 205.382 19.266ZM202.286 22.596L204.356 23.118C203.96 25.242 203.384 27.798 202.484 29.346L200.378 28.572C201.296 27.006 201.962 24.72 202.286 22.596ZM212.888 24.72L214.85 23.802C215.984 25.494 217.1 27.69 217.586 29.202L215.498 30.264C215.084 28.752 213.968 26.43 212.888 24.72ZM213.752 18.762L215.93 19.644C213.032 25.188 208.28 30.588 201.836 33.756C201.512 33.252 200.882 32.46 200.432 32.028C206.534 29.238 211.34 23.838 213.752 18.762ZM229.214 18.762C229.178 19.05 229.106 20.022 229.088 20.31C229.052 21.48 229.088 25.152 229.106 26.61L226.874 25.836C226.874 24.72 226.856 21.282 226.802 20.31C226.73 19.59 226.676 18.978 226.622 18.762H229.214ZM219.044 20.994C221.744 20.994 226.478 20.85 228.728 20.85C230.582 20.85 233.3 20.832 234.308 20.85L234.272 22.992C233.138 22.938 231.32 22.884 228.674 22.884C225.398 22.884 221.816 23.028 219.116 23.172L219.044 20.994ZM228.8 26.322C228.8 29.256 227.72 30.714 225.65 30.714C224.246 30.714 222.536 29.616 222.536 27.42C222.536 25.386 224.174 24.054 226.136 24.054C228.512 24.054 229.754 25.8 229.754 28.05C229.754 30.408 228.368 33.378 223.976 34.602L222.068 32.694C225.128 32.046 227.522 30.822 227.522 27.672C227.522 26.52 226.892 25.944 226.082 25.944C225.398 25.944 224.696 26.43 224.696 27.384C224.696 28.194 225.38 28.734 226.082 28.734C226.946 28.734 227.684 27.996 227.126 25.872L228.8 26.322ZM231.554 18.222C231.986 18.87 232.49 19.698 232.814 20.346L231.284 20.976C230.924 20.256 230.528 19.5 230.06 18.834L231.554 18.222ZM233.966 17.7C234.398 18.366 234.902 19.158 235.226 19.806L233.732 20.454C233.354 19.716 232.94 18.96 232.454 18.33L233.966 17.7ZM239.78 28.572H250.004V29.85H239.78V28.572ZM239.798 26.322H251.246V32.1H239.798V30.642H249.104V27.762H239.798V26.322ZM243.776 27.114H245.846V32.154C245.846 32.82 246.044 32.928 247.142 32.928C247.646 32.928 249.914 32.928 250.562 32.928C251.462 32.928 251.642 32.64 251.75 31.11C252.2 31.416 253.01 31.686 253.568 31.794C253.316 33.99 252.704 34.566 250.742 34.566C250.166 34.566 247.484 34.566 246.944 34.566C244.46 34.566 243.776 34.044 243.776 32.154V27.114ZM238.718 26.322H240.788V32.892H238.718V26.322ZM238.286 18.366H251.642V19.95H238.286V18.366ZM239.672 22.668H243.236V23.838H239.672V22.668ZM239.33 24.468H243.236V25.638H239.33V24.468ZM246.674 24.468H250.616V25.638H246.674V24.468ZM246.674 22.668H250.202V23.838H246.674V22.668ZM243.884 18.996H245.99V25.836H243.884V18.996ZM237.062 20.616H252.956V24.306H250.958V22.056H238.97V24.306H237.062V20.616ZM262.496 27.348H270.794V34.548H268.634V29.292H264.53V34.638H262.496V27.348ZM269.534 17.898L271.046 19.698C268.598 20.418 265.286 20.832 262.442 21.03C262.37 20.508 262.082 19.698 261.83 19.212C264.566 18.978 267.626 18.51 269.534 17.898ZM265.43 19.59H267.644V28.32H265.43V19.59ZM261.542 22.938H271.532V24.972H261.542V22.938ZM263.864 31.812H269.66V33.756H263.864V31.812ZM255.404 23.37H260.84V24.99H255.404V23.37ZM255.512 18.276H260.84V19.914H255.512V18.276ZM255.404 25.89H260.84V27.51H255.404V25.89ZM254.522 20.778H261.416V22.47H254.522V20.778ZM256.466 28.428H260.93V33.9H256.466V32.208H259.076V30.138H256.466V28.428ZM255.35 28.428H257.168V34.62H255.35V28.428ZM280.046 20.418C282.26 20.724 285.86 20.634 287.786 20.4V22.722C285.59 22.938 282.314 22.938 280.064 22.722L280.046 20.418ZM281.486 28.104C281.342 28.716 281.27 29.148 281.27 29.616C281.27 30.426 281.972 30.912 283.808 30.912C285.41 30.912 286.742 30.768 288.308 30.426L288.362 32.856C287.192 33.09 285.734 33.216 283.7 33.216C280.604 33.216 279.11 32.1 279.11 30.264C279.11 29.544 279.218 28.842 279.434 27.924L281.486 28.104ZM277.274 19.212C277.148 19.59 276.914 20.508 276.842 20.832C276.59 22.02 275.96 25.62 275.96 27.42C275.96 27.78 275.978 28.23 276.032 28.59C276.302 27.978 276.59 27.366 276.86 26.754L277.976 27.636C277.454 29.148 276.86 31.092 276.68 32.046C276.626 32.316 276.572 32.712 276.572 32.892C276.59 33.09 276.59 33.396 276.608 33.648L274.538 33.774C274.178 32.55 273.836 30.354 273.836 27.906C273.836 25.188 274.376 22.164 274.574 20.76C274.646 20.274 274.736 19.59 274.754 19.014L277.274 19.212ZM292.862 31.452H305.174V33.576H292.862V31.452ZM297.758 17.898H300.008V32.748H297.758V17.898ZM291.8 26.952H293.996V34.62H291.8V26.952ZM304.022 26.952H306.272V34.602H304.022V26.952ZM292.52 19.41H294.68V23.892H303.266V19.41H305.552V25.98H292.52V19.41ZM311.96 19.302C312.464 19.356 313.076 19.392 313.58 19.392C314.552 19.392 318.386 19.302 319.412 19.212C320.168 19.158 320.582 19.086 320.798 19.014L321.95 20.634C321.536 20.904 321.104 21.156 320.708 21.462C319.736 22.146 317.846 23.73 316.694 24.63C317.306 24.468 317.846 24.432 318.404 24.432C321.464 24.432 323.786 26.34 323.786 28.95C323.786 31.794 321.626 34.044 317.27 34.044C314.768 34.044 312.878 32.91 312.878 31.092C312.878 29.634 314.21 28.302 316.118 28.302C318.584 28.302 319.952 29.958 320.006 31.938L317.9 32.208C317.864 30.912 317.18 30.012 316.118 30.012C315.452 30.012 315.002 30.426 315.002 30.894C315.002 31.56 315.74 32.01 316.838 32.01C319.88 32.01 321.428 30.858 321.428 28.932C321.428 27.294 319.808 26.196 317.702 26.196C314.93 26.196 313.148 27.672 311.222 29.85L309.584 28.158C310.862 27.15 313.04 25.314 314.084 24.432C315.092 23.604 316.982 22.092 317.864 21.3C316.946 21.336 314.462 21.426 313.49 21.498C313.004 21.534 312.446 21.57 312.032 21.642L311.96 19.302Z" fill="white"/>
</svg>
