<svg width="400" height="69" viewBox="0 0 400 69" fill="none" xmlns="http://www.w3.org/2000/svg">
<rect width="400" height="54" rx="8" fill="#081059"/>
<path d="M200 69L187.01 54L212.99 54L200 69Z" fill="#081059"/>
<rect x="27" width="27" height="54" fill="#B59443"/>
<rect width="54" height="54" rx="8" fill="#B59443"/>
<rect x="1" y="1" width="398" height="52" rx="7" stroke="#081059" stroke-width="2"/>
<path d="M22.8659 35V32.144H26.7059V20.912H23.4659V18.728C25.2659 18.392 26.4659 17.936 27.6179 17.24H30.2339V32.144H33.5699V35H22.8659Z" fill="white"/>
<path d="M103.66 20.436C104.128 20.508 104.884 20.562 105.37 20.562H115.18C115.72 20.562 116.35 20.508 116.854 20.436V22.92C116.332 22.866 115.702 22.83 115.18 22.83H105.37C104.884 22.83 104.128 22.866 103.66 22.92V20.436ZM108.862 31.524V21.822H111.364V31.524H108.862ZM102.508 30.048C103.084 30.138 103.732 30.192 104.272 30.192H116.152C116.782 30.192 117.358 30.102 117.826 30.048V32.64C117.322 32.586 116.566 32.568 116.152 32.568H104.272C103.75 32.568 103.102 32.586 102.508 32.64V30.048ZM120.814 24.666C121.48 24.72 122.776 24.792 123.712 24.792C125.836 24.792 131.776 24.792 133.378 24.792C134.224 24.792 135.016 24.702 135.502 24.666V27.51C135.07 27.492 134.152 27.402 133.396 27.402C131.758 27.402 125.836 27.402 123.712 27.402C122.704 27.402 121.498 27.456 120.814 27.51V24.666ZM149.946 19.194C150.45 19.95 151.188 21.138 151.584 21.966L150.036 22.65C149.496 21.516 149.1 20.742 148.434 19.806L149.946 19.194ZM152.43 18.312C152.988 19.032 153.69 20.22 154.122 21.012L152.574 21.696C151.998 20.562 151.566 19.86 150.9 18.96L152.43 18.312ZM142.134 18.834C143.322 19.482 145.302 20.76 146.238 21.408L144.888 23.406C143.898 22.704 142.008 21.48 140.82 20.814L142.134 18.834ZM138.804 31.614C140.802 31.272 142.962 30.678 144.924 29.598C147.984 27.888 150.486 25.422 151.926 22.848L153.312 25.296C151.638 27.78 149.1 30.066 146.148 31.758C144.33 32.802 141.738 33.702 140.154 33.99L138.804 31.614ZM139.362 22.938C140.568 23.586 142.548 24.828 143.466 25.476L142.152 27.492C141.126 26.79 139.272 25.566 138.048 24.936L139.362 22.938ZM158.352 23.262C158.748 23.316 159.396 23.352 159.792 23.352H168.018C168.468 23.352 168.99 23.316 169.422 23.262V25.512C168.972 25.476 168.432 25.458 168.018 25.458H159.792C159.396 25.458 158.748 25.476 158.352 25.512V23.262ZM162.582 32.46V24.486H164.94V32.46H162.582ZM157.452 31.128C157.902 31.2 158.46 31.236 158.928 31.236H168.864C169.368 31.236 169.854 31.182 170.232 31.128V33.486C169.854 33.432 169.188 33.414 168.864 33.414H158.928C158.478 33.414 157.92 33.432 157.452 33.486V31.128ZM177.162 19.32C178.404 20.166 180.744 22.038 181.806 23.136L179.97 25.008C179.034 24 176.766 22.038 175.452 21.138L177.162 19.32ZM174.894 31.308C177.72 30.912 180.042 29.994 181.788 28.968C184.866 27.132 187.206 24.396 188.358 21.966L189.744 24.486C188.394 26.934 186 29.418 183.102 31.164C181.266 32.262 178.944 33.252 176.424 33.684L174.894 31.308ZM196.458 31.29C196.458 29.904 196.458 22.452 196.458 20.94C196.458 20.292 196.404 19.41 196.278 18.762H199.086C199.014 19.41 198.924 20.184 198.924 20.94C198.924 22.92 198.942 29.958 198.942 31.29C198.942 31.794 199.014 33.054 199.104 33.792H196.278C196.404 33.09 196.458 31.992 196.458 31.29ZM198.402 23.424C200.796 24.09 204.684 25.512 206.448 26.376L205.44 28.878C203.388 27.816 200.364 26.664 198.402 26.016V23.424ZM215.844 21.948C216.888 22.056 217.914 22.11 219.012 22.11C221.208 22.11 223.458 21.93 225.33 21.534V23.766C223.44 24.054 221.172 24.198 219.012 24.216C217.95 24.216 216.924 24.18 215.862 24.108L215.844 21.948ZM222.702 18.924C222.648 19.266 222.612 19.698 222.594 20.076C222.558 20.67 222.522 21.912 222.522 23.208C222.522 26.52 222.81 28.86 222.81 30.57C222.81 32.46 221.874 33.828 219.282 33.828C216.78 33.828 215.232 32.802 215.232 30.912C215.232 29.076 216.78 27.816 219.246 27.816C222.63 27.816 224.808 29.508 226.212 30.804L224.988 32.694C222.918 30.768 221.1 29.562 219.066 29.562C218.04 29.562 217.338 29.976 217.338 30.66C217.338 31.398 218.058 31.722 219.03 31.722C220.128 31.722 220.506 31.146 220.506 30.084C220.506 28.842 220.272 25.818 220.272 23.226C220.272 21.858 220.254 20.652 220.236 20.112C220.236 19.824 220.182 19.266 220.128 18.924H222.702ZM213.918 19.104C213.774 19.464 213.558 20.4 213.486 20.724C213.216 21.93 212.622 25.89 212.622 27.69C212.622 28.032 212.64 28.5 212.694 28.86C212.946 28.23 213.252 27.618 213.504 27.006L214.62 27.888C214.116 29.382 213.522 31.2 213.324 32.19C213.27 32.442 213.216 32.838 213.234 33.018C213.234 33.216 213.234 33.522 213.252 33.774L211.218 33.918C210.858 32.676 210.498 30.606 210.498 28.176C210.498 25.458 211.038 22.056 211.254 20.67C211.326 20.166 211.398 19.464 211.416 18.906L213.918 19.104ZM237.012 28.104H241.782V29.67H235.896L237.012 28.104ZM241.116 28.104H241.548L241.926 28.032L243.204 28.752C241.62 32.208 238.056 33.9 234.024 34.656C233.844 34.134 233.322 33.216 232.944 32.802C236.76 32.28 239.946 31.002 241.116 28.41V28.104ZM237.012 29.058C238.344 31.056 241.062 32.298 244.554 32.73C244.104 33.18 243.528 34.062 243.24 34.62C239.55 33.954 236.868 32.298 235.248 29.598L237.012 29.058ZM237.066 25.188V25.944H241.026V25.188H237.066ZM237.066 23.208V23.946H241.026V23.208H237.066ZM235.104 21.876H243.078V27.258H235.104V21.876ZM235.716 19.32H244.068V21.102H235.716V19.32ZM235.878 17.718L237.894 18.06C237.12 19.86 236.13 21.714 234.564 23.28C234.222 22.866 233.538 22.272 233.07 22.02C234.438 20.76 235.374 19.086 235.878 17.718ZM237.318 26.718L239.388 27.114C238.29 28.806 236.778 30.282 234.546 31.488C234.258 31.038 233.61 30.372 233.178 30.066C235.194 29.148 236.562 27.888 237.318 26.718ZM229.596 27.204L231.522 24.9V34.62H229.596V27.204ZM227.634 21.03H232.422V22.884H227.634V21.03ZM229.578 17.808H231.504V22.038H229.578V17.808ZM231.288 24.972C231.774 25.512 233.502 27.762 233.88 28.302L232.674 29.724C232.17 28.68 230.874 26.7 230.262 25.836L231.288 24.972ZM231.666 21.03H232.062L232.404 20.94L233.484 21.642C232.404 25.098 230.226 28.518 228.102 30.39C227.922 29.868 227.418 28.86 227.112 28.482C229.02 26.97 230.892 24.054 231.666 21.408V21.03ZM233.178 24.396L234.384 25.278C233.844 26.052 233.286 26.88 232.836 27.438L231.882 26.682C232.296 26.088 232.872 25.08 233.178 24.396ZM245.346 27.114H254.454V28.842H245.346V27.114ZM245.562 20.76H254.4V22.452H245.562V20.76ZM248.586 25.818L250.584 26.25C249.702 28.104 248.532 30.3 247.668 31.74L245.778 31.164C246.624 29.778 247.812 27.528 248.586 25.818ZM251.142 28.32L253.122 28.482C252.474 32.262 250.584 33.774 246.3 34.638C246.174 34.044 245.778 33.288 245.418 32.856C249 32.406 250.566 31.272 251.142 28.32ZM252.42 17.934L254.238 18.654C253.644 19.464 253.068 20.292 252.6 20.85L251.214 20.22C251.628 19.59 252.132 18.618 252.42 17.934ZM248.982 17.7H250.962V26.07H248.982V17.7ZM245.994 18.654L247.542 18.006C248.028 18.69 248.478 19.608 248.64 20.256L246.984 20.976C246.858 20.346 246.444 19.392 245.994 18.654ZM249.036 21.606L250.44 22.452C249.54 23.874 247.812 25.44 246.3 26.286C246.048 25.818 245.58 25.098 245.184 24.702C246.642 24.108 248.262 22.83 249.036 21.606ZM250.782 22.128C251.43 22.434 253.482 23.64 253.986 23.982L252.834 25.476C252.168 24.81 250.566 23.532 249.774 22.974L250.782 22.128ZM255.642 20.976H262.248V22.974H255.642V20.976ZM255.84 17.7L258.018 18.006C257.46 21.732 256.38 25.188 254.724 27.384C254.382 26.988 253.5 26.214 253.014 25.854C254.526 24.018 255.408 20.922 255.84 17.7ZM259.098 22.2L261.312 22.398C260.538 28.554 258.684 32.406 254.13 34.692C253.914 34.17 253.284 33.18 252.888 32.712C256.992 30.912 258.558 27.528 259.098 22.2ZM256.866 22.578C257.586 27.132 259.17 31.02 262.482 32.712C261.978 33.144 261.294 34.008 260.97 34.602C257.352 32.442 255.786 28.266 254.904 22.884L256.866 22.578ZM247.362 31.182L248.514 29.706C250.638 30.516 252.888 31.776 254.112 32.748L252.618 34.278C251.466 33.27 249.378 32.01 247.362 31.182ZM267.306 21.894H276.306V23.712H267.306V21.894ZM268.152 25.08H270.132V32.334H268.152V25.08ZM269.232 25.08H275.514V31.146H269.232V29.346H273.516V26.844H269.232V25.08ZM264.174 18.564H278.574V20.616H266.262V34.638H264.174V18.564ZM277.368 18.564H279.492V32.154C279.492 33.27 279.276 33.882 278.574 34.224C277.89 34.584 276.9 34.638 275.37 34.638C275.298 34.044 274.974 33.054 274.65 32.514C275.604 32.55 276.648 32.55 276.954 32.55C277.26 32.532 277.368 32.424 277.368 32.118V18.564ZM288.528 19.626H297.726V21.498H288.528V19.626ZM287.916 23.082H298.266V24.99H287.916V23.082ZM287.952 26.52H298.14V28.41H287.952V26.52ZM292.002 17.7H294.126V24.306H292.002V17.7ZM294.288 24.882H296.394V32.334C296.394 33.378 296.196 33.936 295.494 34.242C294.774 34.566 293.802 34.602 292.452 34.602C292.38 34.008 292.056 33.144 291.768 32.586C292.65 32.622 293.64 32.622 293.91 32.604C294.198 32.604 294.288 32.55 294.288 32.298V24.882ZM288.672 29.616L290.4 28.626C291.246 29.508 292.2 30.696 292.596 31.578L290.742 32.658C290.4 31.812 289.5 30.534 288.672 29.616ZM282.966 18.816H287.61V31.128H282.966V29.202H285.594V20.742H282.966V18.816ZM283.074 23.928H286.566V25.818H283.074V23.928ZM281.958 18.816H283.956V32.73H281.958V18.816ZM306.87 20.418C309.084 20.724 312.684 20.634 314.61 20.4V22.722C312.414 22.938 309.138 22.938 306.888 22.722L306.87 20.418ZM308.31 28.104C308.166 28.716 308.094 29.148 308.094 29.616C308.094 30.426 308.796 30.912 310.632 30.912C312.234 30.912 313.566 30.768 315.132 30.426L315.186 32.856C314.016 33.09 312.558 33.216 310.524 33.216C307.428 33.216 305.934 32.1 305.934 30.264C305.934 29.544 306.042 28.842 306.258 27.924L308.31 28.104ZM304.098 19.212C303.972 19.59 303.738 20.508 303.666 20.832C303.414 22.02 302.784 25.62 302.784 27.42C302.784 27.78 302.802 28.23 302.856 28.59C303.126 27.978 303.414 27.366 303.684 26.754L304.8 27.636C304.278 29.148 303.684 31.092 303.504 32.046C303.45 32.316 303.396 32.712 303.396 32.892C303.414 33.09 303.414 33.396 303.432 33.648L301.362 33.774C301.002 32.55 300.66 30.354 300.66 27.906C300.66 25.188 301.2 22.164 301.398 20.76C301.47 20.274 301.56 19.59 301.578 19.014L304.098 19.212ZM323.88 27.312H333.312V34.53H331.26V29.274H325.842V34.602H323.88V27.312ZM331.89 17.718L333.546 19.41C330.9 20.418 327.246 20.976 324.06 21.264C323.97 20.742 323.682 19.896 323.448 19.41C326.508 19.104 329.892 18.51 331.89 17.718ZM327.57 19.734H329.622V28.446H327.57V19.734ZM322.746 22.956H334.23V25.026H322.746V22.956ZM325.284 31.92H332.106V33.864H325.284V31.92ZM318.318 19.5L319.524 17.952C320.532 18.456 322.098 19.248 322.872 19.752L321.594 21.498C320.874 20.958 319.344 20.094 318.318 19.5ZM317.436 24.486L318.606 22.884C319.632 23.37 321.234 24.144 322.026 24.648L320.82 26.43C320.082 25.926 318.516 25.062 317.436 24.486ZM317.706 32.946C318.678 31.596 320.064 29.346 321.144 27.276L322.728 28.698C321.774 30.606 320.622 32.658 319.542 34.404L317.706 32.946ZM338.604 18.924H349.656V20.976H338.604V18.924ZM338.604 23.064H349.692V25.08H338.604V23.064ZM338.568 27.312H349.764V29.346H338.568V27.312ZM337.362 18.924H339.504V25.404C339.504 28.266 339.144 32.316 336.93 34.728C336.588 34.314 335.706 33.594 335.238 33.324C337.2 31.146 337.362 27.924 337.362 25.386V18.924ZM348.9 18.924H351.042V32.082C351.042 33.234 350.79 33.81 350.07 34.152C349.314 34.494 348.234 34.53 346.596 34.512C346.506 33.936 346.182 33 345.894 32.442C346.92 32.514 348.108 32.496 348.432 32.496C348.774 32.478 348.9 32.37 348.9 32.064V18.924ZM342.906 19.734H345.102V34.404H342.906V19.734Z" fill="white"/>
</svg>
